<?xml version="1.0" encoding="utf-8"?>
<!-- Generator: Adobe Illustrator 19.0.0, SVG Export Plug-In . SVG Version: 6.00 Build 0)  -->
<svg version="1.1" id="Camada_1" xmlns="http://www.w3.org/2000/svg" xmlns:xlink="http://www.w3.org/1999/xlink" x="0px" y="0px"
	 viewBox="0 0 640.2 196.4" style="enable-background:new 0 0 640.2 196.4;" xml:space="preserve">
<style type="text/css">
	.st0{fill:#FFFFFF;}
</style>
<g id="XMLID_1_">
	<path id="XMLID_11_" class="st0" d="M197.1,2.6c0.2-0.3,0.4-0.6,0.4-0.9c0-0.8-0.6-1.4-1.4-1.4C196,0.2,0,0,0,0l0.2,195
		c0,0,0,0,0,0c0,0.8,0.6,1.4,1.4,1.4c0.4,0,0.8-0.2,1-0.4l0,0l46.9-45.2c0.2-0.2,0.3-0.6,0.3-0.9c0,0,0,0,0,0l0-31.9l31.6-0.1
		c0.4,0,0.7-0.2,1-0.4l0,0l42.9-43.8l0,0l0,0l0,0c0.2-0.3,0.4-0.6,0.4-1c0-0.8-0.6-1.4-1.4-1.4c0,0,0,0,0,0
		c-21.1-0.1-74.2,0.1-74.2,0.1S50.8,46,50.5,46L154,45.3c0,0,0,0,0,0c0.4,0,0.8-0.2,1-0.5l0,0C155.1,44.8,197.1,2.6,197.1,2.6"/>
	<path id="XMLID_10_" class="st0" d="M230.1,60.4h-16.6V45.7h16.6V33.2c0-19.3,12.4-30.6,37.3-30.6c7.3,0,16.2,0.8,21.2,1.9v16.2
		c-4-1.5-10.5-3.2-16.6-3.2c-17.6,0-20.6,11.3-20.6,21.8v6.3h26.7v14.7h-26.7v76.2h-21.2V60.4z"/>
	<path id="XMLID_7_" class="st0" d="M344.2,126.1h-0.4c-2.9,5.9-9.2,12.6-23.7,12.6c-15.3,0-26.8-9.2-26.8-23.9
		c0-30.2,38.2-30.4,50.8-30.8v-9c0-9-2.3-16.6-12.8-16.6c-11.7,0-13.9,7.8-13.9,13.9h-20.6c0-17.4,11.5-28.8,34.6-28.8
		c22.5,0,33.1,9.7,33.1,28.3v64.8h-20.3V126.1z M325.3,123.8c13.8,0,18.9-14.9,18.9-27.3c-13.8,0-30.2,4.2-30.2,16.4
		C314,120,318,123.8,325.3,123.8"/>
	<polygon id="XMLID_6_" class="st0" points="384.7,121.9 426.4,60.4 387.2,60.4 387.2,45.7 450.8,45.7 450.8,60.4 409.2,121.9 
		452.5,121.9 452.5,136.6 384.7,136.6 	"/>
	<path id="XMLID_3_" class="st0" d="M539.5,135.1c-7.6,2.5-15.7,3.6-25.4,3.6c-29.4,0-45.9-18.9-45.9-52.3c0-25.4,11.5-42.8,39-42.8
		c23.1,0,34.6,14.7,34.6,36.9v5.2h-53.9c0,12.6,8.6,38.2,34.2,38.2c6.7,0,13.6-2.1,17.4-3.4V135.1z M521.7,72.8
		c0-5.7-2.9-15.7-16-15.7c-12.4,0-16.6,10.3-17.2,15.7H521.7z"/>
	<path id="XMLID_2_" class="st0" d="M567,45.7h21.2v17h0.4c2.9-6.9,10.1-19.1,26.9-19.1c13.4,0,24.6,9.2,24.6,30v63H619v-52
		c0-18.5-1.9-21.2-9.4-21.2c-14.3,0-21.4,19.5-21.4,33.8v39.4H567V45.7z"/>
</g>
</svg>
