<?xml version="1.0" encoding="utf-8"?>
<!-- Generator: Adobe Illustrator 19.0.0, SVG Export Plug-In . SVG Version: 6.00 Build 0)  -->
<svg version="1.1" id="Camada_1" xmlns="http://www.w3.org/2000/svg" xmlns:xlink="http://www.w3.org/1999/xlink" x="0px" y="0px"
	 viewBox="0 0 595.3 197.9" style="enable-background:new 0 0 595.3 197.9;" xml:space="preserve">
<style type="text/css">
	.st0{opacity:0.7176;}
	.st1{fill:#51BE99;}
	.st2{fill:#52BE99;}
</style>
<g id="XMLID_12_">
	<g id="XMLID_13_">
		<g id="XMLID_20_" class="st0">
			<path id="XMLID_29_" class="st1" d="M152.1,112.1l-10.4-38.5l-10.5,38.5c-0.8,2.9-1.5,5-1.9,6.3c-0.5,1.3-1.3,2.4-2.5,3.4
				s-2.8,1.5-4.8,1.5c-1.6,0-2.9-0.3-4-0.9c-1-0.6-1.9-1.4-2.5-2.5c-0.6-1.1-1.2-2.4-1.6-3.9c-0.4-1.5-0.8-2.9-1.1-4.2l-10.7-43.2
				c-0.6-2.5-1-4.4-1-5.7c0-1.7,0.6-3.1,1.8-4.2c1.2-1.1,2.6-1.7,4.3-1.7c2.4,0,4,0.8,4.8,2.3c0.8,1.5,1.5,3.7,2.1,6.6l8.4,37.5
				l9.4-35c0.7-2.7,1.3-4.7,1.9-6.1c0.6-1.4,1.5-2.6,2.7-3.6c1.3-1,3-1.5,5.1-1.5c2.2,0,3.9,0.5,5.1,1.6c1.2,1.1,2,2.2,2.5,3.5
				c0.5,1.3,1.1,3.3,1.9,6.2l9.5,35l8.4-37.5c0.4-2,0.8-3.5,1.2-4.6c0.4-1.1,1-2.1,1.9-3s2.2-1.3,3.9-1.3s3.1,0.6,4.3,1.7
				c1.2,1.1,1.8,2.5,1.8,4.2c0,1.2-0.3,3.1-1,5.7l-10.7,43.2c-0.7,2.9-1.3,5.1-1.8,6.4c-0.5,1.4-1.3,2.5-2.5,3.6
				c-1.2,1-2.8,1.5-4.9,1.5c-2,0-3.6-0.5-4.8-1.5s-2-2.1-2.5-3.3S153,115.1,152.1,112.1z"/>
			<path id="XMLID_26_" class="st1" d="M196,69.1c-1.7,0-3.1-0.5-4.3-1.5s-1.8-2.5-1.8-4.3c0-1.7,0.6-3.1,1.8-4.2
				c1.2-1.1,2.6-1.6,4.2-1.6c1.5,0,2.9,0.5,4.1,1.5s1.8,2.4,1.8,4.3c0,1.8-0.6,3.3-1.8,4.3C198.9,68.6,197.6,69.1,196,69.1z
				 M201.9,81.5V116c0,2.4-0.6,4.2-1.7,5.4c-1.1,1.2-2.6,1.8-4.3,1.8s-3.2-0.6-4.3-1.9c-1.1-1.3-1.6-3-1.6-5.4V81.8
				c0-2.4,0.5-4.1,1.6-5.3c1.1-1.2,2.5-1.8,4.3-1.8s3.2,0.6,4.3,1.8C201.3,77.7,201.9,79.3,201.9,81.5z"/>
			<path id="XMLID_24_" class="st1" d="M225.1,81.3v1.4c2.1-2.8,4.4-4.8,6.9-6.1c2.5-1.3,5.4-1.9,8.6-1.9c3.2,0,6,0.7,8.4,2.1
				c2.5,1.4,4.3,3.3,5.6,5.8c0.8,1.5,1.3,3,1.5,4.7s0.4,3.9,0.4,6.5V116c0,2.4-0.5,4.2-1.6,5.4c-1.1,1.2-2.5,1.8-4.3,1.8
				c-1.8,0-3.2-0.6-4.3-1.9c-1.1-1.3-1.7-3-1.7-5.4V96.1c0-3.9-0.5-6.9-1.6-9c-1.1-2.1-3.3-3.1-6.5-3.1c-2.1,0-4.1,0.6-5.8,1.9
				s-3,3-3.9,5.2c-0.6,1.8-0.9,5.1-0.9,10v15c0,2.4-0.6,4.2-1.7,5.4c-1.1,1.2-2.6,1.8-4.4,1.8c-1.7,0-3.1-0.6-4.2-1.9
				c-1.1-1.3-1.7-3-1.7-5.4V81.5c0-2.3,0.5-4,1.5-5.1s2.3-1.7,4.1-1.7c1.1,0,2,0.2,2.8,0.7c0.8,0.5,1.5,1.2,2,2.2
				S225.1,79.9,225.1,81.3z"/>
			<path id="XMLID_21_" class="st1" d="M312.2,83.4v34.7c0,4-0.4,7.4-1.3,10.2c-0.8,2.9-2.2,5.2-4.1,7.1c-1.9,1.9-4.3,3.3-7.3,4.2
				s-6.8,1.4-11.3,1.4c-4.1,0-7.8-0.6-11-1.7c-3.2-1.2-5.7-2.6-7.5-4.5c-1.8-1.8-2.6-3.7-2.6-5.6c0-1.5,0.5-2.6,1.5-3.6
				c1-0.9,2.2-1.4,3.6-1.4c1.8,0,3.3,0.8,4.6,2.3c0.6,0.8,1.3,1.6,2,2.4s1.4,1.5,2.3,2.1s1.8,1,3,1.3c1.2,0.3,2.5,0.4,4,0.4
				c3.1,0,5.5-0.4,7.2-1.3c1.7-0.9,2.9-2.1,3.6-3.6s1.1-3.2,1.2-5c0.1-1.8,0.2-4.6,0.3-8.5c-1.8,2.6-4,4.5-6.4,5.9
				c-2.4,1.3-5.3,2-8.6,2c-4,0-7.5-1-10.5-3.1c-3-2-5.3-4.9-6.9-8.6c-1.6-3.7-2.4-7.9-2.4-12.7c0-3.6,0.5-6.8,1.5-9.7
				c1-2.9,2.4-5.3,4.2-7.3s3.9-3.5,6.3-4.5c2.4-1,5-1.5,7.8-1.5c3.4,0,6.3,0.6,8.8,1.9s4.8,3.3,6.9,6.1v-1.6c0-2.1,0.5-3.7,1.5-4.8
				s2.3-1.7,3.9-1.7c2.3,0,3.8,0.8,4.6,2.3C311.9,78.4,312.2,80.6,312.2,83.4z M277.6,98.6c0,4.8,1.1,8.5,3.2,11
				c2.1,2.5,4.8,3.7,8.2,3.7c2,0,3.9-0.5,5.6-1.6s3.2-2.7,4.3-4.8s1.7-4.7,1.7-7.8c0-4.9-1.1-8.7-3.2-11.4s-5-4.1-8.5-4.1
				c-3.4,0-6.1,1.3-8.2,3.9C278.7,90.1,277.6,93.8,277.6,98.6z"/>
		</g>
		<g id="XMLID_14_" class="st0">
			<path id="XMLID_18_" class="st1" d="M323.1,116V64.2c0-2.4,0.5-4.2,1.6-5.4c1.1-1.2,2.5-1.8,4.3-1.8s3.3,0.6,4.4,1.8
				s1.7,3,1.7,5.4V116c0,2.4-0.6,4.2-1.7,5.4s-2.6,1.8-4.4,1.8c-1.8,0-3.2-0.6-4.3-1.9C323.7,120.1,323.1,118.3,323.1,116z"/>
			<path id="XMLID_15_" class="st1" d="M380.8,101.9h-23.4c0,2.7,0.6,5.1,1.6,7.2c1.1,2.1,2.5,3.6,4.2,4.7c1.8,1.1,3.7,1.6,5.8,1.6
				c1.4,0,2.7-0.2,3.9-0.5c1.2-0.3,2.3-0.9,3.4-1.6c1.1-0.7,2.1-1.5,3.1-2.3c0.9-0.8,2.1-1.9,3.6-3.3c0.6-0.5,1.5-0.8,2.6-0.8
				c1.2,0,2.2,0.3,3,1c0.8,0.7,1.1,1.6,1.1,2.8c0,1.1-0.4,2.3-1.3,3.8c-0.8,1.4-2.1,2.8-3.8,4.2s-3.9,2.4-6.4,3.3s-5.5,1.3-8.9,1.3
				c-7.7,0-13.6-2.2-17.9-6.6c-4.3-4.4-6.4-10.3-6.4-17.8c0-3.5,0.5-6.8,1.6-9.8s2.6-5.6,4.6-7.8c2-2.2,4.5-3.8,7.4-5
				s6.2-1.7,9.8-1.7c4.7,0,8.7,1,12,3s5.8,4.5,7.5,7.6c1.7,3.1,2.5,6.3,2.5,9.5c0,3-0.9,5-2.6,5.8
				C386.3,101.5,383.9,101.9,380.8,101.9z M357.4,95.1h21.7c-0.3-4.1-1.4-7.1-3.3-9.2s-4.4-3-7.5-3c-3,0-5.4,1-7.3,3.1
				C359,88.1,357.8,91.1,357.4,95.1z"/>
		</g>
	</g>
	<g id="XMLID_16_">
		<path id="XMLID_11_" class="st2" d="M479,70.9c-0.3-2-1.5-5.9-1.5-5.9c1.1,4.1,1.6,8.3,1.5,12.5c-0.1,4.4-0.8,8.7-2.1,12.9
			c-1.3,4.1-3.3,8.1-5.7,11.7c-2.5,3.6-5.4,6.9-8.7,9.7c-3.3,2.9-6.8,5.5-10.6,7.7c-3.7,2.3-7.7,4.2-11.7,6c-4,1.8-8.1,3.3-12.3,4.7
			c-4.1,1.4-8.2,2.5-12.4,3.6c0.1-0.1,0.2-0.2,0.3-0.3c3-2.9,5.6-6.1,8-9.5c2.4-3.4,4.5-7,6.4-10.7c1.9-3.7,3.6-7.5,5-11.4l0-0.1
			l0-0.1c-0.5-2.3-1.4-4.5-2.7-6.5c-1.2-2-2.6-3.9-4.2-5.6c-3.2-3.4-6.8-6.4-10.6-9.1c-3.8-2.7-7.8-5.1-11.8-7.3
			c-3.3-1.8-6.7-3.5-10.2-5c4.4-0.4,8.7-0.4,13.1-0.2c5.2,0.3,10.4,1.1,15.4,2.3c5.1,1.2,10,2.9,14.8,5c2.4,1,4.7,2.2,7,3.5
			c2.1,1.2,4.2,2.5,6.2,3.9c0-0.4,0-0.8,0-1.1c0,0.4,0,0.8,0,1.1c0.4-3.2,0.9-6.3,2-9.2c1.1-2.9,2.8-5.6,5.3-7.3
			c2.5-1.8,5.5-2.6,8.6-2.7c1.6-0.1,3.1,0,4.7,0.2c1.3,0.2,2.5,0.5,3.7,0.9c0,0-2.4-1.2-3.6-1.5c-1.6-0.4-3.2-0.6-4.8-0.6
			c-1.6,0-3.3,0.2-4.9,0.6c-1.6,0.4-3.1,1.1-4.5,2.1c-1.4,1-2.5,2.2-3.4,3.6c-0.9,1.4-1.6,2.9-2.1,4.4c-0.9,2.7-1.2,5.5-1.2,8.3
			c0,0,0,0,0,0c-4-2.9-8.2-5.1-12.7-7.1c-4.8-2.1-9.8-3.8-15-5.1c-5.1-1.3-10.4-2-15.6-2.4c-5.3-0.3-10.6-0.2-15.8,0.4l-2.5,0.3
			l2.3,0.9c4.2,1.7,8.4,3.8,12.4,5.9c4,2.2,8,4.5,11.7,7.2c3.7,2.6,7.3,5.5,10.4,8.9c1.6,1.7,3,3.5,4.2,5.4c1.2,1.9,2.1,3.9,2.6,6.1
			c-1.3,3.8-3,7.6-4.8,11.2c-1.8,3.7-3.9,7.3-6.2,10.7c-2.3,3.4-4.8,6.7-7.7,9.6c-2.9,2.9-6.1,5.6-9.7,7.6c3.6-1.8,6.8-4.3,9.6-7.1
			c8.6-1.7,17-4,25.1-7.4c4.1-1.7,8.1-3.6,11.9-5.9c3.8-2.3,7.5-4.9,10.8-7.8c3.3-3,6.3-6.3,8.8-10c2.5-3.7,4.4-7.8,5.7-12.1
			c1.3-4.3,1.9-8.7,1.8-13.2C479.6,75.3,479.4,73.1,479,70.9z"/>
		<path id="XMLID_10_" class="st2" d="M477.1,64.8c0,0,4.8-3,7.3-4.2c1.5-0.7,3.1-1.4,4.7-2c1.6-0.6,3.2-1.2,4.9-1.6
			c-3.3,0.8-6.6,2-9.7,3.4c-2.8,1.3-5.2,2.6-7.7,4.3C476.7,64.6,477.1,64.8,477.1,64.8z"/>
	</g>
</g>
</svg>
