<?xml version="1.0" encoding="utf-8"?>
<!-- Generator: Adobe Illustrator 21.0.2, SVG Export Plug-In . SVG Version: 6.00 Build 0)  -->
<svg version="1.1" id="Camada_1" xmlns="http://www.w3.org/2000/svg" xmlns:xlink="http://www.w3.org/1999/xlink" x="0px" y="0px"
	 viewBox="0 0 90.2 26.4" style="enable-background:new 0 0 90.2 26.4;" xml:space="preserve">
<style type="text/css">
	.st0{fill:#2BA895;}
</style>
<g>
	<path class="st0" d="M15.9,17.3l-3.2-12l-3.3,12c-0.3,0.9-0.5,1.6-0.6,2c-0.2,0.4-0.4,0.8-0.8,1.1c-0.4,0.3-0.9,0.5-1.5,0.5
		c-0.5,0-0.9-0.1-1.2-0.3c-0.3-0.2-0.6-0.5-0.8-0.8c-0.2-0.3-0.4-0.7-0.5-1.2c-0.2-0.6-0.3-1.1-0.4-1.5L0.3,3.6C0.1,2.8,0,2.2,0,1.8
		c0-0.5,0.2-1,0.6-1.3C1,0.1,1.4,0,2,0c0.7,0,1.2,0.2,1.5,0.7S4,1.9,4.2,2.8l2.5,11.7l3-10.9c0.2-0.8,0.4-1.5,0.6-1.9
		c0.2-0.4,0.5-0.8,0.9-1.1c0.4-0.3,0.9-0.5,1.6-0.5c0.7,0,1.2,0.2,1.6,0.5s0.6,0.7,0.8,1.1c0.1,0.4,0.3,1,0.6,1.9l2.9,11l2.7-11.7
		c0.1-0.6,0.3-1.1,0.4-1.4c0.1-0.3,0.3-0.7,0.6-0.9c0.3-0.3,0.7-0.4,1.2-0.4s1,0.2,1.3,0.5c0.4,0.4,0.6,0.8,0.5,1.3
		c0,0.4-0.1,1-0.3,1.8l-3.4,13.5c-0.2,0.9-0.4,1.6-0.6,2c-0.2,0.4-0.4,0.8-0.8,1.1c-0.4,0.3-0.9,0.5-1.5,0.5s-1.1-0.2-1.5-0.5
		s-0.6-0.7-0.8-1C16.3,18.9,16.1,18.2,15.9,17.3z"/>
	<path class="st0" d="M29.6,3.9c-0.5,0-1-0.2-1.3-0.5c-0.4-0.3-0.6-0.8-0.5-1.4c0-0.5,0.2-1,0.6-1.3c0.4-0.3,0.8-0.5,1.3-0.5
		s0.9,0.2,1.3,0.5c0.4,0.3,0.6,0.8,0.6,1.4s-0.2,1-0.6,1.3C30.5,3.7,30.1,3.9,29.6,3.9z M31.4,7.8v10.8c0,0.7-0.2,1.3-0.5,1.7
		c-0.4,0.4-0.8,0.6-1.4,0.6c-0.5,0-1-0.2-1.3-0.6s-0.5-1-0.5-1.7V7.9c0-0.7,0.2-1.3,0.5-1.7c0.3-0.4,0.8-0.6,1.3-0.6s1,0.2,1.4,0.6
		C31.3,6.6,31.4,7.1,31.4,7.8z"/>
	<path class="st0" d="M38.7,7.7v0.5c0.7-0.9,1.4-1.5,2.2-1.9s1.7-0.6,2.7-0.6s1.9,0.2,2.6,0.7c0.8,0.4,1.4,1,1.7,1.8
		c0.2,0.5,0.4,0.9,0.5,1.5c0.1,0.5,0.1,1.2,0.1,2v6.9c0,0.7-0.2,1.3-0.5,1.7c-0.3,0.4-0.8,0.6-1.3,0.6c-0.6,0-1-0.2-1.4-0.6
		c-0.3-0.4-0.5-1-0.5-1.7v-6.2c0-1.2-0.2-2.2-0.5-2.8c-0.3-0.7-1-1-2-1c-0.7,0-1.3,0.2-1.8,0.6s-1,0.9-1.2,1.6
		c-0.2,0.6-0.3,1.6-0.3,3.1v4.7c0,0.8-0.2,1.3-0.5,1.7c-0.4,0.4-0.8,0.6-1.4,0.6c-0.5,0-1-0.2-1.3-0.6s-0.5-1-0.5-1.7V7.8
		c0-0.7,0.2-1.2,0.5-1.6c0.3-0.3,0.7-0.5,1.3-0.5c0.3,0,0.6,0.1,0.9,0.2c0.3,0.2,0.5,0.4,0.6,0.7C38.6,6.9,38.7,7.3,38.7,7.7z"/>
	<path class="st0" d="M65.9,8.5v10.8c0,1.2-0.1,2.3-0.4,3.2c-0.3,0.9-0.7,1.6-1.3,2.2c-0.6,0.6-1.3,1-2.3,1.3
		c-0.9,0.3-2.1,0.4-3.5,0.4c-1.3,0-2.4-0.2-3.4-0.6s-1.8-0.8-2.3-1.4s-0.8-1.2-0.8-1.8c0-0.5,0.2-0.8,0.5-1.1
		c0.3-0.3,0.7-0.4,1.1-0.4c0.5,0,1,0.2,1.4,0.7c0.2,0.2,0.4,0.5,0.6,0.7c0.2,0.3,0.4,0.5,0.7,0.6c0.3,0.2,0.6,0.3,0.9,0.4
		c0.4,0.1,0.8,0.1,1.3,0.1c1,0,1.7-0.1,2.3-0.4c0.5-0.3,0.9-0.6,1.1-1.1c0.2-0.5,0.3-1,0.4-1.6c0-0.6,0.1-1.4,0.1-2.7
		c-0.6,0.8-1.2,1.4-2,1.8s-1.6,0.6-2.7,0.6c-1.2,0-2.3-0.3-3.3-1c-0.9-0.6-1.6-1.5-2.1-2.7s-0.7-2.5-0.7-4c0-1.1,0.2-2.1,0.5-3
		s0.7-1.7,1.3-2.3c0.6-0.6,1.2-1.1,2-1.4s1.6-0.5,2.4-0.5c1.1,0,2,0.2,2.7,0.6c0.8,0.4,1.5,1,2.2,1.9V7.3c0-0.6,0.2-1.1,0.5-1.5
		s0.7-0.5,1.2-0.5c0.7,0,1.2,0.2,1.4,0.7C65.8,6.9,65.9,7.6,65.9,8.5z M55.1,13.2c0,1.5,0.3,2.7,1,3.4c0.7,0.8,1.5,1.2,2.6,1.2
		c0.6,0,1.2-0.2,1.8-0.5s1-0.8,1.4-1.5c0.3-0.7,0.5-1.5,0.5-2.4c0-1.5-0.3-2.7-1-3.6c-0.7-0.8-1.5-1.3-2.6-1.3s-1.9,0.4-2.6,1.2
		C55.4,10.5,55.1,11.7,55.1,13.2z"/>
	<g>
		<path class="st0" d="M69.3,18.7l0.1-16.2c0-0.7,0.2-1.3,0.5-1.7c0.3-0.4,0.8-0.6,1.3-0.6c0.6,0,1,0.2,1.4,0.6
			c0.3,0.4,0.5,0.9,0.5,1.7L73,18.7c0,0.8-0.2,1.3-0.5,1.7c-0.3,0.4-0.8,0.6-1.4,0.6c-0.5,0-1-0.2-1.3-0.6
			C69.5,20,69.3,19.4,69.3,18.7z"/>
		<path class="st0" d="M87.3,14.3H80c0,0.8,0.2,1.6,0.5,2.2s0.8,1.1,1.3,1.5c0.6,0.3,1.2,0.5,1.8,0.5c0.4,0,0.9,0,1.2-0.2
			c0.4-0.1,0.7-0.3,1.1-0.5c0.3-0.2,0.7-0.5,1-0.7c0.3-0.3,0.7-0.6,1.1-1c0.2-0.2,0.5-0.2,0.8-0.2c0.4,0,0.7,0.1,0.9,0.3
			c0.2,0.2,0.4,0.5,0.4,0.9c0,0.3-0.1,0.7-0.4,1.2s-0.7,0.9-1.2,1.3s-1.2,0.8-2,1c-0.8,0.3-1.7,0.4-2.8,0.4c-2.4,0-4.3-0.7-5.6-2.1
			c-1.3-1.4-2-3.2-2-5.6c0-1.1,0.2-2.1,0.5-3.1c0.3-0.9,0.8-1.7,1.4-2.4c0.6-0.7,1.4-1.2,2.3-1.5c0.9-0.4,1.9-0.5,3.1-0.5
			c1.5,0,2.7,0.3,3.7,0.9s1.8,1.4,2.3,2.4s0.8,2,0.8,3c0,0.9-0.3,1.5-0.8,1.8C89.1,14.2,88.3,14.3,87.3,14.3z M80,12.2h6.8
			c-0.1-1.3-0.4-2.2-1-2.9c-0.6-0.6-1.4-1-2.4-1c-0.9,0-1.7,0.3-2.3,1C80.5,10,80.2,10.9,80,12.2z"/>
	</g>
</g>
</svg>
