<?xml version="1.0" encoding="utf-8"?>
<!-- Generator: Adobe Illustrator 21.0.2, SVG Export Plug-In . SVG Version: 6.00 Build 0)  -->
<svg version="1.1" id="Camada_1" xmlns="http://www.w3.org/2000/svg" xmlns:xlink="http://www.w3.org/1999/xlink" x="0px" y="0px"
	 viewBox="0 0 103.6 84.1" style="enable-background:new 0 0 103.6 84.1;" xml:space="preserve">
<style type="text/css">
	.st0{fill:#51BE99;}
	.st1{fill:#52BE99;}
</style>
<g>
	<path class="st0" d="M9.2-98.7l-3.2-12l-3.3,12c-0.3,0.9-0.5,1.6-0.6,2c-0.2,0.4-0.4,0.8-0.8,1.1c-0.4,0.3-0.9,0.5-1.5,0.5
		c-0.5,0-0.9-0.1-1.2-0.3c-0.3-0.2-0.6-0.5-0.8-0.8c-0.2-0.3-0.4-0.7-0.5-1.2C-2.9-98-3-98.5-3.1-98.9l-3.3-13.5
		c-0.2-0.8-0.3-1.4-0.3-1.8c0-0.5,0.2-1,0.6-1.3c0.4-0.4,0.8-0.5,1.4-0.5c0.7,0,1.2,0.2,1.5,0.7c0.3,0.5,0.5,1.2,0.7,2.1L0-101.5
		l3-10.9c0.2-0.8,0.4-1.5,0.6-1.9c0.2-0.4,0.5-0.8,0.9-1.1c0.4-0.3,0.9-0.5,1.6-0.5c0.7,0,1.2,0.2,1.6,0.5c0.4,0.3,0.6,0.7,0.8,1.1
		c0.1,0.4,0.3,1,0.6,1.9l2.9,11l2.7-11.7c0.1-0.6,0.3-1.1,0.4-1.4c0.1-0.3,0.3-0.7,0.6-0.9c0.3-0.3,0.7-0.4,1.2-0.4
		c0.5,0,1,0.2,1.3,0.5c0.4,0.4,0.6,0.8,0.5,1.3c0,0.4-0.1,1-0.3,1.8l-3.4,13.5c-0.2,0.9-0.4,1.6-0.6,2c-0.2,0.4-0.4,0.8-0.8,1.1
		c-0.4,0.3-0.9,0.5-1.5,0.5c-0.6,0-1.1-0.2-1.5-0.5c-0.4-0.3-0.6-0.7-0.8-1C9.6-97.1,9.4-97.8,9.2-98.7z"/>
	<path class="st0" d="M22.9-112.1c-0.5,0-1-0.2-1.3-0.5c-0.4-0.3-0.6-0.8-0.5-1.4c0-0.5,0.2-1,0.6-1.3c0.4-0.3,0.8-0.5,1.3-0.5
		c0.5,0,0.9,0.2,1.3,0.5c0.4,0.3,0.6,0.8,0.6,1.4c0,0.6-0.2,1-0.6,1.3C23.8-112.3,23.4-112.1,22.9-112.1z M24.7-108.2l0,10.8
		c0,0.7-0.2,1.3-0.5,1.7c-0.4,0.4-0.8,0.6-1.4,0.6c-0.5,0-1-0.2-1.3-0.6c-0.3-0.4-0.5-1-0.5-1.7l0-10.7c0-0.7,0.2-1.3,0.5-1.7
		c0.3-0.4,0.8-0.6,1.3-0.6c0.5,0,1,0.2,1.4,0.6S24.7-108.9,24.7-108.2z"/>
	<path class="st0" d="M32-108.3l0,0.5c0.7-0.9,1.4-1.5,2.2-1.9c0.8-0.4,1.7-0.6,2.7-0.6c1,0,1.9,0.2,2.6,0.7c0.8,0.4,1.4,1,1.7,1.8
		c0.2,0.5,0.4,0.9,0.5,1.5c0.1,0.5,0.1,1.2,0.1,2l0,6.9c0,0.7-0.2,1.3-0.5,1.7c-0.3,0.4-0.8,0.6-1.3,0.6c-0.6,0-1-0.2-1.4-0.6
		c-0.3-0.4-0.5-1-0.5-1.7l0-6.2c0-1.2-0.2-2.2-0.5-2.8c-0.3-0.7-1-1-2-1c-0.7,0-1.3,0.2-1.8,0.6c-0.5,0.4-1,0.9-1.2,1.6
		c-0.2,0.6-0.3,1.6-0.3,3.1l0,4.7c0,0.8-0.2,1.3-0.5,1.7c-0.4,0.4-0.8,0.6-1.4,0.6c-0.5,0-1-0.2-1.3-0.6c-0.3-0.4-0.5-1-0.5-1.7
		l0-10.8c0-0.7,0.2-1.2,0.5-1.6c0.3-0.3,0.7-0.5,1.3-0.5c0.3,0,0.6,0.1,0.9,0.2c0.3,0.2,0.5,0.4,0.6,0.7
		C31.9-109.1,32-108.7,32-108.3z"/>
	<path class="st0" d="M59.2-107.5l0,10.8c0,1.2-0.1,2.3-0.4,3.2c-0.3,0.9-0.7,1.6-1.3,2.2c-0.6,0.6-1.3,1-2.3,1.3
		c-0.9,0.3-2.1,0.4-3.5,0.4c-1.3,0-2.4-0.2-3.4-0.6c-1-0.4-1.8-0.8-2.3-1.4c-0.5-0.6-0.8-1.2-0.8-1.8c0-0.5,0.2-0.8,0.5-1.1
		c0.3-0.3,0.7-0.4,1.1-0.4c0.5,0,1,0.2,1.4,0.7c0.2,0.2,0.4,0.5,0.6,0.7c0.2,0.3,0.4,0.5,0.7,0.6c0.3,0.2,0.6,0.3,0.9,0.4
		c0.4,0.1,0.8,0.1,1.3,0.1c1,0,1.7-0.1,2.3-0.4c0.5-0.3,0.9-0.6,1.1-1.1c0.2-0.5,0.3-1,0.4-1.6c0-0.6,0.1-1.4,0.1-2.7
		c-0.6,0.8-1.2,1.4-2,1.8c-0.8,0.4-1.6,0.6-2.7,0.6c-1.2,0-2.3-0.3-3.3-1c-0.9-0.6-1.6-1.5-2.1-2.7c-0.5-1.2-0.7-2.5-0.7-4
		c0-1.1,0.2-2.1,0.5-3c0.3-0.9,0.7-1.7,1.3-2.3c0.6-0.6,1.2-1.1,2-1.4s1.6-0.5,2.4-0.5c1.1,0,2,0.2,2.7,0.6c0.8,0.4,1.5,1,2.2,1.9
		l0-0.5c0-0.6,0.2-1.1,0.5-1.5c0.3-0.4,0.7-0.5,1.2-0.5c0.7,0,1.2,0.2,1.4,0.7C59.1-109.1,59.2-108.4,59.2-107.5z M48.4-102.8
		c0,1.5,0.3,2.7,1,3.4c0.7,0.8,1.5,1.2,2.6,1.2c0.6,0,1.2-0.2,1.8-0.5c0.6-0.3,1-0.8,1.4-1.5c0.3-0.7,0.5-1.5,0.5-2.4
		c0-1.5-0.3-2.7-1-3.6c-0.7-0.8-1.5-1.3-2.6-1.3c-1.1,0-1.9,0.4-2.6,1.2C48.7-105.5,48.4-104.3,48.4-102.8z"/>
	<g>
		<path class="st0" d="M62.6-97.3l0.1-16.2c0-0.7,0.2-1.3,0.5-1.7c0.3-0.4,0.8-0.6,1.3-0.6c0.6,0,1,0.2,1.4,0.6
			c0.3,0.4,0.5,0.9,0.5,1.7l-0.1,16.2c0,0.8-0.2,1.3-0.5,1.7C65.5-95.2,65-95,64.4-95c-0.5,0-1-0.2-1.3-0.6
			C62.8-96,62.6-96.6,62.6-97.3z"/>
		<path class="st0" d="M80.6-101.7l-7.3,0c0,0.8,0.2,1.6,0.5,2.2c0.3,0.6,0.8,1.1,1.3,1.5c0.6,0.3,1.2,0.5,1.8,0.5
			c0.4,0,0.9,0,1.2-0.2c0.4-0.1,0.7-0.3,1.1-0.5c0.3-0.2,0.7-0.5,1-0.7c0.3-0.3,0.7-0.6,1.1-1c0.2-0.2,0.5-0.2,0.8-0.2
			c0.4,0,0.7,0.1,0.9,0.3c0.2,0.2,0.4,0.5,0.4,0.9c0,0.3-0.1,0.7-0.4,1.2c-0.3,0.5-0.7,0.9-1.2,1.3c-0.5,0.4-1.2,0.8-2,1
			c-0.8,0.3-1.7,0.4-2.8,0.4c-2.4,0-4.3-0.7-5.6-2.1c-1.3-1.4-2-3.2-2-5.6c0-1.1,0.2-2.1,0.5-3.1c0.3-0.9,0.8-1.7,1.4-2.4
			c0.6-0.7,1.4-1.2,2.3-1.5c0.9-0.4,1.9-0.5,3.1-0.5c1.5,0,2.7,0.3,3.7,0.9c1,0.6,1.8,1.4,2.3,2.4c0.5,1,0.8,2,0.8,3
			c0,0.9-0.3,1.5-0.8,1.8C82.4-101.8,81.6-101.7,80.6-101.7z M73.3-103.8l6.8,0c-0.1-1.3-0.4-2.2-1-2.9c-0.6-0.6-1.4-1-2.4-1
			c-0.9,0-1.7,0.3-2.3,1C73.8-106,73.5-105.1,73.3-103.8z"/>
	</g>
</g>
<g id="XMLID_16_">
	<path id="XMLID_11_" class="st1" d="M88.6,13.9c-0.3-2-1.5-5.9-1.5-5.9c1.1,4.1,1.6,8.3,1.5,12.5c-0.1,4.4-0.8,8.7-2.1,12.9
		c-1.3,4.1-3.3,8.1-5.7,11.7c-2.5,3.6-5.4,6.9-8.7,9.7c-3.3,2.9-6.8,5.5-10.6,7.7c-3.7,2.3-7.7,4.2-11.7,6s-8.1,3.3-12.3,4.7
		c-4.1,1.4-8.2,2.5-12.4,3.6c0.1-0.1,0.2-0.2,0.3-0.3c3-2.9,5.6-6.1,8-9.5c2.4-3.4,4.5-7,6.4-10.7s3.6-7.5,5-11.4v-0.1v-0.1
		c-0.5-2.3-1.4-4.5-2.7-6.5c-1.2-2-2.6-3.9-4.2-5.6c-3.2-3.4-6.8-6.4-10.6-9.1c-3.8-2.7-7.8-5.1-11.8-7.3c-3.3-1.8-6.7-3.5-10.2-5
		c4.4-0.4,8.7-0.4,13.1-0.2c5.2,0.3,10.4,1.1,15.4,2.3c5.1,1.2,10,2.9,14.8,5c2.4,1,4.7,2.2,7,3.5c2.1,1.2,4.2,2.5,6.2,3.9
		c0-0.4,0-0.8,0-1.1c0,0.4,0,0.8,0,1.1c0.4-3.2,0.9-6.3,2-9.2c1.1-2.9,2.8-5.6,5.3-7.3c2.5-1.8,5.5-2.6,8.6-2.7
		c1.6-0.1,3.1,0,4.7,0.2c1.3,0.2,2.5,0.5,3.7,0.9c0,0-2.4-1.2-3.6-1.5c-1.6-0.4-3.2-0.6-4.8-0.6c-1.6,0-3.3,0.2-4.9,0.6
		c-1.6,0.4-3.1,1.1-4.5,2.1s-2.5,2.2-3.4,3.6s-1.6,2.9-2.1,4.4c-0.9,2.7-1.2,5.5-1.2,8.3l0,0c-4-2.9-8.2-5.1-12.7-7.1
		c-4.8-2.1-9.8-3.8-15-5.1c-5.1-1.3-10.4-2-15.6-2.4C13,9.6,7.7,9.7,2.5,10.3L0,10.6l2.3,0.9c4.2,1.7,8.4,3.8,12.4,5.9
		c4,2.2,8,4.5,11.7,7.2c3.7,2.6,7.3,5.5,10.4,8.9c1.6,1.7,3,3.5,4.2,5.4s2.1,3.9,2.6,6.1c-1.3,3.8-3,7.6-4.8,11.2
		c-1.8,3.7-3.9,7.3-6.2,10.7c-2.3,3.4-4.8,6.7-7.7,9.6c-2.9,2.9-6.1,5.6-9.7,7.6c3.6-1.8,6.8-4.3,9.6-7.1c8.6-1.7,17-4,25.1-7.4
		C54,67.9,58,66,61.8,63.7c3.8-2.3,7.5-4.9,10.8-7.8c3.3-3,6.3-6.3,8.8-10s4.4-7.8,5.7-12.1c1.3-4.3,1.9-8.7,1.8-13.2
		C89.2,18.3,89,16.1,88.6,13.9z"/>
	<path id="XMLID_10_" class="st1" d="M86.7,7.8c0,0,4.8-3,7.3-4.2c1.5-0.7,3.1-1.4,4.7-2s3.2-1.2,4.9-1.6c-3.3,0.8-6.6,2-9.7,3.4
		c-2.8,1.3-5.2,2.6-7.7,4.3C86.3,7.6,86.7,7.8,86.7,7.8z"/>
</g>
<g>
</g>
<g>
</g>
<g>
</g>
<g>
</g>
<g>
</g>
<g>
</g>
<g>
</g>
<g>
</g>
<g>
</g>
<g>
</g>
<g>
</g>
<g>
</g>
<g>
</g>
<g>
</g>
<g>
</g>
</svg>
