<?xml version="1.0" encoding="utf-8"?>
<!-- Generator: Adobe Illustrator 19.0.0, SVG Export Plug-In . SVG Version: 6.00 Build 0)  -->
<svg version="1.1" id="Camada_1" xmlns="http://www.w3.org/2000/svg" xmlns:xlink="http://www.w3.org/1999/xlink" x="0px" y="0px"
	 viewBox="-3047.5 3949 25.1 24" style="enable-background:new -3047.5 3949 25.1 24;" xml:space="preserve">
<style type="text/css">
	.st0{fill:#FFFFFF;}
</style>
<g>
	<path class="st0" d="M-3037.5,3961.4c2.2,0,4-1.8,4-4s-1.8-4-4-4s-4,1.8-4,4S-3039.7,3961.4-3037.5,3961.4z M-3037.5,3963.4
		c-2.7,0-8,1.3-8,4v2h16v-2C-3029.5,3964.8-3034.9,3963.4-3037.5,3963.4z"/>
	<path class="st0" d="M-3025.1,3953c-1.5-1.5-4-1.5-5.5,0c-1.5,1.5-1.5,3.8-0.2,5.4l0,0c-0.1,0.3-0.4,0.7-0.8,0.9
		c-0.1,0.1-0.1,0.3,0,0.3c0.4,0.1,1.1,0,1.7-0.5l0,0c1.5,0.9,3.5,0.7,4.7-0.6C-3023.6,3957-3023.6,3954.6-3025.1,3953z
		 M-3027.7,3953.4c0.3,0,0.6,0.3,0.6,0.6c0,0.4-0.3,0.6-0.6,0.6c-0.4,0-0.6-0.3-0.6-0.6C-3028.4,3953.7-3028.1,3953.4-3027.7,3953.4
		z M-3026.8,3957.7c0,0.1,0,0.1-0.1,0.2c-0.2,0.2-0.5,0.4-0.8,0.4c-0.2,0-0.3,0-0.5,0c-0.3,0-0.6-0.4-0.5-0.7c0-0.2,0.1-0.5,0.1-0.7
		c0.1-0.4,0.1-0.8,0.2-1.2c0,0,0-0.1,0-0.1c0-0.2-0.1-0.2-0.2-0.2c-0.1,0-0.1,0-0.2,0c-0.1,0-0.1-0.1-0.1-0.2c0-0.1,0.1-0.1,0.1-0.1
		c0,0,0.1,0,0.1,0c0.2,0,0.4,0,0.6,0c0.2,0,0.4,0,0.6,0c0.1,0,0.2,0.1,0.2,0.2c0,0.1,0,0.3,0,0.4c-0.1,0.5-0.2,0.9-0.3,1.4
		c0,0.2-0.1,0.3-0.1,0.5c0,0.1,0,0.2,0,0.2c0,0.1,0.1,0.1,0.2,0.1c0.1,0,0.2,0,0.2-0.1c0.1,0,0.1-0.1,0.2-0.1
		C-3026.9,3957.5-3026.8,3957.6-3026.8,3957.7z"/>
</g>
</svg>
