<?xml version="1.0" encoding="utf-8"?>
<!-- Generator: Adobe Illustrator 21.0.2, SVG Export Plug-In . SVG Version: 6.00 Build 0)  -->
<svg version="1.1" id="Camada_1" xmlns="http://www.w3.org/2000/svg" xmlns:xlink="http://www.w3.org/1999/xlink" x="0px" y="0px"
   viewBox="0 0 1367.7 1368" style="enable-background:new 0 0 1367.7 1368;" xml:space="preserve">
<style type="text/css">
  .st0{fill:#707070;}
  .st1{opacity:0;clip-path:url(#SVGID_2_);fill:#FFFFFF;}
  .st2{clip-path:url(#SVGID_4_);}
  .st3{opacity:0;clip-path:url(#SVGID_8_);fill:#FFFFFF;}
  .st4{clip-path:url(#SVGID_8_);fill:#20A0AC;}
  .st5{clip-path:url(#SVGID_8_);}
  .st6{opacity:0;clip-path:url(#SVGID_10_);fill:#FFFFFF;}
  .st7{clip-path:url(#SVGID_12_);}
  .st8{opacity:0;clip-path:url(#SVGID_16_);fill:#FFFFFF;}
  .st9{clip-path:url(#SVGID_18_);}
  .st10{opacity:0;clip-path:url(#SVGID_22_);fill:#FFFFFF;}
  .st11{clip-path:url(#SVGID_24_);}
  .st12{opacity:0;clip-path:url(#SVGID_28_);fill:#FFFFFF;}
  .st13{clip-path:url(#SVGID_30_);}
  .st14{fill:#7FBEFD;}
  .st15{fill:#7EBDFD;}
  .st16{fill:#B5D9FE;}
  .st17{fill:#79BBFD;}
  .st18{fill:#B4D8FE;}
  .st19{fill:#BBDCFE;}
  .st20{fill:#CBE4FE;}
  .st21{fill:#BEDEFE;}
  .st22{fill:#C5E1FE;}
  .st23{fill:#C4E1FE;}
  .st24{fill:#FFFFFF;}
  .st25{fill:#3497FD;}
  .st26{fill:#BCDCFE;}
  .st27{fill:#52A6FC;}
  .st28{fill:#59A9FC;}
  .st29{fill:#ABD4FD;}
  .st30{fill:#DDEDFE;}
  .st31{fill:#A6D1FD;}
  .st32{fill:#3395FA;}
  .st33{fill:#66AFFC;}
  .st34{fill:#8BC3FD;}
  .st35{fill:#99CAFD;}
  .st36{fill:#82BEFD;}
  .st37{fill:#ACD4FD;}
  .st38{fill:#72B6FC;}
  .st39{fill:#8FC5FD;}
  .st40{fill:#D6DAE1;}
  .st41{fill:#949DB2;}
  .st42{fill:#8C96AC;}
  .st43{fill:#C5CAD5;}
  .st44{fill:#A3ABBD;}
  .st45{fill:#B7BDCB;}
  .st46{fill:#E8EAEE;}
  .st47{fill:#CFD3DC;}
  .st48{fill:#E9EBEF;}
  .st49{fill:#E7E9ED;}
  .st50{fill:#EAEBF0;}
  .st51{fill:#77839D;}
</style>
<path class="st0" d="M-4989.2,3835.7c-1.6-3.2-5.1-4.9-8.5-4.4l-43.6,6.7l6.7-43.6c0.5-3.5-1.2-6.9-4.4-8.5c-3.2-1.6-7-1-9.5,1.5
  l-50.6,50.6c-1.2,1.2-2,2.8-2.3,4.5l-8,52l-29,29c-39.9-37.1-91.6-57.4-146.5-57.4c-57.6,0-111.7,22.4-152.4,63.1
  c-40.7,40.7-63.1,94.8-63.1,152.4s22.4,111.7,63.1,152.4c40.7,40.7,94.8,63.1,152.4,63.1s111.7-22.4,152.4-63.1
  c40.7-40.7,63.1-94.8,63.1-152.4c0-45.8-14.2-89.5-40.9-126.4c-2.7-3.7-7.8-4.5-11.4-1.8c-3.7,2.7-4.5,7.8-1.8,11.4
  c24.7,34.1,37.8,74.5,37.8,116.9c0,109.8-89.3,199.1-199.1,199.1c-109.8,0-199.1-89.3-199.1-199.1s89.3-199.1,199.1-199.1
  c50.5,0,98.1,18.6,134.9,52.6l-37.3,37.3c-26.9-24-61.3-37.2-97.6-37.2c-80.7,0-146.3,65.6-146.3,146.3
  c0,80.7,65.6,146.3,146.3,146.3s146.3-65.6,146.3-146.3c0-26.9-7.4-53.3-21.3-76.1c-2.3-3.9-7.4-5.1-11.2-2.7
  c-3.9,2.3-5.1,7.4-2.7,11.2c12.4,20.3,18.9,43.7,18.9,67.6c0,71.7-58.3,130-130,130c-71.7,0-130-58.3-130-130
  c0-71.7,58.3-130,130-130c31.9,0,62.2,11.5,86,32.5l-37.4,37.4c-13.7-11.1-30.7-17.1-48.6-17.1c-42.6,0-77.3,34.7-77.3,77.3
  s34.7,77.3,77.3,77.3c42.6,0,77.3-34.7,77.3-77.3c0-7.6-1.1-15.1-3.3-22.3c-1.3-4.3-5.9-6.8-10.2-5.5c-4.3,1.3-6.8,5.9-5.5,10.2
  c1.7,5.7,2.6,11.6,2.6,17.6c0,33.6-27.3,60.9-60.9,60.9c-33.6,0-60.9-27.3-60.9-60.9c0-33.6,27.3-60.9,60.9-60.9
  c13.5,0,26.4,4.4,36.9,12.4l-42.7,42.7c-3.2,3.2-3.2,8.4,0,11.6c1.6,1.6,3.7,2.4,5.8,2.4c2.1,0,4.2-0.8,5.8-2.4l146.6-146.6
  c0-0.1,34.7-34.7,34.7-34.7l52-8c1.7-0.3,3.3-1.1,4.5-2.3l50.6-50.6C-4988.2,3842.7-4987.6,3838.8-4989.2,3835.7L-4989.2,3835.7z
   M-5085.7,3847.7l31.1-31.1l-4.2,27.3l-31.1,31.1L-5085.7,3847.7z M-5051,3882.4l-27.3,4.2l31.1-31.1l27.3-4.2
  C-5019.9,3851.3-5051,3882.4-5051,3882.4z"/>
<g>
  <defs>
    <rect id="SVGID_1_" x="-5337.3" y="3978" width="186" height="124"/>
  </defs>
  <clipPath id="SVGID_2_">
    <use xlink:href="#SVGID_1_"  style="overflow:visible;"/>
  </clipPath>
  <rect x="-5337.3" y="3978" class="st1" width="186" height="124"/>
</g>
<g>
  <defs>
    <rect id="SVGID_3_" x="-5890.3" y="3851.7" width="317" height="211.3"/>
  </defs>
  <clipPath id="SVGID_4_">
    <use xlink:href="#SVGID_3_"  style="overflow:visible;"/>
  </clipPath>
  <g class="st2">
    <defs>
      <rect id="SVGID_5_" x="-5890.3" y="3851.7" width="317" height="211.3"/>
    </defs>
    <clipPath id="SVGID_6_">
      <use xlink:href="#SVGID_5_"  style="overflow:visible;"/>
    </clipPath>
    <g transform="matrix(1 0 0 1 4.882812e-04 0)" style="clip-path:url(#SVGID_6_);">
      
        <image style="overflow:visible;" width="3713" height="2474" xlink:href="95644EC9ADB73B5D.jpg"  transform="matrix(8.537570e-02 0 0 8.542172e-02 -5890.3149 3851.6667)">
      </image>
    </g>
  </g>
</g>
<g>
  <defs>
    <rect id="SVGID_7_" x="-5782.3" y="3944.7" width="100" height="26"/>
  </defs>
  <clipPath id="SVGID_8_">
    <use xlink:href="#SVGID_7_"  style="overflow:visible;"/>
  </clipPath>
  <rect x="-5782.3" y="3944.7" class="st3" width="100" height="26"/>
  <rect x="-5782.3" y="3944.7" class="st4" width="100" height="26"/>
  <g class="st5">
    <defs>
      <rect id="SVGID_9_" x="-6213.3" y="3833.7" width="961" height="248"/>
    </defs>
    <clipPath id="SVGID_10_">
      <use xlink:href="#SVGID_9_"  style="overflow:visible;"/>
    </clipPath>
    <rect x="-6213.3" y="3833.7" class="st6" width="961" height="248"/>
  </g>
  <g class="st5">
    <defs>
      <rect id="SVGID_11_" x="-6274.8" y="3985.2" width="961" height="248"/>
    </defs>
    <clipPath id="SVGID_12_">
      <use xlink:href="#SVGID_11_"  style="overflow:visible;"/>
    </clipPath>
    <g class="st7">
      <defs>
        <rect id="SVGID_13_" x="-6307.7" y="3985.2" width="1027.6" height="248"/>
      </defs>
      <clipPath id="SVGID_14_">
        <use xlink:href="#SVGID_13_"  style="overflow:visible;"/>
      </clipPath>
      <g transform="matrix(1 0 0 1 0 2.441406e-04)" style="clip-path:url(#SVGID_14_);">
        
          <image style="overflow:visible;" width="2775" height="668" xlink:href="95644EC9ADB73B5F.jpg"  transform="matrix(0.3703 0 0 0.3713 -6307.7163 3985.1592)">
        </image>
      </g>
    </g>
  </g>
</g>
<image style="overflow:visible;" width="2775" height="668" xlink:href="95644EC9ADB73B5A.jpg"  transform="matrix(0.3703 0 0 0.3713 -6620.6973 3445.6785)">
</image>
<g>
  <defs>
    <rect id="SVGID_15_" x="-6620.7" y="3696.1" width="1633.4" height="421.5"/>
  </defs>
  <clipPath id="SVGID_16_">
    <use xlink:href="#SVGID_15_"  style="overflow:visible;"/>
  </clipPath>
  <rect x="-6620.7" y="3696.1" class="st8" width="1633.4" height="421.5"/>
</g>
<g>
  <defs>
    <rect id="SVGID_17_" x="-7090.7" y="3747.2" width="2528.4" height="652.5"/>
  </defs>
  <clipPath id="SVGID_18_">
    <use xlink:href="#SVGID_17_"  style="overflow:visible;"/>
  </clipPath>
  <g class="st9">
    <defs>
      <rect id="SVGID_19_" x="-7177.2" y="3747.2" width="2703.6" height="652.5"/>
    </defs>
    <clipPath id="SVGID_20_">
      <use xlink:href="#SVGID_19_"  style="overflow:visible;"/>
    </clipPath>
    <g style="clip-path:url(#SVGID_20_);">
      
        <image style="overflow:visible;" width="2775" height="668" xlink:href="95644EC9ADB73B5B.jpg"  transform="matrix(0.9743 0 0 0.9768 -7177.2476 3747.1792)">
      </image>
    </g>
  </g>
</g>
<g id="oiNk2G.tif">
  
    <image style="overflow:visible;" width="2530" height="463" id="Layer_0_1_" xlink:href="95644EC9ADB73B65.png"  transform="matrix(1 0 0 1 -7090.3101 4404.1328)">
  </image>
</g>
<g>
  <defs>
    <rect id="SVGID_21_" x="-4438.3" y="3431" width="393.8" height="322"/>
  </defs>
  <clipPath id="SVGID_22_">
    <use xlink:href="#SVGID_21_"  style="overflow:visible;"/>
  </clipPath>
  <rect x="-4438.3" y="3431" class="st10" width="393.8" height="322"/>
</g>
<g>
  <defs>
    <rect id="SVGID_23_" x="-3996.3" y="3435" width="393.8" height="322"/>
  </defs>
  <clipPath id="SVGID_24_">
    <use xlink:href="#SVGID_23_"  style="overflow:visible;"/>
  </clipPath>
  <g class="st11">
    <defs>
      <rect id="SVGID_25_" x="-3996.3" y="3435" width="393.8" height="322"/>
    </defs>
    <clipPath id="SVGID_26_">
      <use xlink:href="#SVGID_25_"  style="overflow:visible;"/>
    </clipPath>
    <g style="clip-path:url(#SVGID_26_);">
      
        <image style="overflow:visible;" width="1619" height="1215" xlink:href="95644EC9ADB73B67.jpg"  transform="matrix(-0.2432 0 0 0.265 -3602.5549 3435)">
      </image>
    </g>
  </g>
</g>
<g>
  <defs>
    <rect id="SVGID_27_" x="-6614.7" y="2735.1" width="1472.4" height="419.8"/>
  </defs>
  <clipPath id="SVGID_28_">
    <use xlink:href="#SVGID_27_"  style="overflow:visible;"/>
  </clipPath>
  <rect x="-6614.7" y="2735.1" class="st12" width="1472.4" height="419.8"/>
</g>
<g>
  <defs>
    <rect id="SVGID_29_" x="-6614.7" y="2735.1" width="1472.4" height="419.8"/>
  </defs>
  <clipPath id="SVGID_30_">
    <use xlink:href="#SVGID_29_"  style="overflow:visible;"/>
  </clipPath>
  <g class="st13">
    <defs>
      <rect id="SVGID_31_" x="-8013.7" y="2682.8" width="2871.4" height="701.9"/>
    </defs>
    <clipPath id="SVGID_32_">
      <use xlink:href="#SVGID_31_"  style="overflow:visible;"/>
    </clipPath>
    <g style="clip-path:url(#SVGID_32_);">
      
        <image style="overflow:visible;" width="2775" height="668" xlink:href="95644EC9ADB73B65.jpg"  transform="matrix(1.0347 0 0 1.0508 -8013.6592 2682.7717)">
      </image>
    </g>
  </g>
</g>
<path class="st14" d="M-875.2,1475.8c-2.9,0.3-5.7,0.1-8.1-1.8c2.7,0,5.3,0,8,0C-873.9,1474.5-873.8,1475.1-875.2,1475.8z"/>
<path class="st15" d="M-1321.2,1475.8c-2.9,0.3-5.7,0.1-8.1-1.8c2.7,0,5.3,0,8,0C-1319.9,1474.5-1319.8,1475.1-1321.2,1475.8z"/>
<path class="st16" d="M-1763.3,1474c0,0.6,0.1,1.2,0.1,1.8c-3,0.5-5.7,0.1-8.1-1.8C-1768.6,1474-1766,1474-1763.3,1474z"/>
<path class="st17" d="M-1787.3,1474c-2.4,2-5.3,2.1-8.2,1.8c-1.3-0.7-1.2-1.3,0.2-1.8C-1792.6,1474-1790,1474-1787.3,1474z"/>
<path class="st18" d="M-2209.3,1474c0,0.6,0.1,1.2,0.1,1.8c-3,0.5-5.7,0.1-8.1-1.8C-2214.6,1474-2212,1474-2209.3,1474z"/>
<path class="st19" d="M-907.5,1475.7c0-0.6,0.1-1.1,0.1-1.7c2,0,4,0,6,0C-903,1476-905.1,1476.1-907.5,1475.7z"/>
<path class="st19" d="M-1353.5,1475.7c0-0.6,0.1-1.1,0.1-1.7c2,0,4,0,6,0C-1349,1476-1351.1,1476.1-1353.5,1475.7z"/>
<path class="st20" d="M-1795.3,1474c0,0.6-0.1,1.2-0.2,1.8c-1.9,0.1-3.9,0.1-5.8,0.2c0.1-0.6,0.1-1.3,0-1.9
  C-1799.3,1474-1797.3,1474-1795.3,1474z"/>
<path class="st21" d="M-2245.4,1475.7c0-0.6,0.1-1.2,0.1-1.7c2,0,4,0,6,0C-2240.9,1476.1-2243.1,1476.1-2245.4,1475.7z"/>
<path class="st22" d="M-875.2,1475.8c-0.1-0.6-0.2-1.2-0.1-1.8c1.3,0,2.7,0,4,0c0,0.6,0.1,1.2,0.1,1.7
  C-872.5,1475.8-873.9,1475.8-875.2,1475.8z"/>
<path class="st23" d="M-1321.2,1475.8c-0.1-0.6-0.2-1.2-0.1-1.8c1.3,0,2.7,0,4,0c0,0.6,0.1,1.2,0.1,1.7
  C-1318.5,1475.8-1319.8,1475.8-1321.2,1475.8z"/>
<path class="st24" d="M-333.3,1956c-1.9-2.8-0.6-5.9-1-8.9c0-2.1,0-4.2,0-6.3c-1.1-16.5-1.4-33.1-6.3-49.2
  c-14.9-48.2-41.3-89-78.4-123c-53-48.7-115.1-74.5-187.2-75.1c-49.9-0.4-99.9,0-149.9-0.1c-15.5,0-16.2-1-16.5-16.4
  c-0.8-34.9,1.3-69.8-1.8-104.8c-3.8-42.8-44-96.8-95.4-97.1c-1.6,0-3.2,0-4.7,0c-2.9-0.4-6,0.9-8.7-1c-6,0-12,0-18,0
  c-2.5,1.8-5.4,0.7-8.1,1c-12.1,1.7-24.6,1.6-35.5,8.5c-38.4,24.2-61.2,57.5-61.1,104.3c0,29.6,0.1,59.3,0,88.9
  c0,15.2-1.4,16.6-16.6,16.6c-59.6,0.1-119.2,0.1-178.8,0c-15.8,0-16.8-1.3-17.2-17c-0.8-34.3,0.8-68.5-1.6-102.8
  c-3-41.9-43.2-98.1-95.2-98.5c-1.6,0-3.3,0-4.9,0c-3-0.4-6.2,0.9-9-1c-6,0-12,0-18,0c-2.5,1.8-5.4,0.7-8.1,1
  c-12.1,1.7-24.6,1.7-35.5,8.5c-38.2,23.9-60.7,57.1-61,103.4c-0.2,30,0,60-0.1,89.9c-0.1,15.1-1.5,16.5-16.7,16.5
  c-59.6,0.1-119.3,0.1-178.9,0c-15.7,0-16.6-1.3-17-17.2c-0.8-34.3,0.8-68.5-1.6-102.8c-2.6-39.2-42.3-98.7-95.4-98.2
  c-3.2-0.4-6.6,1-9.7-1c-5.3,0-10.7,0-16,0c-2.8,2-6,0.6-9.1,1c-2.2,0-4.4,0-6.5,0c-10.7,2-22,1.5-31.8,7.3
  c-39.4,23.5-62.7,56.9-63.2,103.9c-0.3,30,0,59.9-0.1,89.9c0,15.8-1.3,17.1-17.1,17.1c-59.6,0.1-119.2,0-178.8,0
  c-2.3,0-4.7-0.1-7-0.2c-6-0.3-9.2-3.3-9.6-9.3c-0.3-4.3-0.1-8.7-0.2-13c-0.9-32.9,1.1-65.8-1.7-98.8c-3.7-42.6-44.8-97.7-95.3-97.1
  c-3.2-0.4-6.6,1-9.7-1c-7.3,0-14.7,0-22,0c-2.4,1.8-5.2,0.7-7.8,1c-12.2,1.4-24.7,1.8-35.6,8.5c-38.2,23.4-60.4,56.5-61.2,102.2
  c-0.5,27.3-0.1,54.6-0.1,81.9c0,27.1,2,25.7-25.2,25.7c-49.3,0-98.6-0.4-147.9,0.1c-43.4,0.5-84.3,12.2-122.4,32.6
  c-45.9,24.6-82.9,59.1-109.4,104c-21.6,36.5-37.3,75.1-36.4,118.7c-2.3,566.4-0.4,1132.9-1,1699.4c0.3,8.8,1.5,17.5,1,26.3
  c-0.5,45.9,15.9,86.6,39.4,124.8c20.3,32.9,46.8,60.4,78.8,82.2c40.7,27.7,84.6,45.8,134.8,45.5c3.4,0,6.7,0,10.1,0
  c4.3,0,8.5,0,12.8,0c634.8,0,1269.5,0,1904.3,0c3.7,0,7.3,0,10.9,0c3.4,0,6.7,0,10.1,0c16.2-1.4,32.6-1.1,48.4-5.5
  c72.5-20.4,128-63.3,167.5-127.1c20.8-33.7,34.6-69.6,33.9-109.9c0-2,0-4,0-6c0.4-2.8-0.9-5.8,1-8.4
  C-333.3,3098.7-333.3,2527.3-333.3,1956z M-555.8,3655.9c-3.6,26-25.1,46-51.3,47.9c-5,0.4-10,0.3-15,0.3c-312.3,0-624.7,0-937,0
  c-312,0-624,0-936,0c-5.3,0-10.7,0.1-16-0.4c-27.8-2.4-49.3-25.1-50.5-53c-0.2-4.3-0.1-8.7-0.1-13c0-550.7,0-1101.3,0-1652
  c0-7.3-0.6-14.7,1.1-21.9c6-25.3,27.4-43.2,54.3-43.4c53.3-0.5,106.7-0.2,160-0.1c7,0,7.1,0.3,7.1,8.5c0.1,34.7-0.7,69.4,0.2,104
  c1.1,43.9,21.3,77.3,60.2,98c67.6,36.1,152.6-8.5,161.7-84.5c0.8-7,1.3-13.9,1.3-20.9c-0.1-31,0-62,0-93c0-2.3,0.1-4.7,0-7
  c-0.1-3.9,2-5.3,5.6-5.1c2,0.1,4,0,6,0c66.7,0,133.3,0,200,0c11.2,0,11.1-1,11.1,10.7c0,33.7-0.6,67.3,0.2,101
  c0.9,43.9,20.7,77.4,59.4,98.5c68.1,37.1,153.8-8.1,162.6-85.2c0.9-8,1.1-15.9,1.1-23.9c0-29.7,0-59.3,0-89c0-2.3,0.1-4.7,0.1-7
  c0-3.2,1.3-5,4.7-5c2,0,4-0.1,6-0.1c67,0,134,0,201,0c0.3,0,0.7,0,1,0c9.8,0.1,9.9,0.1,9.9,9.9c0,34.3-0.8,68.7,0.2,103
  c1.5,47.3,24.2,82,67.6,101.2c68.1,30.1,146.5-16.2,154.5-90.2c1-9.7,0.9-19.3,0.9-29c0-27.7,0-55.3,0-83c0-2.7,0-5.3,0.2-8
  c0.1-2.3,1.4-3.7,3.8-3.7c2.7-0.1,5.3-0.1,8-0.1c66.3,0,132.7,0,199,0c1,0,2,0,3,0c8.6,0.2,8.7,0.2,8.7,9c0.1,35-0.3,70,0.1,105
  c0.6,48.4,33.5,91.1,79.9,104.7c66.9,19.6,135.3-26.6,142.3-96c1.2-12,0.8-24,0.8-36c0.1-25.3,0-50.7,0-76
  c0-10.6,0.1-10.7,10.1-10.7c51,0,102-0.1,153,0c35.9,0.1,59.5,23.6,59.6,59.6c0.2,66.7,0,133.3,0,200c0,486,0,972,0,1458
  C-555.2,3644-555,3650-555.8,3655.9z"/>
<path class="st25" d="M-1558.3,3035.4c-220.6,0-441.3,0-661.9,0.1c-23.8,0-46.2-4.5-66.7-17.3c-38.8-24.3-59-71.1-50.1-116.7
  c8.8-44.8,46.3-80.6,91.7-87.8c7.3-1.1,14.6-1.5,21.9-1.5c443.3,0,886.5,0.1,1329.8-0.2c54,0,97.2,34.4,110.7,80.1
  c19.9,67.3-26.6,136.3-96.5,142.4c-7,0.6-14,0.8-21,0.8C-1119.7,3035.4-1339,3035.4-1558.3,3035.4z"/>
<path class="st25" d="M-1641.9,2645c-191.3,0-382.7,0-574,0c-12,0-24,0-35.8-2.7c-52.8-11.8-88.8-58.8-87.3-114.1
  c1.4-50.9,41.1-95.7,92.6-104.6c9.3-1.6,18.6-1.6,27.9-1.6c384.3,0,768.7,0,1153,0c3.7,0,7.3-0.1,11,0.1
  c45.7,2.3,79.4,23.9,98.8,65.2c31.3,66.5-10.8,144.7-83.2,156.3c-11.2,1.8-22.6,1.5-33.9,1.5c-107,0-214,0-321,0
  C-1476.6,2645-1559.3,2645-1641.9,2645z"/>
<path class="st25" d="M-1837.3,3425.7c-128.3,0-256.6-0.1-384.9,0.1c-25.4,0-48.8-5.8-69.7-20.7c-38.8-27.7-56.1-76.9-42.9-122.1
  c13.2-45.4,53.6-77.3,101.4-80.3c4.3-0.3,8.7-0.3,13-0.3c255.6,0,511.2,0.1,766.9-0.1c34.5,0,64.6,10.2,87.8,36
  c29.4,32.6,38.2,70.9,23.6,112.4c-14.7,41.8-45.5,66.2-89.3,73.7c-7.9,1.3-15.9,1.4-23.9,1.4
  C-1582.6,3425.7-1709.9,3425.7-1837.3,3425.7z"/>
<path class="st20" d="M2250.7,3439.2c0,0.3-0.1,0.6-0.1,0.8c-554,0-1108,0-1662,0c0-0.3,0-0.6-0.1-0.8c3.2-0.1,6.3-0.2,9.5-0.2
  c547.7,0,1095.4,0,1643.1,0C2244.4,3439,2247.6,3439.1,2250.7,3439.2z"/>
<path class="st26" d="M2486.8,3200c-0.1-2.3-0.1-4.7-0.1-7c0-321.2,0-642.3,0-963.5c0-1.8-1-4,1-5.6c0,325.3,0,650.7,0,976
  C2487.4,3200.5,2487.1,3200.5,2486.8,3200z"/>
<path class="st27" d="M591.7,1984c-3.3,1.8-6.8,0.9-10.2,0.8c-0.3-0.3-0.3-0.5-0.2-0.6c0.1-0.1,0.2-0.2,0.4-0.2
  C585,1984,588.4,1984,591.7,1984z"/>
<path class="st28" d="M2258.8,1984.9c-3.4-0.1-6.9,0.8-10.1-0.9c3.3,0,6.7,0,10,0C2259.4,1984.2,2259.4,1984.5,2258.8,1984.9z"/>
<path class="st29" d="M581.7,1984c-0.1,0.3-0.1,0.6-0.2,0.8c-2,0-3.9,0-5.9,0c0.1-0.3,0.1-0.6,0.1-0.9
  C577.7,1984,579.7,1984,581.7,1984z"/>
<path class="st30" d="M2486.8,3200c0.3,0,0.6,0,0.8,0c0,2,0,4,0,6l-0.4,0l-0.4,0C2486.8,3204,2486.8,3202,2486.8,3200z"/>
<path class="st31" d="M2258.8,1984.9c-0.1-0.3-0.1-0.6-0.1-0.9c1.7,0,3.3,0,5,0c0,0.3,0,0.6,0.1,0.9
  C2262.1,1984.9,2260.4,1984.9,2258.8,1984.9z"/>
<path class="st32" d="M2487.7,2222c-0.8-6.1-0.6-12.2-1-18.3c-0.5-8.8-0.7-17.6-2.4-26.3c-5.2-25.5-14.3-49.5-27.2-72.1
  c-13.7-24.1-31.1-45.2-52-63.4c-18.8-16.4-39.6-29.8-62.5-39.7c-25.3-10.9-51.4-18.2-79.2-17.7c-1.6,0-3.2,0-4.8,0
  c-3.3-0.3-6.6,0.6-9.8-0.5c-552.3,0-1104.7,0-1657,0c-3.3,1.1-6.8,0.2-10.2,0.5c-2,0-4.1,0-6.1,0c-10.1,0.4-20.3,0.4-30.3,2.4
  c-24.5,4.9-47.7,13.6-69.5,25.9c-19.7,11.1-37.7,24.6-53.6,40.6c-14.3,14.3-26.8,30-37.1,47.5c-20.4,34.6-32.7,71.5-32.7,112.2
  c0.1,330.9,0,661.9,0.1,992.8c0,11.9,0.2,24,2.2,35.8c3.7,21.5,10.5,42,20.1,61.5c17.7,36.1,42.6,66.2,74.9,90.2
  c28,20.8,58.9,34.9,92.9,42.5c15.5,3.4,31.4,3.3,47.2,3.6c553.1,0,1106.2,0,1659.4,0c21.8-0.1,43.4-1.4,64.6-7.8
  c38.9-11.7,72.7-31.8,101.9-59.8c13.9-13.4,26-28.4,36.2-44.9c23.1-37.3,36.8-77.3,35.5-121.7c0-2.1,0-4.2,0-6.2
  c0-322.8,0-645.7,0-968.6c0-2.1-0.5-4.3,0.5-6.4C2487.7,2223.3,2487.7,2222.7,2487.7,2222z M2116.2,2178c1.8,0,3.6,0,5.4,0
  c39.8,0,79.6,0,119.5,0c31.1,0,51.8,20.5,51.8,51.5c0.1,40.2,0,80.3,0,120.5c0,5.5-0.1,5.7-5.5,3.6c-31.4-12-60.1-28.6-85.6-50.4
  c-38.3-32.8-66.6-72.8-84.4-120.1c-0.5-1.2-0.9-2.5-1.3-3.8C2116,2179,2116.1,2178.7,2116.2,2178z M546.8,2225.5
  c0.1-25,20.6-46.9,45.7-47.3c43.3-0.7,86.6-0.2,129.9-0.2c0.3,0,0.6,0.2,1.2,0.4c-0.9,4.7-3,9.1-4.9,13.5
  c-33.3,77.6-89.5,131.5-168.1,162.1c-3.8,1.5-4,0.2-4-3C546.7,2309.2,546.6,2267.4,546.8,2225.5z M717.8,3245.2
  c-39.8,0-79.6,0-119.4,0c-31.1,0-51.7-20.6-51.7-51.6c0-40.1,0-80.3,0-120.4c0-5.4,0-5.5,5.3-3.4c60.5,23.4,108.4,62.3,143.4,116.9
  c11.6,18.1,20.7,37.5,28.6,58.6C721.5,3245.2,719.7,3245.2,717.8,3245.2z M2292.8,3195.7c-0.1,25-16.7,44.5-40.9,48.8
  c-2.8,0.5-5.6,0.6-8.5,0.6c-41.1,0-82.3,0-123.4,0c-1.3,0-2.6-0.2-3.9-0.2c12.4-64.8,110.3-162.8,176.3-176.5
  c0.8,1.2,0.5,2.6,0.5,3.8C2292.9,3113.4,2293,3154.6,2292.8,3195.7z M2293,2860.8c0,4.9-1.5,6.4-6,7.4
  c-98.1,21.7-181.9,69.1-250.8,142.1c-58.5,62-97.5,134.8-117.9,217.6c-1,3.9-2.1,7.8-2.4,11.7c-0.4,4.8-2.6,5.7-7.1,5.7
  c-163-0.1-326-0.1-489-0.1c-162.7,0-325.3,0-488,0.1c-5.4,0-7.2-1.5-8.4-6.7c-20.6-91.8-63.7-171.6-129.9-238.4
  c-53.2-53.6-115.7-92.6-187.2-117.2c-17.8-6.1-35.9-11.1-54.3-15c-3.8-0.8-5.4-2-5.4-6.4c0.2-100,0.2-200,0-300
  c0-4.8,2.1-5.7,5.8-6.6c66.7-14.8,128-41.9,183.1-82.4c73-53.6,127.1-122.3,162.2-205.8c11.3-26.9,20.1-54.6,26-83.3
  c0.9-4.3,2.3-5.8,7-5.8c326.2,0.1,652.3,0.1,978.5,0c4.3,0,5.8,1.2,6.7,5.5c21.8,98.4,69,182.6,142.5,251.6
  c64.9,60.9,141.1,100.5,227.9,119.9c4.9,1.1,6.7,2.5,6.7,7.9C2292.8,2662.2,2292.9,2761.5,2293,2860.8z"/>
<path class="st24" d="M1420,2323.6c-213.6,0-384,170.8-388.3,377.2c-4.7,223.3,171.3,397.6,387.5,399
  c219.1-1.4,387.9-177,388.5-385.6C1808.2,2493.9,1631.4,2323.5,1420,2323.6z M1419.5,2905.8c-112-1.6-197.5-91.8-193.6-202.4
  c3.6-102.5,88.8-186.1,194.3-185.8c108,0.4,194.5,88.2,193.6,195.8C1612.9,2815,1531.9,2904.3,1419.5,2905.8z"/>
<path class="st33" d="M152.6,1367.1c1.5,0,3-0.1,4.5-0.1c351.7,0,703.4,0,1055.1,0c1.2,0,2.3,0,3.5,0.1c0.2,0.3,0.2,0.6-0.1,0.9
  c-354.3,0-708.7,0-1063,0C152.5,1367.7,152.4,1367.4,152.6,1367.1z"/>
<path class="st34" d="M1367.7,1223c-1.7-6-1.6-12,0-18C1367.7,1211,1367.7,1217,1367.7,1223z"/>
<path class="st35" d="M704.7,0c-2.3,1.8-4.7,1.4-7,0C700,0,702.4,0,704.7,0z"/>
<path class="st36" d="M152.6,1367.1c0,0.3,0,0.6,0,0.9c-2.3,0-4.7,0-7,0C147.8,1366,150.3,1367.4,152.6,1367.1z"/>
<path class="st37" d="M666.6,0.9c-2,0-4,0-6,0c0-0.3,0.1-0.6,0.1-0.8c2,0,4,0,6,0c0.3,0.2,0.4,0.4,0.3,0.6
  C666.9,0.8,666.7,0.9,666.6,0.9z"/>
<path class="st38" d="M666.6,0.9c0.1-0.3,0.1-0.6,0.1-0.9c1.7,0,3.3,0,5,0C670.2,1.6,668.3,0.9,666.6,0.9z"/>
<path class="st39" d="M1215.7,1368c0-0.3,0-0.6,0.1-0.9c1.7,0.2,3.6-0.9,4.9,0.9C1219,1368,1217.4,1368,1215.7,1368z"/>
<g>
  <path class="st24" d="M1367.7,1204c-0.9-0.4-0.9-1.3-1-2.1c-1.3-13.9-2.5-27.8-3.9-41.8c-3.8-38.1-8.9-76-17.3-113.4
    c-3.9-17.4-8.2-34.7-16.9-50.5c-10.4-18.8-25.1-33.9-41.3-47.7c-30.6-26.1-64.8-46.7-100-65.7c-53.3-28.7-109-52-166.2-71.8
    C942.6,784,862.5,763.2,780,752.7c-29.3-3.7-58.6-6.3-88.1-6.7c-55-0.6-109.3,5.7-163.3,15.9c-66.2,12.5-130.9,30.5-194.2,53.2
    c-70.5,25.3-138.8,55.4-202.5,95.2c-26.3,16.5-51.4,34.6-73,57.2c-8.2,8.6-16.1,17.6-21,28.5c-14.9,32.9-21,68.2-26.2,103.7
    c-3.9,26.8-7.1,53.8-9.6,80.8c-1.7,18.6-3.5,37-0.7,55.8c9.7,64.9,61.6,118.1,126.8,129.1c4.8,0.8,9.9,0.3,14.4,2.7c1,0,2,0,3,0
    c2.7-1.1,5.4-0.3,8.1-0.5c353.5,0,707.1,0,1060.6,0c2.1,0.2,4.3-0.5,6.3,0.5c0.7,0,1.3,0,2,0c6.8-1.2,13.9-0.8,20.7-2.3
    c34.2-7.2,62.9-23.9,86.1-50.1c13.8-15.5,23.9-33.2,30.8-52.7c4.4-12.3,6.3-25.1,7.4-38c0-0.7,0-1.3,0-2c-0.8-6-0.8-12,0-18
    C1367.7,1204.7,1367.7,1204.3,1367.7,1204z M1218.8,1242.6c-2.8,0.6-5.6,0.6-8.4,0.6c-175.8,0-351.6,0-527.4,0
    c-175.8,0-351.6,0-527.4,0c-17.1,0-30.7-12.2-31.4-29c-0.3-7.6,1-15.3,1.7-22.9c2.6-26.8,5.7-53.6,9.8-80.3
    c2.6-17.1,5.8-34.1,10.5-50.8c1.4-5,4.3-8.5,8-11.7c21.9-19.3,46.7-34.3,72.1-48.3C319.5,949,418,911.8,521.9,889
    c39.9-8.7,80.2-14.4,120.9-17.3c46.6-3.3,92.9-0.5,139,6c100.7,14.4,196.5,45.2,289,87.2c39,17.7,76.8,37.7,112.6,61.2
    c11.3,7.4,22.1,15.5,32,24.7c2.7,2.5,4.3,5.4,5.3,8.8c5.1,18,8.2,36.3,11.1,54.7c4.8,30.3,7.4,60.8,10.9,91.2
    C1245.1,1227.6,1231.8,1239.6,1218.8,1242.6z"/>
  <path class="st24" d="M1024.8,332.1c-0.8-23-3.5-45.8-8.8-68.2c-17.2-72.2-53.8-132.8-110.1-181.3C854.4,38.2,794.7,11.7,727.2,2.8
    c-6.8-0.9-13.8-0.5-20.5-2.8c-0.7,0-1.3,0-2,0c-2.3,0.8-4.7,0.8-7,0c-8.7,0-17.3,0-26,0c-1.7,1.1-3.6,0.3-5.4,0.5
    c-1.9,0.1-3.8-0.3-5.6,0.3c-29.9,1.9-59,7.6-87.3,17.3c-67.8,23.4-123.1,64-165.7,121.6c-39.1,52.8-60.9,112.4-65.5,177.9
    c-2.1,29.5-0.3,59,5.6,88C369,511.5,427.1,591,521.3,643c71.1,39.3,147.7,50.2,227.3,34.5c90.2-17.7,162.2-65,215-140
    C1006.8,476.1,1027.5,407.5,1024.8,332.1z M683.1,559.4c-116.4,1-221-95.4-217.1-225.5c3.5-114.6,98-209.7,218-209.7
    c120.4,0.1,217.6,98.6,216.9,218.9C900.3,463.2,802.7,559.9,683.1,559.4z"/>
</g>
<g>
  <path class="st40" d="M-1524.2-460.1c0.3,0,0.6,0,0.9,0.1c0,229.3,0,458.7,0,688c-0.2,0.7-0.5,0.7-0.8,0c-0.1-2.2-0.2-4.3-0.2-6.5
    c0-226,0-452.1,0-678.1C-1524.3-457.7-1524.2-458.9-1524.2-460.1z"/>
  <path class="st41" d="M-2199.3-742c-6.3,1.8-12.7,0.8-19.1,0.8c-0.7-0.4-0.6-0.7,0.1-0.8C-2212-742-2205.6-742-2199.3-742z"/>
  <path class="st42" d="M-2164.2-741.1c-5.4-0.1-10.8,1-16.1-0.9c5.3,0,10.7,0,16,0C-2163.6-741.8-2163.5-741.5-2164.2-741.1z"/>
  <path class="st43" d="M-2140.2-741.2c-4.3,0-8.6,0-13,0c-0.8-0.2-0.8-0.5-0.1-0.8c4.3,0,8.7,0,13,0c0.3,0.1,0.5,0.2,0.8,0.4
    C-2139.8-741.5-2140-741.3-2140.2-741.2z"/>
  <path class="st44" d="M-2153.3-742c0,0.3,0.1,0.6,0.1,0.8c-3.7,0-7.3,0-11,0.1c0-0.3-0.1-0.6-0.1-0.9
    C-2160.6-742-2157-742-2153.3-742z"/>
  <path class="st45" d="M-2218.3-742c0,0.3-0.1,0.6-0.1,0.8c-3.6,0-7.3,0-10.9,0c-0.2-0.2-0.5-0.3-0.7-0.5c0.3-0.1,0.5-0.2,0.8-0.4
    C-2225.6-742-2222-742-2218.3-742z"/>
  <path class="st46" d="M-2183.3,797.2c0,0.3,0,0.6,0,0.8c-3.7,0-7.3,0-11,0c0-0.3,0-0.6,0-0.8
    C-2190.7,797.2-2187,797.2-2183.3,797.2z"/>
  <path class="st47" d="M-2229.3-742c0,0.3,0,0.5-0.1,0.8c-3.3,0-6.7,0-10,0c-0.7-0.3-0.7-0.6,0-0.8C-2236-742-2232.6-742-2229.3-742
    z"/>
  <path class="st48" d="M-2140.2-741.2c0-0.3,0-0.6-0.1-0.8c2.7,0,5.3,0,8,0c0,0.3,0,0.6,0,0.8
    C-2134.9-741.2-2137.6-741.2-2140.2-741.2z"/>
  <path class="st49" d="M-1524.1,228c0.3,0,0.6,0,0.8,0c0,2,0,4,0,6l-0.4,0.1l-0.4,0C-1524.1,232-1524.1,230-1524.1,228z"/>
  <path class="st50" d="M-2239.3-742c0,0.3,0,0.6,0,0.8c-1.7,0-3.3,0-5,0c0-0.3,0-0.6,0-0.8C-2242.6-742-2241-742-2239.3-742z"/>
  <path class="st51" d="M-1523.8,226.8c0-228.5,0-457,0-685.6c0.3-6.7-0.2-13.3-0.6-19.9c-0.5-8.5-0.9-17-3-25.4
    c-5.3-21.2-13.3-41.2-24.2-60c-13.2-23-30.1-43.1-50.1-60.6c-22.6-19.8-48.9-33.1-77.2-42.8c-48.8-16.7-98.6-29.5-149-40.1
    c-41.9-8.8-84.1-16.1-126.5-21.7c-31.7-4.2-63.5-7.7-95.3-9.8c-27.6-1.8-55.4-2.2-83.1-2.3c-2.6,0-5.3,0-7.9,0c-4.2,0-8.5,0-12.7,0
    c-3.6,0-7.3,0-10.9,0c-5.4-0.3-10.7,0.6-16.1-0.5c-6.3,0-12.7,0-19,0c-6.3,1.1-12.7,0.2-19,0.5c-3.6,0-7.3,0-10.9,0
    c-3.3,0-6.5,0-9.8,0c-1.7,0-3.4,0-5.2,0c-19.9,0-39.8,1.1-59.7,1.3c-26.5,0.3-52.8,3.4-79.1,6c-27.7,2.7-55.3,6.4-82.7,11
    c-82.4,13.7-163.9,31.2-242.9,59.3c-38.2,13.6-69.4,36.4-95.2,67c-13.2,15.6-23.5,33.1-32.2,51.6c-11.4,24.1-17.9,49.3-17.9,76.2
    c0.1,234.8,0,469.6,0.2,704.4c0,12.1,0.3,24.3,2.6,36.2c7.2,37.2,21.5,71.7,41.1,104c18.3,30.2,40.8,56.9,69.5,77.8
    c53.4,39,107.1,77.6,160.7,116.4c83.9,60.8,167.9,121.5,251.8,182.4c15.4,11.2,31.2,21.6,48.7,29.4c27.2,12,55.8,16.7,85.3,15.9
    c3.3,0,6.6,0,9.8,0c5.3,0.1,10.6-0.5,15.9-0.4c26.8,0.2,51.7-7.4,75.8-18.2c20.2-9.1,37.6-22.7,55.4-35.6
    c48.4-35.1,96.9-70.1,145.3-105.2c43.3-31.4,86.6-62.6,129.9-94c39.5-28.6,79-57.3,118.6-85.8c19.3-13.9,36.5-30.1,51.5-48.4
    c19.6-23.8,35-50.3,47.1-78.6c13.5-31.4,21.9-63.9,20.9-98.3C-1523.8,230.9-1523.8,228.9-1523.8,226.8z M-1664.3,219.4
    c-0.4,51-21.9,93.4-63.1,123.5c-137.8,100.6-276.2,200.3-414.4,300.3c-26.2,19-67.7,18.8-94-0.2c-139.5-101-279.1-202-418.6-303.1
    c-19-13.8-31.6-32.7-41.9-53.3c-11.6-23.1-17.2-47.4-17.2-73.6c0.4-222,0.2-444,0.2-666c0-31,14.9-53.8,39.7-71
    c6.6-4.6,14.6-6.4,22.2-8.9c54.4-18.2,110-31.8,166.4-42.3c46.4-8.6,93-15.3,140-19.6c63.8-5.9,127.7-8.3,191.7-6.9
    c36.7,0.8,73.3,2.6,109.8,5.8c52.3,4.6,104.2,11.8,155.8,21.6c57.3,10.9,113.6,25.5,169.1,43.6c28.7,9.4,55,46.1,54.9,77
    c-0.5,113.2-0.2,226.3-0.2,339.5C-1664-2.9-1663.4,108.3-1664.3,219.4z"/>
  <path class="st51" d="M-2294.2,237.5c-17.4-0.4-33.7-5.9-46.6-18.6c-29.6-29.1-58.8-58.5-88.2-87.9c-29.5-29.4-59-58.8-88.3-88.4
    c-31.5-31.8-27.4-81.5,8.8-107.2c26-18.5,64.6-17.7,92,10.1c38.9,39.6,78.4,78.5,117.7,117.7c5.3,5.3,5.3,5.2,10.4,0.1
    c109.4-109.3,218.8-218.6,328-328.1c14.8-14.8,32.1-22.8,53.1-22.4c38.7,0.6,69.6,33.4,68.2,72c-0.7,19.9-9,36.1-22.9,50
    c-77.5,77.4-154.9,154.8-232.3,232.2c-49.3,49.3-98.5,98.5-147.7,147.8C-2256.3,229.2-2273.2,237.1-2294.2,237.5z"/>
</g>
</svg>
