<?xml version="1.0" encoding="utf-8"?>
<!-- Generator: Adobe Illustrator 21.0.2, SVG Export Plug-In . SVG Version: 6.00 Build 0)  -->
<svg version="1.1" id="Camada_1" xmlns="http://www.w3.org/2000/svg" xmlns:xlink="http://www.w3.org/1999/xlink" x="0px" y="0px"
	 viewBox="0 0 2135.5 1455.5" style="enable-background:new 0 0 2135.5 1455.5;" xml:space="preserve">
<style type="text/css">
	.st0{fill:#707070;}
	.st1{opacity:0;clip-path:url(#SVGID_2_);fill:#FFFFFF;}
	.st2{clip-path:url(#SVGID_4_);}
	.st3{opacity:0;clip-path:url(#SVGID_8_);fill:#FFFFFF;}
	.st4{clip-path:url(#SVGID_8_);fill:#20A0AC;}
	.st5{clip-path:url(#SVGID_8_);}
	.st6{opacity:0;clip-path:url(#SVGID_10_);fill:#FFFFFF;}
	.st7{clip-path:url(#SVGID_12_);}
	.st8{opacity:0;clip-path:url(#SVGID_16_);fill:#FFFFFF;}
	.st9{clip-path:url(#SVGID_18_);}
	.st10{opacity:0;clip-path:url(#SVGID_22_);fill:#FFFFFF;}
	.st11{clip-path:url(#SVGID_24_);}
	.st12{opacity:0;clip-path:url(#SVGID_28_);fill:#FFFFFF;}
	.st13{clip-path:url(#SVGID_30_);}
	.st14{fill:#7FBEFD;}
	.st15{fill:#7EBDFD;}
	.st16{fill:#B5D9FE;}
	.st17{fill:#79BBFD;}
	.st18{fill:#B4D8FE;}
	.st19{fill:#BBDCFE;}
	.st20{fill:#CBE4FE;}
	.st21{fill:#BEDEFE;}
	.st22{fill:#C5E1FE;}
	.st23{fill:#C4E1FE;}
	.st24{fill:#FFFFFF;}
	.st25{fill:#3497FD;}
	.st26{fill:#BCDCFE;}
	.st27{fill:#52A6FC;}
	.st28{fill:#59A9FC;}
	.st29{fill:#ABD4FD;}
	.st30{fill:#DDEDFE;}
	.st31{fill:#A6D1FD;}
	.st32{fill:#FFFFFF;}
	.st33{fill:#66AFFC;}
	.st34{fill:#8BC3FD;}
	.st35{fill:#99CAFD;}
	.st36{fill:#82BEFD;}
	.st37{fill:#ACD4FD;}
	.st38{fill:#72B6FC;}
	.st39{fill:#8FC5FD;}
	.st40{fill:#D6DAE1;}
	.st41{fill:#949DB2;}
	.st42{fill:#8C96AC;}
	.st43{fill:#C5CAD5;}
	.st44{fill:#A3ABBD;}
	.st45{fill:#B7BDCB;}
	.st46{fill:#E8EAEE;}
	.st47{fill:#CFD3DC;}
	.st48{fill:#E9EBEF;}
	.st49{fill:#E7E9ED;}
	.st50{fill:#EAEBF0;}
	.st51{fill:#77839D;}
</style>
<path class="st0" d="M-5341.3,1851.7c-1.6-3.2-5.1-4.9-8.5-4.4l-43.6,6.7l6.7-43.6c0.5-3.5-1.2-6.9-4.4-8.5c-3.2-1.6-7-1-9.5,1.5
	l-50.6,50.6c-1.2,1.2-2,2.8-2.3,4.5l-8,52l-29,29c-39.9-37.1-91.6-57.4-146.5-57.4c-57.6,0-111.7,22.4-152.4,63.1
	c-40.7,40.7-63.1,94.8-63.1,152.4c0,57.6,22.4,111.7,63.1,152.4c40.7,40.7,94.8,63.1,152.4,63.1s111.7-22.4,152.4-63.1
	c40.7-40.7,63.1-94.8,63.1-152.4c0-45.8-14.2-89.5-40.9-126.4c-2.7-3.7-7.8-4.5-11.4-1.8c-3.7,2.7-4.5,7.8-1.8,11.4
	c24.7,34.1,37.8,74.5,37.8,116.9c0,109.8-89.3,199.1-199.1,199.1s-199.1-89.3-199.1-199.1c0-109.8,89.3-199.1,199.1-199.1
	c50.5,0,98.1,18.6,134.9,52.6l-37.3,37.3c-26.9-24-61.3-37.2-97.6-37.2c-80.7,0-146.3,65.6-146.3,146.3
	c0,80.7,65.6,146.3,146.3,146.3s146.3-65.6,146.3-146.3c0-26.9-7.4-53.3-21.3-76.1c-2.3-3.9-7.4-5.1-11.2-2.7
	c-3.9,2.3-5.1,7.4-2.7,11.2c12.4,20.3,18.9,43.7,18.9,67.6c0,71.7-58.3,130-130,130c-71.7,0-130-58.3-130-130
	c0-71.7,58.3-130,130-130c31.9,0,62.2,11.5,86,32.5l-37.4,37.4c-13.7-11.1-30.7-17.1-48.6-17.1c-42.6,0-77.3,34.7-77.3,77.3
	c0,42.6,34.7,77.3,77.3,77.3c42.6,0,77.3-34.7,77.3-77.3c0-7.6-1.1-15.1-3.3-22.3c-1.3-4.3-5.9-6.8-10.2-5.5
	c-4.3,1.3-6.8,5.9-5.5,10.2c1.7,5.7,2.6,11.6,2.6,17.6c0,33.6-27.3,60.9-60.9,60.9c-33.6,0-60.9-27.3-60.9-60.9
	c0-33.6,27.3-60.9,60.9-60.9c13.5,0,26.4,4.4,36.9,12.4l-42.7,42.7c-3.2,3.2-3.2,8.4,0,11.6c1.6,1.6,3.7,2.4,5.8,2.4
	s4.2-0.8,5.8-2.4l146.6-146.6c0.1-0.1,34.7-34.7,34.7-34.7l52-8c1.7-0.3,3.3-1.1,4.5-2.3l50.6-50.6
	C-5340.3,1858.7-5339.7,1854.8-5341.3,1851.7L-5341.3,1851.7z M-5437.8,1863.7l31.1-31.1l-4.2,27.3l-31.1,31.1L-5437.8,1863.7z
	 M-5403.2,1898.4l-27.3,4.2l31.1-31.1l27.3-4.2C-5372.1,1867.3-5403.2,1898.4-5403.2,1898.4z"/>
<g>
	<defs>
		<rect id="SVGID_1_" x="-5689.5" y="1994" width="186" height="124"/>
	</defs>
	<clipPath id="SVGID_2_">
		<use xlink:href="#SVGID_1_"  style="overflow:visible;"/>
	</clipPath>
	<rect x="-5689.5" y="1994" class="st1" width="186" height="124"/>
</g>
<g>
	<defs>
		<rect id="SVGID_3_" x="-6242.5" y="1867.7" width="317" height="211.3"/>
	</defs>
	<clipPath id="SVGID_4_">
		<use xlink:href="#SVGID_3_"  style="overflow:visible;"/>
	</clipPath>
	<g class="st2">
		<defs>
			<rect id="SVGID_5_" x="-6242.5" y="1867.7" width="317" height="211.3"/>
		</defs>
		<clipPath id="SVGID_6_">
			<use xlink:href="#SVGID_5_"  style="overflow:visible;"/>
		</clipPath>
		<g transform="matrix(1 0 0 1 4.882812e-04 0)" style="clip-path:url(#SVGID_6_);">
			
				<image style="overflow:visible;" width="3713" height="2474" xlink:href="85E76826028FB033.jpg"  transform="matrix(8.537570e-02 0 0 8.542172e-02 -6242.4551 1867.6666)">
			</image>
		</g>
	</g>
</g>
<g>
	<defs>
		<rect id="SVGID_7_" x="-6134.5" y="1960.7" width="100" height="26"/>
	</defs>
	<clipPath id="SVGID_8_">
		<use xlink:href="#SVGID_7_"  style="overflow:visible;"/>
	</clipPath>
	<rect x="-6134.5" y="1960.7" class="st3" width="100" height="26"/>
	<rect x="-6134.5" y="1960.7" class="st4" width="100" height="26"/>
	<g class="st5">
		<defs>
			<rect id="SVGID_9_" x="-6565.5" y="1849.7" width="961" height="248"/>
		</defs>
		<clipPath id="SVGID_10_">
			<use xlink:href="#SVGID_9_"  style="overflow:visible;"/>
		</clipPath>
		<rect x="-6565.5" y="1849.7" class="st6" width="961" height="248"/>
	</g>
	<g class="st5">
		<defs>
			<rect id="SVGID_11_" x="-6627" y="2001.2" width="961" height="248"/>
		</defs>
		<clipPath id="SVGID_12_">
			<use xlink:href="#SVGID_11_"  style="overflow:visible;"/>
		</clipPath>
		<g class="st7">
			<defs>
				<rect id="SVGID_13_" x="-6659.9" y="2001.2" width="1027.6" height="248"/>
			</defs>
			<clipPath id="SVGID_14_">
				<use xlink:href="#SVGID_13_"  style="overflow:visible;"/>
			</clipPath>
			<g style="clip-path:url(#SVGID_14_);">
				
					<image style="overflow:visible;" width="2775" height="668" xlink:href="85E76826028FB031.jpg"  transform="matrix(0.3703 0 0 0.3713 -6659.8564 2001.1591)">
				</image>
			</g>
		</g>
	</g>
</g>
<image style="overflow:visible;" width="2775" height="668" xlink:href="85E76826028FB037.jpg"  transform="matrix(0.3703 0 0 0.3713 -6972.8379 1461.6785)">
</image>
<g>
	<defs>
		<rect id="SVGID_15_" x="-6972.8" y="1712.1" width="1633.4" height="421.5"/>
	</defs>
	<clipPath id="SVGID_16_">
		<use xlink:href="#SVGID_15_"  style="overflow:visible;"/>
	</clipPath>
	<rect x="-6972.8" y="1712.1" class="st8" width="1633.4" height="421.5"/>
</g>
<g>
	<defs>
		<rect id="SVGID_17_" x="-7442.8" y="1763.2" width="2528.4" height="652.5"/>
	</defs>
	<clipPath id="SVGID_18_">
		<use xlink:href="#SVGID_17_"  style="overflow:visible;"/>
	</clipPath>
	<g class="st9">
		<defs>
			<rect id="SVGID_19_" x="-7529.4" y="1763.2" width="2703.6" height="652.5"/>
		</defs>
		<clipPath id="SVGID_20_">
			<use xlink:href="#SVGID_19_"  style="overflow:visible;"/>
		</clipPath>
		<g style="clip-path:url(#SVGID_20_);">
			
				<image style="overflow:visible;" width="2775" height="668" xlink:href="85E76826028FB030.jpg"  transform="matrix(0.9743 0 0 0.9768 -7529.3877 1763.1791)">
			</image>
		</g>
	</g>
</g>
<g id="oiNk2G.tif">
	
		<image style="overflow:visible;" width="2530" height="463" id="Layer_0_1_" xlink:href="85E76826028FB033.png"  transform="matrix(1 0 0 1 -7442.4502 2420.1328)">
	</image>
</g>
<g>
	<defs>
		<rect id="SVGID_21_" x="-4790.5" y="1447" width="393.8" height="322"/>
	</defs>
	<clipPath id="SVGID_22_">
		<use xlink:href="#SVGID_21_"  style="overflow:visible;"/>
	</clipPath>
	<rect x="-4790.5" y="1447" class="st10" width="393.8" height="322"/>
</g>
<g>
	<defs>
		<rect id="SVGID_23_" x="-4348.5" y="1451" width="393.8" height="322"/>
	</defs>
	<clipPath id="SVGID_24_">
		<use xlink:href="#SVGID_23_"  style="overflow:visible;"/>
	</clipPath>
	<g class="st11">
		<defs>
			<rect id="SVGID_25_" x="-4348.5" y="1451" width="393.8" height="322"/>
		</defs>
		<clipPath id="SVGID_26_">
			<use xlink:href="#SVGID_25_"  style="overflow:visible;"/>
		</clipPath>
		<g style="clip-path:url(#SVGID_26_);">
			
				<image style="overflow:visible;" width="1619" height="1215" xlink:href="85E76826028FB03F.jpg"  transform="matrix(-0.2432 0 0 0.265 -3954.6951 1451)">
			</image>
		</g>
	</g>
</g>
<g>
	<defs>
		<rect id="SVGID_27_" x="-6966.8" y="751.1" width="1472.4" height="419.8"/>
	</defs>
	<clipPath id="SVGID_28_">
		<use xlink:href="#SVGID_27_"  style="overflow:visible;"/>
	</clipPath>
	<rect x="-6966.8" y="751.1" class="st12" width="1472.4" height="419.8"/>
</g>
<g>
	<defs>
		<rect id="SVGID_29_" x="-6966.8" y="751.1" width="1472.4" height="419.8"/>
	</defs>
	<clipPath id="SVGID_30_">
		<use xlink:href="#SVGID_29_"  style="overflow:visible;"/>
	</clipPath>
	<g class="st13">
		<defs>
			<rect id="SVGID_31_" x="-8365.8" y="698.8" width="2871.4" height="701.9"/>
		</defs>
		<clipPath id="SVGID_32_">
			<use xlink:href="#SVGID_31_"  style="overflow:visible;"/>
		</clipPath>
		<g style="clip-path:url(#SVGID_32_);">
			
				<image style="overflow:visible;" width="2775" height="668" xlink:href="85E76826028FB032.jpg"  transform="matrix(1.0347 0 0 1.0508 -8365.7988 698.7717)">
			</image>
		</g>
	</g>
</g>
<path class="st14" d="M-1227.3-508.2c-2.9,0.3-5.7,0.1-8.1-1.8c2.7,0,5.3,0,8,0C-1226-509.5-1226-508.9-1227.3-508.2z"/>
<path class="st15" d="M-1673.3-508.2c-2.9,0.3-5.7,0.1-8.1-1.8c2.7,0,5.3,0,8,0C-1672-509.5-1672-508.9-1673.3-508.2z"/>
<path class="st16" d="M-2115.5-510c0,0.6,0.1,1.2,0.1,1.8c-3,0.5-5.7,0.1-8.1-1.8C-2120.8-510-2118.1-510-2115.5-510z"/>
<path class="st17" d="M-2139.5-510c-2.4,2-5.3,2.1-8.2,1.8c-1.3-0.7-1.2-1.3,0.2-1.8C-2144.8-510-2142.1-510-2139.5-510z"/>
<path class="st18" d="M-2561.5-510c0,0.6,0.1,1.2,0.1,1.8c-3,0.5-5.7,0.1-8.1-1.8C-2566.8-510-2564.1-510-2561.5-510z"/>
<path class="st19" d="M-1259.6-508.3c0-0.6,0.1-1.1,0.1-1.7c2,0,4,0,6,0C-1255.1-508-1257.3-507.9-1259.6-508.3z"/>
<path class="st19" d="M-1705.6-508.3c0-0.6,0.1-1.1,0.1-1.7c2,0,4,0,6,0C-1701.1-508-1703.3-507.9-1705.6-508.3z"/>
<path class="st20" d="M-2147.5-510c0,0.6-0.1,1.2-0.2,1.8c-1.9,0.1-3.9,0.1-5.8,0.2c0.1-0.6,0.1-1.3,0-1.9
	C-2151.5-510-2149.5-510-2147.5-510z"/>
<path class="st21" d="M-2597.6-508.3c0-0.6,0.1-1.2,0.1-1.7c2,0,4,0,6,0C-2593.1-507.9-2595.3-507.9-2597.6-508.3z"/>
<path class="st22" d="M-1227.3-508.2c-0.1-0.6-0.2-1.2-0.1-1.8c1.3,0,2.7,0,4,0c0,0.6,0.1,1.2,0.1,1.7
	C-1224.7-508.2-1226-508.2-1227.3-508.2z"/>
<path class="st23" d="M-1673.3-508.2c-0.1-0.6-0.2-1.2-0.1-1.8c1.3,0,2.7,0,4,0c0,0.6,0.1,1.2,0.1,1.7
	C-1670.7-508.2-1672-508.2-1673.3-508.2z"/>
<path class="st24" d="M-685.5-28c-1.9-2.8-0.6-5.9-1-8.9c0-2.1,0-4.2,0-6.3c-1.1-16.5-1.4-33.1-6.3-49.2
	c-14.9-48.2-41.3-89-78.4-123c-53-48.7-115.1-74.5-187.2-75.1c-49.9-0.4-99.9,0-149.9-0.1c-15.5,0-16.2-1-16.5-16.4
	c-0.8-34.9,1.3-69.8-1.8-104.8c-3.8-42.8-44-96.8-95.4-97.1c-1.6,0-3.2,0-4.7,0c-2.9-0.4-6,0.9-8.7-1c-6,0-12,0-18,0
	c-2.5,1.8-5.4,0.7-8.1,1c-12.1,1.7-24.6,1.6-35.5,8.5c-38.4,24.2-61.2,57.5-61.1,104.3c0,29.6,0.1,59.3,0,88.9
	c0,15.2-1.4,16.6-16.6,16.6c-59.6,0.1-119.2,0.1-178.8,0c-15.8,0-16.8-1.3-17.2-17c-0.8-34.3,0.8-68.5-1.6-102.8
	c-3-41.9-43.2-98.1-95.2-98.5c-1.6,0-3.3,0-4.9,0c-3-0.4-6.2,0.9-9-1c-6,0-12,0-18,0c-2.5,1.8-5.4,0.7-8.1,1
	c-12.1,1.7-24.6,1.7-35.5,8.5c-38.2,23.9-60.7,57.1-61,103.4c-0.2,30,0,60-0.1,89.9c-0.1,15.1-1.5,16.5-16.7,16.5
	c-59.6,0.1-119.3,0.1-178.9,0c-15.7,0-16.6-1.3-17-17.2c-0.8-34.3,0.8-68.5-1.6-102.8c-2.6-39.2-42.3-98.7-95.4-98.2
	c-3.2-0.4-6.6,1-9.7-1c-5.3,0-10.7,0-16,0c-2.8,2-6,0.6-9.1,1c-2.2,0-4.4,0-6.5,0c-10.7,2-22,1.5-31.8,7.3
	c-39.4,23.5-62.7,56.9-63.2,103.9c-0.3,30,0,59.9-0.1,89.9c0,15.8-1.3,17.1-17.1,17.1c-59.6,0.1-119.2,0-178.8,0
	c-2.3,0-4.7-0.1-7-0.2c-6-0.3-9.2-3.3-9.6-9.3c-0.3-4.3-0.1-8.7-0.2-13c-0.9-32.9,1.1-65.8-1.7-98.8c-3.7-42.6-44.8-97.7-95.3-97.1
	c-3.2-0.4-6.6,1-9.7-1c-7.3,0-14.7,0-22,0c-2.4,1.8-5.2,0.7-7.8,1c-12.2,1.4-24.7,1.8-35.6,8.5c-38.2,23.4-60.4,56.5-61.2,102.2
	c-0.5,27.3-0.1,54.6-0.1,81.9c0,27.1,2,25.7-25.2,25.7c-49.3,0-98.6-0.4-147.9,0.1c-43.4,0.5-84.3,12.2-122.4,32.6
	c-45.9,24.6-82.9,59.1-109.4,104c-21.6,36.5-37.3,75.1-36.4,118.7c-2.3,566.4-0.4,1132.9-1,1699.4c0.3,8.8,1.5,17.5,1,26.3
	c-0.5,45.9,15.9,86.6,39.4,124.8c20.3,32.9,46.8,60.4,78.8,82.2c40.7,27.7,84.6,45.8,134.8,45.5c3.4,0,6.7,0,10.1,0
	c4.3,0,8.5,0,12.8,0c634.8,0,1269.5,0,1904.3,0c3.7,0,7.3,0,10.9,0c3.4,0,6.7,0,10.1,0c16.2-1.4,32.6-1.1,48.4-5.5
	c72.5-20.4,128-63.3,167.5-127.1c20.8-33.7,34.6-69.6,33.9-109.9c0-2,0-4,0-6c0.4-2.8-0.9-5.8,1-8.4
	C-685.5,1114.7-685.5,543.3-685.5-28z M-907.9,1671.9c-3.6,26-25.1,46-51.3,47.9c-5,0.4-10,0.3-15,0.3c-312.3,0-624.7,0-937,0
	c-312,0-624,0-936,0c-5.3,0-10.7,0.1-16-0.4c-27.8-2.4-49.3-25.1-50.5-53c-0.2-4.3-0.1-8.7-0.1-13c0-550.7,0-1101.3,0-1652
	c0-7.3-0.6-14.7,1.1-21.9c6-25.3,27.4-43.2,54.3-43.4c53.3-0.5,106.7-0.2,160-0.1c7,0,7.1,0.3,7.1,8.5c0.1,34.7-0.7,69.4,0.2,104
	c1.1,43.9,21.3,77.3,60.2,98c67.6,36.1,152.6-8.5,161.7-84.5c0.8-7,1.3-13.9,1.3-20.9c-0.1-31,0-62,0-93c0-2.3,0.1-4.7,0-7
	c-0.1-3.9,2-5.3,5.6-5.1c2,0.1,4,0,6,0c66.7,0,133.3,0,200,0c11.2,0,11.1-1,11.1,10.7c0,33.7-0.6,67.3,0.2,101
	c0.9,43.9,20.7,77.4,59.4,98.5c68.1,37.1,153.8-8.1,162.6-85.2c0.9-8,1.1-15.9,1.1-23.9c0-29.7,0-59.3,0-89c0-2.3,0.1-4.7,0.1-7
	c0-3.2,1.3-5,4.7-5c2,0,4-0.1,6-0.1c67,0,134,0,201,0c0.3,0,0.7,0,1,0c9.8,0.1,9.9,0.1,9.9,9.9c0,34.3-0.8,68.7,0.2,103
	c1.5,47.3,24.2,82,67.6,101.2c68.1,30.1,146.5-16.2,154.5-90.2c1-9.7,0.9-19.3,0.9-29c0-27.7,0-55.3,0-83c0-2.7,0-5.3,0.2-8
	c0.1-2.3,1.4-3.7,3.8-3.7c2.7-0.1,5.3-0.1,8-0.1c66.3,0,132.7,0,199,0c1,0,2,0,3,0c8.6,0.2,8.7,0.2,8.7,9c0.1,35-0.3,70,0.1,105
	c0.6,48.4,33.5,91.1,79.9,104.7c66.9,19.6,135.3-26.6,142.3-96c1.2-12,0.8-24,0.8-36c0.1-25.3,0-50.7,0-76
	c0-10.6,0.1-10.7,10.1-10.7c51,0,102-0.1,153,0C-931-63.5-907.5-40-907.4-4c0.2,66.7,0,133.3,0,200c0,486,0,972,0,1458
	C-907.4,1660-907.1,1666-907.9,1671.9z"/>
<path class="st25" d="M-1910.4,1051.4c-220.6,0-441.3,0-661.9,0.1c-23.8,0-46.2-4.5-66.7-17.3c-38.8-24.3-59-71.1-50.1-116.7
	c8.8-44.8,46.3-80.6,91.7-87.8c7.3-1.1,14.6-1.5,21.9-1.5c443.3,0,886.5,0.1,1329.8-0.2c54,0,97.2,34.4,110.7,80.1
	c19.9,67.3-26.6,136.3-96.5,142.4c-7,0.6-14,0.8-21,0.8C-1471.8,1051.4-1691.1,1051.4-1910.4,1051.4z"/>
<path class="st25" d="M-1994.1,661c-191.3,0-382.7,0-574,0c-12,0-24,0-35.8-2.7c-52.8-11.8-88.8-58.8-87.3-114.1
	c1.4-50.9,41.1-95.7,92.6-104.6c9.3-1.6,18.6-1.6,27.9-1.6c384.3,0,768.7,0,1153,0c3.7,0,7.3-0.1,11,0.1
	c45.7,2.3,79.4,23.9,98.8,65.2c31.3,66.5-10.8,144.7-83.2,156.3c-11.2,1.8-22.6,1.5-33.9,1.5c-107,0-214,0-321,0
	C-1828.7,661-1911.4,661-1994.1,661z"/>
<path class="st25" d="M-2189.4,1441.7c-128.3,0-256.6-0.1-384.9,0.1c-25.4,0-48.8-5.8-69.7-20.7c-38.8-27.7-56.1-76.9-42.9-122.1
	c13.2-45.4,53.6-77.3,101.4-80.3c4.3-0.3,8.7-0.3,13-0.3c255.6,0,511.2,0.1,766.9-0.1c34.5,0,64.6,10.2,87.8,36
	c29.4,32.6,38.2,70.9,23.6,112.4c-14.7,41.8-45.5,66.2-89.3,73.7c-7.9,1.3-15.9,1.4-23.9,1.4
	C-1934.8,1441.7-2062.1,1441.7-2189.4,1441.7z"/>
<path class="st20" d="M1898.6,1455.2c0,0.3-0.1,0.6-0.1,0.8c-554,0-1108,0-1662,0c0-0.3,0-0.6-0.1-0.8c3.2-0.1,6.3-0.2,9.5-0.2
	c547.7,0,1095.4,0,1643.1,0C1892.3,1455,1895.4,1455.1,1898.6,1455.2z"/>
<path class="st26" d="M2134.7,1216c-0.1-2.3-0.1-4.7-0.1-7c0-321.2,0-642.3,0-963.5c0-1.8-1-4,1-5.6c0,325.3,0,650.7,0,976
	C2135.3,1216.5,2135,1216.5,2134.7,1216z"/>
<path class="st27" d="M239.5,0c-3.3,1.8-6.8,0.9-10.2,0.8c-0.3-0.3-0.3-0.5-0.2-0.6c0.1-0.1,0.2-0.2,0.4-0.2
	C232.9,0,236.2,0,239.5,0z"/>
<path class="st28" d="M1906.6,0.9c-3.4-0.1-6.9,0.8-10.1-0.9c3.3,0,6.7,0,10,0C1907.3,0.2,1907.3,0.5,1906.6,0.9z"/>
<path class="st29" d="M229.5,0c-0.1,0.3-0.1,0.6-0.2,0.8c-2,0-3.9,0-5.9,0c0.1-0.3,0.1-0.6,0.1-0.9C225.5,0,227.5,0,229.5,0z"/>
<path class="st30" d="M2134.7,1216c0.3,0,0.6,0,0.8,0c0,2,0,4,0,6l-0.4,0l-0.4,0C2134.7,1220,2134.7,1218,2134.7,1216z"/>
<path class="st31" d="M1906.6,0.9c-0.1-0.3-0.1-0.6-0.1-0.9c1.7,0,3.3,0,5,0c0,0.3,0,0.6,0.1,0.9C1910,0.9,1908.3,0.9,1906.6,0.9z"
	/>
<path class="st32" d="M2135.5,238c-0.8-6.1-0.6-12.2-1-18.3c-0.5-8.8-0.7-17.6-2.4-26.3c-5.2-25.5-14.3-49.5-27.2-72.1
	c-13.7-24.1-31.1-45.2-52-63.4c-18.8-16.4-39.6-29.8-62.5-39.7c-25.3-10.9-51.4-18.2-79.2-17.7c-1.6,0-3.2,0-4.8,0
	c-3.3-0.3-6.6,0.6-9.8-0.5c-552.3,0-1104.7,0-1657,0c-3.3,1.1-6.8,0.2-10.2,0.5c-2,0-4.1,0-6.1,0c-10.1,0.4-20.3,0.4-30.3,2.4
	c-24.5,4.9-47.7,13.6-69.5,25.9c-19.7,11.1-37.7,24.6-53.6,40.6c-14.3,14.3-26.8,30-37.1,47.5C12.3,151.5,0,188.4,0,229.1
	C0.1,560,0,891,0.1,1221.9c0,11.9,0.2,24,2.2,35.8c3.7,21.5,10.5,42,20.1,61.5c17.7,36.1,42.6,66.2,74.9,90.2
	c28,20.8,58.9,34.9,92.9,42.5c15.5,3.4,31.4,3.3,47.2,3.6c553.1,0,1106.2,0,1659.4,0c21.8-0.1,43.4-1.4,64.6-7.8
	c38.9-11.7,72.7-31.8,101.9-59.8c13.9-13.4,26-28.4,36.2-44.9c23.1-37.3,36.8-77.3,35.5-121.7c0-2.1,0-4.2,0-6.2
	c0-322.8,0-645.7,0-968.6c0-2.1-0.5-4.3,0.5-6.4C2135.5,239.3,2135.5,238.7,2135.5,238z M1764.1,194c1.8,0,3.6,0,5.4,0
	c39.8,0,79.6,0,119.5,0c31.1,0,51.8,20.5,51.8,51.5c0.1,40.2,0,80.3,0,120.5c0,5.5-0.1,5.7-5.5,3.6c-31.4-12-60.1-28.6-85.6-50.4
	c-38.3-32.8-66.6-72.8-84.4-120.1c-0.5-1.2-0.9-2.5-1.3-3.8C1763.8,195,1764,194.7,1764.1,194z M194.6,241.5
	c0.1-25,20.6-46.9,45.7-47.3c43.3-0.7,86.6-0.2,129.9-0.2c0.3,0,0.6,0.2,1.2,0.4c-0.9,4.7-3,9.1-4.9,13.5
	c-33.3,77.6-89.5,131.5-168.1,162.1c-3.8,1.5-4,0.2-4-3C194.6,325.2,194.4,283.4,194.6,241.5z M365.7,1261.2c-39.8,0-79.6,0-119.4,0
	c-31.1,0-51.7-20.6-51.7-51.6c0-40.1,0-80.3,0-120.4c0-5.4,0-5.5,5.3-3.4c60.5,23.4,108.4,62.3,143.4,116.9
	c11.6,18.1,20.7,37.5,28.6,58.6C369.3,1261.2,367.5,1261.2,365.7,1261.2z M1940.7,1211.7c-0.1,25-16.7,44.5-40.9,48.8
	c-2.8,0.5-5.6,0.6-8.5,0.6c-41.1,0-82.3,0-123.4,0c-1.3,0-2.6-0.2-3.9-0.2c12.4-64.8,110.3-162.8,176.3-176.5
	c0.8,1.2,0.5,2.6,0.5,3.8C1940.8,1129.4,1940.9,1170.6,1940.7,1211.7z M1940.9,876.8c0,4.9-1.5,6.4-6,7.4
	c-98.1,21.7-181.9,69.1-250.8,142.1c-58.5,62-97.5,134.8-117.9,217.6c-1,3.9-2.1,7.8-2.4,11.7c-0.4,4.8-2.6,5.7-7.1,5.7
	c-163-0.1-326-0.1-489-0.1c-162.7,0-325.3,0-488,0.1c-5.4,0-7.2-1.5-8.4-6.7c-20.6-91.8-63.7-171.6-129.9-238.4
	c-53.2-53.6-115.7-92.6-187.2-117.2c-17.8-6.1-35.9-11.1-54.3-15c-3.8-0.8-5.4-2-5.4-6.4c0.2-100,0.2-200,0-300
	c0-4.8,2.1-5.7,5.8-6.6c66.7-14.8,128-41.9,183.1-82.4c73-53.6,127.1-122.3,162.2-205.8c11.3-26.9,20.1-54.6,26-83.3
	c0.9-4.3,2.3-5.8,7-5.8c326.2,0.1,652.3,0.1,978.5,0c4.3,0,5.8,1.2,6.7,5.5c21.8,98.4,69,182.6,142.5,251.6
	c64.9,60.9,141.1,100.5,227.9,119.9c4.9,1.1,6.7,2.5,6.7,7.9C1940.7,678.2,1940.7,777.5,1940.9,876.8z"/>
<path class="st24" d="M1067.9,339.6c-213.6,0-384,170.8-388.3,377.2c-4.7,223.3,171.3,397.6,387.5,399
	c219.1-1.4,387.9-177,388.5-385.6C1456.1,509.9,1279.3,339.5,1067.9,339.6z M1067.3,921.8c-112-1.6-197.5-91.8-193.6-202.4
	c3.6-102.5,88.8-186.1,194.3-185.8c108,0.4,194.5,88.2,193.6,195.8C1260.8,831,1179.7,920.3,1067.3,921.8z"/>
<path class="st33" d="M-199.5-616.9c1.5,0,3-0.1,4.5-0.1c351.7,0,703.4,0,1055.1,0c1.2,0,2.3,0,3.5,0.1c0.2,0.3,0.2,0.6-0.1,0.9
	c-354.3,0-708.7,0-1063,0C-199.7-616.3-199.7-616.6-199.5-616.9z"/>
<path class="st34" d="M1015.5-761c-1.7-6-1.6-12,0-18C1015.5-773,1015.5-767,1015.5-761z"/>
<path class="st35" d="M352.5-1984c-2.3,1.8-4.7,1.4-7,0C347.9-1984,350.2-1984,352.5-1984z"/>
<path class="st36" d="M-199.5-616.9c0,0.3,0,0.6,0,0.9c-2.3,0-4.7,0-7,0C-204.4-618-201.8-616.6-199.5-616.9z"/>
<path class="st37" d="M314.5-1983.1c-2,0-4,0-6,0c0-0.3,0.1-0.6,0.1-0.8c2,0,4,0,6,0c0.3,0.2,0.4,0.4,0.3,0.6
	C314.7-1983.2,314.6-1983.1,314.5-1983.1z"/>
<path class="st38" d="M314.5-1983.1c0.1-0.3,0.1-0.6,0.1-0.9c1.7,0,3.3,0,5,0C318.1-1982.4,316.2-1983.1,314.5-1983.1z"/>
<path class="st39" d="M863.5-616c0-0.3,0-0.6,0.1-0.9c1.7,0.2,3.6-0.9,4.9,0.9C866.9-616,865.2-616,863.5-616z"/>
<path class="st24" d="M1015.5-780c-0.9-0.4-0.9-1.3-1-2.1c-1.3-13.9-2.5-27.8-3.9-41.8c-3.8-38.1-8.9-76-17.3-113.4
	c-3.9-17.4-8.2-34.7-16.9-50.5c-10.4-18.8-25.1-33.9-41.3-47.7c-30.6-26.1-64.8-46.7-100-65.7c-53.3-28.7-109-52-166.2-71.8
	c-78.5-27.1-158.5-47.9-241.1-58.4c-29.3-3.7-58.6-6.3-88.1-6.7c-55-0.6-109.3,5.7-163.3,15.9c-66.2,12.5-130.9,30.5-194.2,53.2
	c-70.5,25.3-138.8,55.4-202.5,95.2c-26.3,16.5-51.4,34.6-73,57.2c-8.2,8.6-16.1,17.6-21,28.5c-14.9,32.9-21,68.2-26.2,103.7
	c-3.9,26.8-7.1,53.8-9.6,80.8c-1.7,18.6-3.5,37-0.7,55.8c9.7,64.9,61.6,118.1,126.8,129.1c4.8,0.8,9.9,0.3,14.4,2.7c1,0,2,0,3,0
	c2.7-1.1,5.4-0.3,8.1-0.5c353.5,0,707.1,0,1060.6,0c2.1,0.2,4.3-0.5,6.3,0.5c0.7,0,1.3,0,2,0c6.8-1.2,13.9-0.8,20.7-2.3
	c34.2-7.2,62.9-23.9,86.1-50.1c13.8-15.5,23.9-33.2,30.8-52.7c4.4-12.3,6.3-25.1,7.4-38c0-0.7,0-1.3,0-2c-0.8-6-0.8-12,0-18
	C1015.5-779.3,1015.5-779.7,1015.5-780z M866.7-741.4c-2.8,0.6-5.6,0.6-8.4,0.6c-175.8,0-351.6,0-527.4,0c-175.8,0-351.6,0-527.4,0
	c-17.1,0-30.7-12.2-31.4-29c-0.3-7.6,1-15.3,1.7-22.9c2.6-26.8,5.7-53.6,9.8-80.3c2.6-17.1,5.8-34.1,10.5-50.8c1.4-5,4.3-8.5,8-11.7
	c21.9-19.3,46.7-34.3,72.1-48.3c93.1-51.3,191.6-88.5,295.5-111.3c39.9-8.7,80.2-14.4,120.9-17.3c46.6-3.3,92.9-0.5,139,6
	c100.7,14.4,196.5,45.2,289,87.2c39,17.7,76.8,37.7,112.6,61.2c11.3,7.4,22.1,15.5,32,24.7c2.7,2.5,4.3,5.4,5.3,8.8
	c5.1,18,8.2,36.3,11.1,54.7c4.8,30.3,7.4,60.8,10.9,91.2C892.9-756.4,879.6-744.4,866.7-741.4z"/>
<path class="st24" d="M672.7-1651.9c-0.8-23-3.5-45.8-8.8-68.2c-17.2-72.2-53.8-132.8-110.1-181.3c-51.6-44.5-111.3-70.9-178.8-79.9
	c-6.8-0.9-13.8-0.5-20.5-2.8c-0.7,0-1.3,0-2,0c-2.3,0.8-4.7,0.8-7,0c-8.7,0-17.3,0-26,0c-1.7,1.1-3.6,0.3-5.4,0.5
	c-1.9,0.1-3.8-0.3-5.6,0.3c-29.9,1.9-59,7.6-87.3,17.3c-67.8,23.4-123.1,64-165.7,121.6c-39.1,52.8-60.9,112.4-65.5,177.9
	c-2.1,29.5-0.3,59,5.6,88C16.9-1472.5,75-1393,169.2-1341c71.1,39.3,147.7,50.2,227.3,34.5c90.2-17.7,162.2-65,215-140
	C654.7-1507.9,675.4-1576.5,672.7-1651.9z M330.9-1424.6c-116.4,1-221-95.4-217.1-225.5c3.5-114.6,98-209.7,218-209.7
	c120.4,0.1,217.6,98.6,216.9,218.9C548.1-1520.8,450.6-1424.1,330.9-1424.6z"/>
<g>
	<path class="st40" d="M-1876.3-2444.1c0.3,0,0.6,0,0.9,0.1c0,229.3,0,458.7,0,688c-0.2,0.7-0.5,0.7-0.8,0c-0.1-2.2-0.2-4.3-0.2-6.5
		c0-226,0-452.1,0-678.1C-1876.5-2441.7-1876.4-2442.9-1876.3-2444.1z"/>
	<path class="st41" d="M-2551.5-2726c-6.3,1.8-12.7,0.8-19.1,0.8c-0.7-0.4-0.6-0.7,0.1-0.8C-2564.1-2726-2557.8-2726-2551.5-2726z"
		/>
	<path class="st42" d="M-2516.4-2725.1c-5.4-0.1-10.8,1-16.1-0.9c5.3,0,10.7,0,16,0C-2515.7-2725.8-2515.7-2725.5-2516.4-2725.1z"/>
	<path class="st43" d="M-2492.4-2725.2c-4.3,0-8.6,0-13,0c-0.8-0.2-0.8-0.5-0.1-0.8c4.3,0,8.7,0,13,0c0.3,0.1,0.5,0.2,0.8,0.4
		C-2491.9-2725.5-2492.2-2725.3-2492.4-2725.2z"/>
	<path class="st44" d="M-2505.5-2726c0,0.3,0.1,0.6,0.1,0.8c-3.7,0-7.3,0-11,0.1c0-0.3-0.1-0.6-0.1-0.9
		C-2512.8-2726-2509.1-2726-2505.5-2726z"/>
	<path class="st45" d="M-2570.5-2726c0,0.3-0.1,0.6-0.1,0.8c-3.6,0-7.3,0-10.9,0c-0.2-0.2-0.5-0.3-0.7-0.5c0.3-0.1,0.5-0.2,0.8-0.4
		C-2577.8-2726-2574.1-2726-2570.5-2726z"/>
	<path class="st46" d="M-2535.4-1186.8c0,0.3,0,0.6,0,0.8c-3.7,0-7.3,0-11,0c0-0.3,0-0.6,0-0.8
		C-2542.8-1186.8-2539.1-1186.8-2535.4-1186.8z"/>
	<path class="st47" d="M-2581.5-2726c0,0.3,0,0.6-0.1,0.8c-3.3,0-6.7,0-10,0c-0.7-0.3-0.7-0.6,0-0.8
		C-2588.1-2726-2584.8-2726-2581.5-2726z"/>
	<path class="st48" d="M-2492.4-2725.2c0-0.3,0-0.6-0.1-0.8c2.7,0,5.3,0,8,0c0,0.3,0,0.6,0,0.8
		C-2487.1-2725.2-2489.7-2725.2-2492.4-2725.2z"/>
	<path class="st49" d="M-1876.3-1756c0.3,0,0.6,0,0.8,0c0,2,0,4,0,6l-0.4,0.1l-0.4,0C-1876.3-1752-1876.3-1754-1876.3-1756z"/>
	<path class="st50" d="M-2591.5-2726c0,0.3,0,0.6,0,0.8c-1.7,0-3.3,0-5,0c0-0.3,0-0.6,0-0.8C-2594.8-2726-2593.1-2726-2591.5-2726z"
		/>
	<path class="st51" d="M-1876-1757.2c0-228.5,0-457,0-685.6c0.3-6.7-0.2-13.3-0.6-19.9c-0.5-8.5-0.9-17-3-25.4
		c-5.3-21.2-13.3-41.2-24.2-60c-13.2-23-30.1-43.1-50.1-60.6c-22.6-19.8-48.9-33.1-77.2-42.8c-48.8-16.7-98.6-29.5-149-40.1
		c-41.9-8.8-84.1-16.1-126.5-21.7c-31.7-4.2-63.5-7.7-95.3-9.8c-27.6-1.8-55.4-2.2-83.1-2.3c-2.6,0-5.3,0-7.9,0c-4.2,0-8.5,0-12.7,0
		c-3.6,0-7.3,0-10.9,0c-5.4-0.3-10.7,0.6-16.1-0.5c-6.3,0-12.7,0-19,0c-6.3,1.1-12.7,0.2-19,0.5c-3.6,0-7.3,0-10.9,0
		c-3.3,0-6.5,0-9.8,0c-1.7,0-3.4,0-5.2,0c-19.9,0-39.8,1.1-59.7,1.3c-26.5,0.3-52.8,3.4-79.1,6c-27.7,2.7-55.3,6.4-82.7,11
		c-82.4,13.7-163.9,31.2-242.9,59.3c-38.2,13.6-69.4,36.4-95.2,67c-13.2,15.6-23.5,33.1-32.2,51.6c-11.4,24.1-17.9,49.3-17.9,76.2
		c0.1,234.8,0,469.6,0.2,704.4c0,12.1,0.3,24.3,2.6,36.2c7.2,37.2,21.5,71.7,41.1,104c18.3,30.2,40.8,56.9,69.5,77.8
		c53.4,39,107.1,77.6,160.7,116.4c83.9,60.8,167.9,121.5,251.8,182.4c15.4,11.2,31.2,21.6,48.7,29.4c27.2,12,55.8,16.7,85.3,15.9
		c3.3,0,6.6,0,9.8,0c5.3,0.1,10.6-0.5,15.9-0.4c26.8,0.2,51.7-7.4,75.8-18.2c20.2-9.1,37.6-22.7,55.4-35.6
		c48.4-35.1,96.9-70.1,145.3-105.2c43.3-31.4,86.6-62.6,129.9-94c39.5-28.6,79-57.3,118.6-85.8c19.3-13.9,36.5-30.1,51.5-48.4
		c19.6-23.8,35-50.3,47.1-78.6c13.5-31.4,21.9-63.9,20.9-98.3C-1876-1753.1-1876-1755.1-1876-1757.2z M-2016.4-1764.6
		c-0.4,51-21.9,93.4-63.1,123.5c-137.8,100.6-276.2,200.3-414.4,300.3c-26.2,19-67.7,18.8-94-0.2c-139.5-101-279.1-202-418.6-303.1
		c-19-13.8-31.6-32.7-41.9-53.3c-11.6-23.1-17.2-47.4-17.2-73.6c0.4-222,0.2-444,0.2-666c0-31,14.9-53.8,39.7-71
		c6.6-4.6,14.6-6.4,22.2-8.9c54.4-18.2,110-31.8,166.4-42.3c46.4-8.6,93-15.3,140-19.6c63.8-5.9,127.7-8.3,191.7-6.9
		c36.7,0.8,73.3,2.6,109.8,5.8c52.3,4.6,104.2,11.8,155.8,21.6c57.3,10.9,113.6,25.5,169.1,43.6c28.7,9.4,55,46.1,54.9,77
		c-0.5,113.2-0.2,226.3-0.2,339.5C-2016.2-1986.9-2015.5-1875.7-2016.4-1764.6z"/>
	<path class="st51" d="M-2646.4-1746.5c-17.4-0.4-33.7-5.9-46.6-18.6c-29.6-29.1-58.8-58.5-88.2-87.9c-29.5-29.4-59-58.8-88.3-88.4
		c-31.5-31.8-27.4-81.5,8.8-107.2c26-18.5,64.6-17.7,92,10.2c38.9,39.6,78.4,78.5,117.7,117.7c5.3,5.3,5.3,5.2,10.4,0.1
		c109.4-109.3,218.8-218.6,328-328.1c14.8-14.8,32.1-22.8,53.1-22.4c38.7,0.6,69.6,33.4,68.2,72c-0.7,19.9-9,36.1-22.9,50
		c-77.5,77.4-154.9,154.8-232.3,232.2c-49.3,49.3-98.5,98.5-147.7,147.8C-2608.4-1754.8-2625.4-1746.9-2646.4-1746.5z"/>
</g>
</svg>
