<?xml version="1.0" encoding="utf-8"?>
<!-- Generator: Adobe Illustrator 21.0.2, SVG Export Plug-In . SVG Version: 6.00 Build 0)  -->
<svg version="1.1" id="Camada_1" xmlns="http://www.w3.org/2000/svg" xmlns:xlink="http://www.w3.org/1999/xlink" x="0px" y="0px"
	 viewBox="0 0 1587.3 1683.6" style="enable-background:new 0 0 1587.3 1683.6;" xml:space="preserve">
<style type="text/css">
	.st0{fill:#707070;}
	.st1{opacity:0;clip-path:url(#SVGID_2_);fill:#FFFFFF;}
	.st2{clip-path:url(#SVGID_4_);}
	.st3{opacity:0;clip-path:url(#SVGID_8_);fill:#FFFFFF;}
	.st4{clip-path:url(#SVGID_8_);fill:#20A0AC;}
	.st5{clip-path:url(#SVGID_8_);}
	.st6{opacity:0;clip-path:url(#SVGID_10_);fill:#FFFFFF;}
	.st7{clip-path:url(#SVGID_12_);}
	.st8{opacity:0;clip-path:url(#SVGID_16_);fill:#FFFFFF;}
	.st9{clip-path:url(#SVGID_18_);}
	.st10{opacity:0;clip-path:url(#SVGID_22_);fill:#FFFFFF;}
	.st11{clip-path:url(#SVGID_24_);}
	.st12{opacity:0;clip-path:url(#SVGID_28_);fill:#FFFFFF;}
	.st13{clip-path:url(#SVGID_30_);}
	.st14{fill:#7FBEFD;}
	.st15{fill:#7EBDFD;}
	.st16{fill:#B5D9FE;}
	.st17{fill:#79BBFD;}
	.st18{fill:#B4D8FE;}
	.st19{fill:#BBDCFE;}
	.st20{fill:#CBE4FE;}
	.st21{fill:#BEDEFE;}
	.st22{fill:#C5E1FE;}
	.st23{fill:#C4E1FE;}
	.st24{fill:#3496FC;}
	.st25{fill:#3497FD;}
	.st26{fill:#BCDCFE;}
	.st27{fill:#52A6FC;}
	.st28{fill:#59A9FC;}
	.st29{fill:#ABD4FD;}
	.st30{fill:#DDEDFE;}
	.st31{fill:#A6D1FD;}
	.st32{fill:#3395FA;}
	.st33{fill:#66AFFC;}
	.st34{fill:#8BC3FD;}
	.st35{fill:#99CAFD;}
	.st36{fill:#82BEFD;}
	.st37{fill:#ACD4FD;}
	.st38{fill:#72B6FC;}
	.st39{fill:#8FC5FD;}
	.st40{fill:#FFFFFF;}
	.st41{fill:#949DB2;}
	.st42{fill:#8C96AC;}
	.st43{fill:#C5CAD5;}
	.st44{fill:#A3ABBD;}
	.st45{fill:#B7BDCB;}
	.st46{fill:#CFD3DC;}
	.st47{fill:#9AA2B6;}
	.st48{fill:#9FA7B9;}
	.st49{fill:#CBCFD9;}
	.st50{fill:#D1D5DE;}
	.st51{fill:#D7DBE2;}
	.st52{fill:#E3E6EB;}
	.st53{fill:#BAC0CD;}
	.st54{fill:#78839D;}
	.st55{fill:#A2AABB;}
	.st56{fill:#C8CCD7;}
</style>
<path class="st0" d="M-2713.6,6808.3c-1.6-3.2-5.1-4.9-8.5-4.4l-43.6,6.7l6.7-43.6c0.5-3.5-1.2-6.9-4.4-8.5c-3.2-1.6-7-1-9.5,1.5
	l-50.6,50.6c-1.2,1.2-2,2.8-2.3,4.5l-8,52l-29,29c-39.9-37.1-91.6-57.4-146.5-57.4c-57.6,0-111.7,22.4-152.4,63.1
	c-40.7,40.7-63.1,94.8-63.1,152.4c0,57.6,22.4,111.7,63.1,152.4c40.7,40.7,94.8,63.1,152.4,63.1s111.7-22.4,152.4-63.1
	c40.7-40.7,63.1-94.8,63.1-152.4c0-45.8-14.2-89.5-40.9-126.4c-2.7-3.7-7.8-4.5-11.4-1.8c-3.7,2.7-4.5,7.8-1.8,11.4
	c24.7,34.1,37.8,74.5,37.8,116.9c0,109.8-89.3,199.1-199.1,199.1c-109.8,0-199.1-89.3-199.1-199.1c0-109.8,89.3-199.1,199.1-199.1
	c50.5,0,98.1,18.6,134.9,52.6l-37.3,37.3c-26.9-24-61.3-37.2-97.6-37.2c-80.7,0-146.3,65.6-146.3,146.3s65.6,146.3,146.3,146.3
	s146.3-65.6,146.3-146.3c0-26.9-7.4-53.3-21.3-76.1c-2.3-3.9-7.4-5.1-11.2-2.7c-3.9,2.3-5.1,7.4-2.7,11.2
	c12.4,20.3,18.9,43.7,18.9,67.6c0,71.7-58.3,130-130,130c-71.7,0-130-58.3-130-130s58.3-130,130-130c31.9,0,62.2,11.5,86,32.5
	l-37.4,37.4c-13.7-11.1-30.7-17.1-48.6-17.1c-42.6,0-77.3,34.7-77.3,77.3s34.7,77.3,77.3,77.3c42.6,0,77.3-34.7,77.3-77.3
	c0-7.6-1.1-15.1-3.3-22.3c-1.3-4.3-5.9-6.8-10.2-5.5c-4.3,1.3-6.8,5.9-5.5,10.2c1.7,5.7,2.6,11.6,2.6,17.6
	c0,33.6-27.3,60.9-60.9,60.9c-33.6,0-60.9-27.3-60.9-60.9c0-33.6,27.3-60.9,60.9-60.9c13.5,0,26.4,4.4,36.9,12.4l-42.7,42.7
	c-3.2,3.2-3.2,8.4,0,11.6c1.6,1.6,3.7,2.4,5.8,2.4c2.1,0,4.2-0.8,5.8-2.4l146.6-146.6c0.1-0.1,34.7-34.7,34.7-34.7l52-8
	c1.7-0.3,3.3-1.1,4.5-2.3l50.6-50.6C-2712.6,6815.2-2712,6811.4-2713.6,6808.3L-2713.6,6808.3z M-2810.1,6820.3l31.1-31.1l-4.2,27.3
	l-31.1,31.1L-2810.1,6820.3z M-2775.4,6854.9l-27.3,4.2l31.1-31.1l27.3-4.2C-2744.3,6823.8-2775.4,6854.9-2775.4,6854.9z"/>
<g>
	<defs>
		<rect id="SVGID_1_" x="-3061.7" y="6950.6" width="186" height="124"/>
	</defs>
	<clipPath id="SVGID_2_">
		<use xlink:href="#SVGID_1_"  style="overflow:visible;"/>
	</clipPath>
	<rect x="-3061.7" y="6950.6" class="st1" width="186" height="124"/>
</g>
<g>
	<defs>
		<rect id="SVGID_3_" x="-3614.7" y="6824.2" width="317" height="211.3"/>
	</defs>
	<clipPath id="SVGID_4_">
		<use xlink:href="#SVGID_3_"  style="overflow:visible;"/>
	</clipPath>
	<g class="st2">
		<defs>
			<rect id="SVGID_5_" x="-3614.7" y="6824.2" width="317" height="211.3"/>
		</defs>
		<clipPath id="SVGID_6_">
			<use xlink:href="#SVGID_5_"  style="overflow:visible;"/>
		</clipPath>
		<g transform="matrix(1 0 0 1 0 4.882812e-04)" style="clip-path:url(#SVGID_6_);">
			
				<image style="overflow:visible;" width="3713" height="2474" xlink:href="4B9F99B8E535101B.jpg"  transform="matrix(8.537570e-02 0 0 8.542172e-02 -3614.7432 6824.2319)">
			</image>
		</g>
	</g>
</g>
<g>
	<defs>
		<rect id="SVGID_7_" x="-3506.7" y="6917.2" width="100" height="26"/>
	</defs>
	<clipPath id="SVGID_8_">
		<use xlink:href="#SVGID_7_"  style="overflow:visible;"/>
	</clipPath>
	<rect x="-3506.7" y="6917.2" class="st3" width="100" height="26"/>
	<rect x="-3506.7" y="6917.2" class="st4" width="100" height="26"/>
	<g class="st5">
		<defs>
			<rect id="SVGID_9_" x="-3937.7" y="6806.2" width="961" height="248"/>
		</defs>
		<clipPath id="SVGID_10_">
			<use xlink:href="#SVGID_9_"  style="overflow:visible;"/>
		</clipPath>
		<rect x="-3937.7" y="6806.2" class="st6" width="961" height="248"/>
	</g>
	<g class="st5">
		<defs>
			<rect id="SVGID_11_" x="-3999.2" y="6957.7" width="961" height="248"/>
		</defs>
		<clipPath id="SVGID_12_">
			<use xlink:href="#SVGID_11_"  style="overflow:visible;"/>
		</clipPath>
		<g class="st7">
			<defs>
				<rect id="SVGID_13_" x="-4032.1" y="6957.7" width="1027.6" height="248"/>
			</defs>
			<clipPath id="SVGID_14_">
				<use xlink:href="#SVGID_13_"  style="overflow:visible;"/>
			</clipPath>
			<g style="clip-path:url(#SVGID_14_);">
				
					<image style="overflow:visible;" width="2775" height="668" xlink:href="4B9F99B8E5351019.jpg"  transform="matrix(0.3703 0 0 0.3713 -4032.1445 6957.7241)">
				</image>
			</g>
		</g>
	</g>
</g>
<image style="overflow:visible;" width="2775" height="668" xlink:href="4B9F99B8E535101F.jpg"  transform="matrix(0.3703 0 0 0.3713 -4345.126 6418.2437)">
</image>
<g>
	<defs>
		<rect id="SVGID_15_" x="-4345.1" y="6668.7" width="1633.4" height="421.5"/>
	</defs>
	<clipPath id="SVGID_16_">
		<use xlink:href="#SVGID_15_"  style="overflow:visible;"/>
	</clipPath>
	<rect x="-4345.1" y="6668.7" class="st8" width="1633.4" height="421.5"/>
</g>
<g>
	<defs>
		<rect id="SVGID_17_" x="-4815.1" y="6719.7" width="2528.4" height="652.5"/>
	</defs>
	<clipPath id="SVGID_18_">
		<use xlink:href="#SVGID_17_"  style="overflow:visible;"/>
	</clipPath>
	<g class="st9">
		<defs>
			<rect id="SVGID_19_" x="-4901.7" y="6719.7" width="2703.6" height="652.5"/>
		</defs>
		<clipPath id="SVGID_20_">
			<use xlink:href="#SVGID_19_"  style="overflow:visible;"/>
		</clipPath>
		<g style="clip-path:url(#SVGID_20_);">
			
				<image style="overflow:visible;" width="2775" height="668" xlink:href="4B9F99B8E5351018.jpg"  transform="matrix(0.9743 0 0 0.9768 -4901.6758 6719.7441)">
			</image>
		</g>
	</g>
</g>
<g id="oiNk2G.tif">
	
		<image style="overflow:visible;" width="2530" height="463" id="Layer_0_1_" xlink:href="4B9F99B8E535101B.png"  transform="matrix(1 0 0 1 -4814.7388 7376.6978)">
	</image>
</g>
<g>
	<defs>
		<rect id="SVGID_21_" x="-2162.7" y="6403.6" width="393.8" height="322"/>
	</defs>
	<clipPath id="SVGID_22_">
		<use xlink:href="#SVGID_21_"  style="overflow:visible;"/>
	</clipPath>
	<rect x="-2162.7" y="6403.6" class="st10" width="393.8" height="322"/>
</g>
<g>
	<defs>
		<rect id="SVGID_23_" x="-1720.7" y="6407.6" width="393.8" height="322"/>
	</defs>
	<clipPath id="SVGID_24_">
		<use xlink:href="#SVGID_23_"  style="overflow:visible;"/>
	</clipPath>
	<g class="st11">
		<defs>
			<rect id="SVGID_25_" x="-1720.7" y="6407.6" width="393.8" height="322"/>
		</defs>
		<clipPath id="SVGID_26_">
			<use xlink:href="#SVGID_25_"  style="overflow:visible;"/>
		</clipPath>
		<g style="clip-path:url(#SVGID_26_);">
			
				<image style="overflow:visible;" width="1619" height="1215" xlink:href="4B9F99B8E5351017.jpg"  transform="matrix(-0.2432 0 0 0.265 -1326.9832 6407.5649)">
			</image>
		</g>
	</g>
</g>
<g>
	<defs>
		<rect id="SVGID_27_" x="-4339.1" y="5707.7" width="1472.4" height="419.8"/>
	</defs>
	<clipPath id="SVGID_28_">
		<use xlink:href="#SVGID_27_"  style="overflow:visible;"/>
	</clipPath>
	<rect x="-4339.1" y="5707.7" class="st12" width="1472.4" height="419.8"/>
</g>
<g>
	<defs>
		<rect id="SVGID_29_" x="-4339.1" y="5707.7" width="1472.4" height="419.8"/>
	</defs>
	<clipPath id="SVGID_30_">
		<use xlink:href="#SVGID_29_"  style="overflow:visible;"/>
	</clipPath>
	<g class="st13">
		<defs>
			<rect id="SVGID_31_" x="-5738.1" y="5655.3" width="2871.4" height="701.9"/>
		</defs>
		<clipPath id="SVGID_32_">
			<use xlink:href="#SVGID_31_"  style="overflow:visible;"/>
		</clipPath>
		<g style="clip-path:url(#SVGID_32_);">
			
				<image style="overflow:visible;" width="2775" height="668" xlink:href="4B9F99B8E5351027.jpg"  transform="matrix(1.0347 0 0 1.0508 -5738.0874 5655.3369)">
			</image>
		</g>
	</g>
</g>
<path class="st14" d="M1400.4,4448.4c-2.9,0.3-5.7,0.1-8.1-1.8c2.7,0,5.3,0,8,0C1401.7,4447.1,1401.7,4447.7,1400.4,4448.4z"/>
<path class="st15" d="M954.4,4448.4c-2.9,0.3-5.7,0.1-8.1-1.8c2.7,0,5.3,0,8,0C955.7,4447.1,955.7,4447.7,954.4,4448.4z"/>
<path class="st16" d="M512.3,4446.6c0,0.6,0.1,1.2,0.1,1.8c-3,0.5-5.7,0.1-8.1-1.8C506.9,4446.6,509.6,4446.6,512.3,4446.6z"/>
<path class="st17" d="M488.3,4446.6c-2.4,2-5.3,2.1-8.2,1.8c-1.3-0.7-1.2-1.3,0.2-1.8C482.9,4446.6,485.6,4446.6,488.3,4446.6z"/>
<path class="st18" d="M66.3,4446.6c0,0.6,0.1,1.2,0.1,1.8c-3,0.5-5.7,0.1-8.1-1.8C60.9,4446.6,63.6,4446.6,66.3,4446.6z"/>
<path class="st19" d="M1368.1,4448.3c0-0.6,0.1-1.1,0.1-1.7c2,0,4,0,6,0C1372.6,4448.6,1370.4,4448.7,1368.1,4448.3z"/>
<path class="st19" d="M922.1,4448.3c0-0.6,0.1-1.1,0.1-1.7c2,0,4,0,6,0C926.6,4448.6,924.4,4448.7,922.1,4448.3z"/>
<path class="st20" d="M480.3,4446.6c0,0.6-0.1,1.2-0.2,1.8c-1.9,0.1-3.9,0.1-5.8,0.2c0.1-0.6,0.1-1.3,0-1.9
	C476.3,4446.6,478.3,4446.6,480.3,4446.6z"/>
<path class="st21" d="M30.1,4448.3c0-0.6,0.1-1.2,0.1-1.7c2,0,4,0,6,0C34.6,4448.6,32.4,4448.7,30.1,4448.3z"/>
<path class="st22" d="M1400.4,4448.4c-0.1-0.6-0.2-1.2-0.1-1.8c1.3,0,2.7,0,4,0c0,0.6,0.1,1.2,0.1,1.7
	C1403,4448.3,1401.7,4448.4,1400.4,4448.4z"/>
<path class="st23" d="M954.4,4448.4c-0.1-0.6-0.2-1.2-0.1-1.8c1.3,0,2.7,0,4,0c0,0.6,0.1,1.2,0.1,1.7
	C957,4448.3,955.7,4448.4,954.4,4448.4z"/>
<path class="st24" d="M1942.3,4928.6c-1.9-2.8-0.6-5.9-1-8.9c0-2.1,0-4.2,0-6.3c-1.1-16.5-1.4-33.1-6.3-49.2
	c-14.9-48.2-41.3-89-78.4-123c-53-48.7-115.1-74.5-187.2-75.1c-49.9-0.4-99.9,0-149.9-0.1c-15.5,0-16.2-1-16.5-16.4
	c-0.8-34.9,1.3-69.8-1.8-104.8c-3.8-42.8-44-96.8-95.4-97.1c-1.6,0-3.2,0-4.7,0c-2.9-0.4-6,0.9-8.7-1c-6,0-12,0-18,0
	c-2.5,1.8-5.4,0.7-8.1,1c-12.1,1.7-24.6,1.6-35.5,8.5c-38.4,24.2-61.2,57.5-61.1,104.3c0,29.6,0.1,59.3,0,88.9
	c0,15.2-1.4,16.6-16.6,16.6c-59.6,0.1-119.2,0.1-178.8,0c-15.8,0-16.8-1.3-17.2-17c-0.8-34.3,0.8-68.5-1.6-102.8
	c-3-41.9-43.2-98.1-95.2-98.5c-1.6,0-3.3,0-4.9,0c-3-0.4-6.2,0.9-9-1c-6,0-12,0-18,0c-2.5,1.8-5.4,0.7-8.1,1
	c-12.1,1.7-24.6,1.7-35.5,8.5c-38.2,23.9-60.7,57.1-61,103.4c-0.2,30,0,60-0.1,89.9c-0.1,15.1-1.5,16.5-16.7,16.5
	c-59.6,0.1-119.3,0.1-178.9,0c-15.7,0-16.6-1.3-17-17.2c-0.8-34.3,0.8-68.5-1.6-102.8c-2.6-39.2-42.3-98.7-95.4-98.2
	c-3.2-0.4-6.6,1-9.7-1c-5.3,0-10.7,0-16,0c-2.8,2-6,0.6-9.1,1c-2.2,0-4.4,0-6.5,0c-10.7,2-22,1.5-31.8,7.3
	c-39.4,23.5-62.7,56.9-63.2,103.9c-0.3,30,0,59.9-0.1,89.9c0,15.8-1.3,17.1-17.1,17.1c-59.6,0.1-119.2,0-178.8,0
	c-2.3,0-4.7-0.1-7-0.2c-6-0.3-9.2-3.3-9.6-9.3c-0.3-4.3-0.1-8.7-0.2-13c-0.9-32.9,1.1-65.8-1.7-98.8c-3.7-42.6-44.8-97.7-95.3-97.1
	c-3.2-0.4-6.6,1-9.7-1c-7.3,0-14.7,0-22,0c-2.4,1.8-5.2,0.7-7.8,1c-12.2,1.4-24.7,1.8-35.6,8.5c-38.2,23.4-60.4,56.5-61.2,102.2
	c-0.5,27.3-0.1,54.6-0.1,81.9c0,27.1,2,25.7-25.2,25.7c-49.3,0-98.6-0.4-147.9,0.1c-43.4,0.5-84.3,12.2-122.4,32.6
	c-45.9,24.6-82.9,59.1-109.4,104c-21.6,36.5-37.3,75.1-36.4,118.7c-2.3,566.4-0.4,1132.9-1,1699.4c0.3,8.8,1.5,17.5,1,26.3
	c-0.5,45.9,15.9,86.6,39.4,124.8c20.3,32.9,46.8,60.4,78.8,82.2c40.7,27.7,84.6,45.8,134.8,45.5c3.4,0,6.7,0,10.1,0
	c4.3,0,8.5,0,12.8,0c634.8,0,1269.5,0,1904.3,0c3.7,0,7.3,0,10.9,0c3.4,0,6.7,0,10.1,0c16.2-1.4,32.6-1.1,48.4-5.5
	c72.5-20.4,128-63.3,167.5-127.1c20.8-33.7,34.6-69.6,33.9-109.9c0-2,0-4,0-6c0.4-2.8-0.9-5.8,1-8.4
	C1942.3,6071.2,1942.3,5499.9,1942.3,4928.6z M1719.8,6628.5c-3.6,26-25.1,46-51.3,47.9c-5,0.4-10,0.3-15,0.3
	c-312.3,0-624.7,0-937,0c-312,0-624,0-936,0c-5.3,0-10.7,0.1-16-0.4c-27.8-2.4-49.3-25.1-50.5-53c-0.2-4.3-0.1-8.7-0.1-13
	c0-550.7,0-1101.3,0-1652c0-7.3-0.6-14.7,1.1-21.9c6-25.3,27.4-43.2,54.3-43.4c53.3-0.5,106.7-0.2,160-0.1c7,0,7.1,0.3,7.1,8.5
	c0.1,34.7-0.7,69.4,0.2,104c1.1,43.9,21.3,77.3,60.2,98c67.6,36.1,152.6-8.5,161.7-84.5c0.8-7,1.3-13.9,1.3-20.9c-0.1-31,0-62,0-93
	c0-2.3,0.1-4.7,0-7c-0.1-3.9,2-5.3,5.6-5.1c2,0.1,4,0,6,0c66.7,0,133.3,0,200,0c11.2,0,11.1-1,11.1,10.7c0,33.7-0.6,67.3,0.2,101
	c0.9,43.9,20.7,77.4,59.4,98.5c68.1,37.1,153.8-8.1,162.6-85.2c0.9-8,1.1-15.9,1.1-23.9c0-29.7,0-59.3,0-89c0-2.3,0.1-4.7,0.1-7
	c0-3.2,1.3-5,4.7-5c2,0,4-0.1,6-0.1c67,0,134,0,201,0c0.3,0,0.7,0,1,0c9.8,0.1,9.9,0.1,9.9,9.9c0,34.3-0.8,68.7,0.2,103
	c1.5,47.3,24.2,82,67.6,101.2c68.1,30.1,146.5-16.2,154.5-90.2c1-9.7,0.9-19.3,0.9-29c0-27.7,0-55.3,0-83c0-2.7,0-5.3,0.2-8
	c0.1-2.3,1.4-3.7,3.8-3.7c2.7-0.1,5.3-0.1,8-0.1c66.3,0,132.7,0,199,0c1,0,2,0,3,0c8.6,0.2,8.7,0.2,8.7,9c0.1,35-0.3,70,0.1,105
	c0.6,48.4,33.5,91.1,79.9,104.7c66.9,19.6,135.3-26.6,142.3-96c1.2-12,0.8-24,0.8-36c0.1-25.3,0-50.7,0-76
	c0-10.6,0.1-10.7,10.1-10.7c51,0,102-0.1,153,0c35.9,0.1,59.5,23.6,59.6,59.6c0.2,66.7,0,133.3,0,200c0,486,0,972,0,1458
	C1720.4,6616.5,1720.6,6622.6,1719.8,6628.5z"/>
<path class="st25" d="M717.3,6008c-220.6,0-441.3,0-661.9,0.1c-23.8,0-46.2-4.5-66.7-17.3c-38.8-24.3-59-71.1-50.1-116.7
	c8.8-44.8,46.3-80.6,91.7-87.8c7.3-1.1,14.6-1.5,21.9-1.5c443.3,0,886.5,0.1,1329.8-0.2c54,0,97.2,34.4,110.7,80.1
	c19.9,67.3-26.6,136.3-96.5,142.4c-7,0.6-14,0.8-21,0.8C1155.9,6008,936.6,6008,717.3,6008z"/>
<path class="st25" d="M633.7,5617.6c-191.3,0-382.7,0-574,0c-12,0-24,0-35.8-2.7c-52.8-11.8-88.8-58.8-87.3-114.1
	c1.4-50.9,41.1-95.7,92.6-104.6c9.3-1.6,18.6-1.6,27.9-1.6c384.3,0,768.7,0,1153,0c3.7,0,7.3-0.1,11,0.1
	c45.7,2.3,79.4,23.9,98.8,65.2c31.3,66.5-10.8,144.7-83.2,156.3c-11.2,1.8-22.6,1.5-33.9,1.5c-107,0-214,0-321,0
	C799,5617.6,716.3,5617.6,633.7,5617.6z"/>
<path class="st25" d="M438.3,6398.2c-128.3,0-256.6-0.1-384.9,0.1c-25.4,0-48.8-5.8-69.7-20.7c-38.8-27.7-56.1-76.9-42.9-122.1
	c13.2-45.4,53.6-77.3,101.4-80.3c4.3-0.3,8.7-0.3,13-0.3c255.6,0,511.2,0.1,766.9-0.1c34.5,0,64.6,10.2,87.8,36
	c29.4,32.6,38.2,70.9,23.6,112.4c-14.7,41.8-45.5,66.2-89.3,73.7c-7.9,1.3-15.9,1.4-23.9,1.4
	C692.9,6398.2,565.6,6398.2,438.3,6398.2z"/>
<path class="st20" d="M4526.3,6411.7c0,0.3-0.1,0.6-0.1,0.8c-554,0-1108,0-1662,0c0-0.3,0-0.6-0.1-0.8c3.2-0.1,6.3-0.2,9.5-0.2
	c547.7,0,1095.4,0,1643.1,0C4520,6411.6,4523.1,6411.7,4526.3,6411.7z"/>
<path class="st26" d="M4762.4,6172.6c-0.1-2.3-0.1-4.7-0.1-7c0-321.2,0-642.3,0-963.5c0-1.8-1-4,1-5.6c0,325.3,0,650.7,0,976
	C4763,6173.1,4762.7,6173.1,4762.4,6172.6z"/>
<path class="st27" d="M2867.3,4956.6c-3.3,1.8-6.8,0.9-10.2,0.8c-0.3-0.3-0.3-0.5-0.2-0.6c0.1-0.1,0.2-0.2,0.4-0.2
	C2860.6,4956.6,2863.9,4956.6,2867.3,4956.6z"/>
<path class="st28" d="M4534.4,4957.5c-3.4-0.1-6.9,0.8-10.1-0.9c3.3,0,6.7,0,10,0C4535,4956.8,4535,4957.1,4534.4,4957.5z"/>
<path class="st29" d="M2857.3,4956.6c-0.1,0.3-0.1,0.6-0.2,0.8c-2,0-3.9,0-5.9,0c0.1-0.3,0.1-0.6,0.1-0.9
	C2853.3,4956.6,2855.3,4956.6,2857.3,4956.6z"/>
<path class="st30" d="M4762.4,6172.6c0.3,0,0.6,0,0.9,0c0,2,0,4,0,6l-0.4,0l-0.4,0C4762.4,6176.6,4762.4,6174.6,4762.4,6172.6z"/>
<path class="st31" d="M4534.4,4957.5c-0.1-0.3-0.1-0.6-0.1-0.9c1.7,0,3.3,0,5,0c0,0.3,0,0.6,0.1,0.9
	C4537.7,4957.4,4536,4957.5,4534.4,4957.5z"/>
<path class="st32" d="M4763.3,5194.6c-0.8-6.1-0.6-12.2-1-18.3c-0.5-8.8-0.7-17.6-2.4-26.3c-5.2-25.5-14.3-49.5-27.2-72.1
	c-13.7-24.1-31.1-45.2-52-63.4c-18.8-16.4-39.6-29.8-62.5-39.7c-25.3-10.9-51.4-18.2-79.2-17.7c-1.6,0-3.2,0-4.8,0
	c-3.3-0.3-6.6,0.6-9.8-0.5c-552.3,0-1104.7,0-1657,0c-3.3,1.1-6.8,0.2-10.2,0.5c-2,0-4.1,0-6.1,0c-10.1,0.4-20.3,0.4-30.3,2.4
	c-24.5,4.9-47.7,13.6-69.5,25.9c-19.7,11.1-37.7,24.6-53.6,40.6c-14.3,14.3-26.8,30-37.1,47.5c-20.4,34.6-32.7,71.5-32.7,112.2
	c0.1,330.9,0,661.9,0.1,992.8c0,11.9,0.2,24,2.2,35.8c3.7,21.5,10.5,42,20.1,61.5c17.7,36.1,42.6,66.2,74.9,90.2
	c28,20.8,58.9,34.9,92.9,42.5c15.5,3.4,31.4,3.3,47.2,3.6c553.1,0,1106.2,0,1659.4,0c21.8-0.1,43.4-1.4,64.6-7.8
	c38.9-11.7,72.7-31.8,101.9-59.8c13.9-13.4,26-28.4,36.2-44.9c23.1-37.3,36.8-77.3,35.5-121.7c0-2.1,0-4.2,0-6.2
	c0-322.8,0-645.7,0-968.6c0-2.1-0.5-4.3,0.5-6.4C4763.3,5195.9,4763.3,5195.2,4763.3,5194.6z M4391.8,5150.6c1.8,0,3.6,0,5.4,0
	c39.8,0,79.6,0,119.5,0c31.1,0,51.8,20.5,51.8,51.5c0.1,40.2,0,80.3,0,120.5c0,5.5-0.1,5.7-5.5,3.6c-31.4-12-60.1-28.6-85.6-50.4
	c-38.3-32.8-66.6-72.8-84.4-120.1c-0.5-1.2-0.9-2.5-1.3-3.8C4391.6,5151.6,4391.7,5151.2,4391.8,5150.6z M2822.3,5198.1
	c0.1-25,20.6-46.9,45.7-47.3c43.3-0.7,86.6-0.2,129.9-0.2c0.3,0,0.6,0.2,1.2,0.4c-0.9,4.7-3,9.1-4.9,13.5
	c-33.3,77.6-89.5,131.5-168.1,162.1c-3.8,1.5-4,0.2-4-3C2822.3,5281.7,2822.1,5239.9,2822.3,5198.1z M2993.4,6217.7
	c-39.8,0-79.6,0-119.4,0c-31.1,0-51.7-20.6-51.7-51.6c0-40.1,0-80.3,0-120.4c0-5.4,0-5.5,5.3-3.4c60.5,23.4,108.4,62.3,143.4,116.9
	c11.6,18.1,20.7,37.5,28.6,58.6C2997,6217.7,2995.2,6217.7,2993.4,6217.7z M4568.4,6168.3c-0.1,25-16.7,44.5-40.9,48.8
	c-2.8,0.5-5.6,0.6-8.5,0.6c-41.1,0-82.3,0-123.4,0c-1.3,0-2.6-0.2-3.9-0.2c12.4-64.8,110.3-162.8,176.3-176.5
	c0.8,1.2,0.5,2.6,0.5,3.8C4568.5,6086,4568.6,6127.1,4568.4,6168.3z M4568.6,5833.4c0,4.9-1.5,6.4-6,7.4
	c-98.1,21.7-181.9,69.1-250.8,142.1c-58.5,62-97.5,134.8-117.9,217.6c-1,3.9-2.1,7.8-2.4,11.7c-0.4,4.8-2.6,5.7-7.1,5.7
	c-163-0.1-326-0.1-489-0.1c-162.7,0-325.3,0-488,0.1c-5.4,0-7.2-1.5-8.4-6.7c-20.6-91.8-63.7-171.6-129.9-238.4
	c-53.2-53.6-115.7-92.6-187.2-117.2c-17.8-6.1-35.9-11.1-54.3-15c-3.8-0.8-5.4-2-5.4-6.4c0.2-100,0.2-200,0-300
	c0-4.8,2.1-5.7,5.8-6.6c66.7-14.8,128-41.9,183.1-82.4c73-53.6,127.1-122.3,162.2-205.8c11.3-26.9,20.1-54.6,26-83.3
	c0.9-4.3,2.3-5.8,7-5.8c326.2,0.1,652.3,0.1,978.5,0c4.3,0,5.8,1.2,6.7,5.5c21.8,98.4,69,182.6,142.5,251.6
	c64.9,60.9,141.1,100.5,227.9,119.9c4.9,1.1,6.7,2.5,6.7,7.9C4568.4,5634.7,4568.4,5734,4568.6,5833.4z"/>
<path class="st24" d="M3695.6,5296.1c-213.6,0-384,170.8-388.3,377.2c-4.7,223.3,171.3,397.6,387.5,399
	c219.1-1.4,387.9-177,388.5-385.6C4083.8,5466.5,3907,5296.1,3695.6,5296.1z M3695.1,5878.4c-112-1.6-197.5-91.8-193.6-202.4
	c3.6-102.5,88.8-186.1,194.3-185.8c108,0.4,194.5,88.2,193.6,195.8C3888.5,5787.5,3807.4,5876.9,3695.1,5878.4z"/>
<path class="st33" d="M2428.2,4339.6c1.5,0,3-0.1,4.5-0.1c351.7,0,703.4,0,1055.1,0c1.2,0,2.3,0,3.5,0.1c0.2,0.3,0.2,0.6-0.1,0.9
	c-354.3,0-708.7,0-1063,0C2428,4340.3,2428,4340,2428.2,4339.6z"/>
<path class="st34" d="M3643.3,4195.6c-1.7-6-1.6-12,0-18C3643.3,4183.6,3643.3,4189.6,3643.3,4195.6z"/>
<path class="st35" d="M2980.3,2972.6c-2.3,1.8-4.7,1.4-7,0C2975.6,2972.6,2977.9,2972.6,2980.3,2972.6z"/>
<path class="st36" d="M2428.2,4339.6c0,0.3,0,0.6,0,0.9c-2.3,0-4.7,0-7,0C2423.3,4338.5,2425.9,4340,2428.2,4339.6z"/>
<path class="st37" d="M2942.2,2973.5c-2,0-4,0-6,0c0-0.3,0.1-0.6,0.1-0.8c2,0,4,0,6,0c0.3,0.2,0.4,0.4,0.3,0.6
	C2942.4,2973.4,2942.3,2973.5,2942.2,2973.5z"/>
<path class="st38" d="M2942.2,2973.5c0.1-0.3,0.1-0.6,0.1-0.9c1.7,0,3.3,0,5,0C2945.8,2974.2,2943.9,2973.4,2942.2,2973.5z"/>
<path class="st39" d="M3491.3,4340.6c0-0.3,0-0.6,0.1-0.9c1.7,0.2,3.6-0.9,4.9,0.9C3494.6,4340.6,3492.9,4340.6,3491.3,4340.6z"/>
<g>
	<path class="st24" d="M3643.3,4176.6c-0.9-0.4-0.9-1.3-1-2.1c-1.3-13.9-2.5-27.8-3.9-41.8c-3.8-38.1-8.9-76-17.3-113.4
		c-3.9-17.4-8.2-34.7-16.9-50.5c-10.4-18.8-25.1-33.9-41.3-47.7c-30.6-26.1-64.8-46.7-100-65.7c-53.3-28.7-109-52-166.2-71.8
		c-78.5-27.1-158.5-47.9-241.1-58.4c-29.3-3.7-58.6-6.3-88.1-6.7c-55-0.6-109.3,5.7-163.3,15.9c-66.2,12.5-130.9,30.5-194.2,53.2
		c-70.5,25.3-138.8,55.4-202.5,95.2c-26.3,16.5-51.4,34.6-73,57.2c-8.2,8.6-16.1,17.6-21,28.5c-14.9,32.9-21,68.2-26.2,103.7
		c-3.9,26.8-7.1,53.8-9.6,80.8c-1.7,18.6-3.5,37-0.7,55.8c9.7,64.9,61.6,118.1,126.8,129.1c4.8,0.8,9.9,0.3,14.4,2.7c1,0,2,0,3,0
		c2.7-1.1,5.4-0.3,8.1-0.5c353.5,0,707.1,0,1060.6,0c2.1,0.2,4.3-0.5,6.3,0.5c0.7,0,1.3,0,2,0c6.8-1.2,13.9-0.8,20.7-2.3
		c34.2-7.2,62.9-23.9,86.1-50.1c13.8-15.5,23.9-33.2,30.8-52.7c4.4-12.3,6.3-25.1,7.4-38c0-0.7,0-1.3,0-2c-0.8-6-0.8-12,0-18
		C3643.3,4177.2,3643.3,4176.9,3643.3,4176.6z M3494.4,4215.1c-2.8,0.6-5.6,0.6-8.4,0.6c-175.8,0-351.6,0-527.4,0
		c-175.8,0-351.6,0-527.4,0c-17.1,0-30.7-12.2-31.4-29c-0.3-7.6,1-15.3,1.7-22.9c2.6-26.8,5.7-53.6,9.8-80.3
		c2.6-17.1,5.8-34.1,10.5-50.8c1.4-5,4.3-8.5,8-11.7c21.9-19.3,46.7-34.3,72.1-48.3c93.1-51.3,191.6-88.5,295.5-111.3
		c39.9-8.7,80.2-14.4,120.9-17.3c46.6-3.3,92.9-0.5,139,6c100.7,14.4,196.5,45.2,289,87.2c39,17.7,76.8,37.7,112.6,61.2
		c11.3,7.4,22.1,15.5,32,24.7c2.7,2.5,4.3,5.4,5.3,8.8c5.1,18,8.2,36.3,11.1,54.7c4.8,30.3,7.4,60.8,10.9,91.2
		C3520.6,4200.1,3507.3,4212.1,3494.4,4215.1z"/>
	<path class="st24" d="M3300.4,3304.7c-0.8-23-3.5-45.8-8.8-68.2c-17.2-72.2-53.8-132.8-110.1-181.3
		c-51.6-44.5-111.3-70.9-178.8-79.9c-6.8-0.9-13.8-0.5-20.5-2.8c-0.7,0-1.3,0-2,0c-2.3,0.8-4.7,0.8-7,0c-8.7,0-17.3,0-26,0
		c-1.7,1.1-3.6,0.3-5.4,0.5c-1.9,0.1-3.8-0.3-5.6,0.3c-29.9,1.9-59,7.6-87.3,17.3c-67.8,23.4-123.1,64-165.7,121.6
		c-39.1,52.8-60.9,112.4-65.5,177.9c-2.1,29.5-0.3,59,5.6,88c21.4,105.8,79.5,185.2,173.7,237.2c71.1,39.3,147.7,50.2,227.3,34.5
		c90.2-17.7,162.2-65,215-140C3282.4,3448.7,3303.1,3380.1,3300.4,3304.7z M2958.6,3531.9c-116.4,1-221-95.4-217.1-225.5
		c3.5-114.6,98-209.7,218-209.7c120.4,0.1,217.6,98.6,216.9,218.9C3175.9,3435.7,3078.3,3532.5,2958.6,3531.9z"/>
</g>
<path class="st40" d="M-18.6,3210.1c-17.4-0.4-33.7-5.9-46.6-18.6c-29.6-29.1-58.8-58.5-88.2-87.9c-29.5-29.4-59-58.8-88.3-88.4
	c-31.5-31.8-27.4-81.5,8.8-107.2c26-18.5,64.6-17.7,92,10.1c38.9,39.6,78.4,78.5,117.7,117.7c5.3,5.3,5.3,5.2,10.4,0.1
	c109.4-109.3,218.8-218.6,328-328.1c14.8-14.8,32.1-22.8,53.1-22.4c38.7,0.6,69.6,33.4,68.2,72c-0.7,19.9-9,36.1-22.9,50
	c-77.5,77.4-154.9,154.8-232.3,232.2c-49.3,49.3-98.5,98.5-147.7,147.8C19.3,3201.8,2.3,3209.7-18.6,3210.1z"/>
<path class="st41" d="M76.3,2230.6c-6.3,1.8-12.7,0.8-19.1,0.8c-0.7-0.4-0.6-0.7,0.1-0.8C63.6,2230.6,69.9,2230.6,76.3,2230.6z"/>
<path class="st42" d="M111.3,2231.5c-5.4-0.1-10.8,1-16.1-0.9c5.3,0,10.7,0,16,0C112,2230.8,112,2231.1,111.3,2231.5z"/>
<path class="st43" d="M135.3,2231.4c-4.3,0-8.6,0-13,0c-0.8-0.2-0.8-0.5-0.1-0.8c4.3,0,8.7,0,13,0c0.3,0.1,0.5,0.2,0.8,0.4
	C135.8,2231.1,135.6,2231.2,135.3,2231.4z"/>
<path class="st44" d="M122.3,2230.6c0,0.3,0.1,0.6,0.1,0.8c-3.7,0-7.3,0-11,0.1c0-0.3-0.1-0.6-0.1-0.9
	C114.9,2230.6,118.6,2230.6,122.3,2230.6z"/>
<path class="st45" d="M57.3,2230.6c0,0.3-0.1,0.6-0.1,0.8c-3.6,0-7.3,0-10.9,0c-0.2-0.2-0.5-0.3-0.7-0.5c0.3-0.1,0.5-0.2,0.8-0.4
	C49.9,2230.6,53.6,2230.6,57.3,2230.6z"/>
<path class="st46" d="M46.3,2230.6c0,0.3,0,0.6-0.1,0.8c-3.3,0-6.7,0-10,0c-0.7-0.3-0.7-0.6,0-0.8
	C39.6,2230.6,42.9,2230.6,46.3,2230.6z"/>
<path class="st40" d="M751.8,3199.4c0-228.5,0-457,0-685.6c0.3-6.7-0.2-13.3-0.6-19.9c-0.5-8.5-0.9-17-3-25.4
	c-5.3-21.2-13.3-41.2-24.2-60c-13.2-23-30.1-43.1-50.1-60.6c-22.6-19.8-48.9-33.1-77.2-42.8c-48.8-16.7-98.6-29.5-149-40.1
	c-41.9-8.8-84.1-16.1-126.5-21.7c-31.7-4.2-63.5-7.7-95.3-9.8c-27.6-1.8-55.4-2.2-83.1-2.3c-2.6,0-5.3,0-7.9,0c-4.2,0-8.5,0-12.7,0
	c-3.6,0-7.3,0-10.9,0c-5.4-0.3-10.7,0.6-16.1-0.5c-6.3,0-12.7,0-19,0c-6.3,1.1-12.7,0.2-19,0.5c-3.6,0-7.3,0-10.9,0
	c-3.3,0-6.5,0-9.8,0c-1.7,0-3.4,0-5.2,0c-19.9,0-39.8,1.1-59.7,1.3c-26.5,0.3-52.8,3.4-79.1,6c-27.7,2.7-55.3,6.4-82.7,11
	c-82.4,13.7-163.9,31.2-242.9,59.3c-38.2,13.6-69.4,36.4-95.2,67c-13.2,15.6-23.5,33.1-32.2,51.6c-11.4,24.1-17.9,49.3-17.9,76.2
	c0.1,234.8,0,469.6,0.2,704.4c0,12.1,0.3,24.3,2.6,36.2c7.2,37.2,21.5,71.7,41.1,104c18.3,30.2,40.8,56.9,69.5,77.8
	c53.4,39,107.1,77.6,160.7,116.4c83.9,60.8,167.9,121.5,251.8,182.4c15.4,11.2,31.2,21.6,48.7,29.4c27.2,12,55.8,16.7,85.3,15.9
	c3.3,0,6.6,0,9.8,0c5.3,0.1,10.6-0.5,15.9-0.4c26.8,0.2,51.7-7.4,75.8-18.2c20.2-9.1,37.6-22.7,55.4-35.6
	c48.4-35.1,96.9-70.1,145.3-105.2c43.3-31.4,86.6-62.6,129.9-94c39.5-28.6,79-57.3,118.6-85.8c19.3-13.9,36.5-30.1,51.5-48.4
	c19.6-23.8,35-50.3,47.1-78.6c13.5-31.4,21.9-63.9,20.9-98.3C751.8,3203.5,751.8,3201.4,751.8,3199.4z M611.3,3192
	c-0.4,51-21.9,93.4-63.1,123.5c-137.8,100.6-276.2,200.3-414.4,300.3c-26.2,19-67.7,18.8-94-0.2c-139.5-101-279.1-202-418.6-303.1
	c-19-13.8-31.6-32.7-41.9-53.3c-11.6-23.1-17.2-47.4-17.2-73.6c0.4-222,0.2-444,0.2-666c0-31,14.9-53.8,39.7-71
	c6.6-4.6,14.6-6.4,22.2-8.9c54.4-18.2,110-31.8,166.4-42.3c46.4-8.6,93-15.3,140-19.6c63.8-5.9,127.7-8.3,191.7-6.9
	c36.7,0.8,73.3,2.6,109.8,5.8c52.3,4.6,104.2,11.8,155.8,21.6c57.3,10.9,113.6,25.5,169.1,43.6c28.7,9.4,55,46.1,54.9,77
	c-0.5,113.2-0.2,226.3-0.2,339.5C611.6,2969.7,612.2,3080.9,611.3,3192z"/>
<path class="st47" d="M3201.3,2642.6c-17,0-34,0-51,0c-0.3-0.7-0.1-1.2,0.5-1.6c1.5-0.9,3.2-0.9,4.8-0.9c13.4-0.1,26.8-0.1,40.3,0
	c1.7,0,3.3,0.1,4.8,0.9C3201.4,2641.3,3201.5,2641.9,3201.3,2642.6z"/>
<path class="st48" d="M3996.3,1813.6c0,10.3,0,20.7,0,31c-0.7,0.3-1.2,0.1-1.6-0.5c-1.5-10-1.5-20,0-30
	C3995,1813.4,3995.6,1813.3,3996.3,1813.6z"/>
<path class="st49" d="M3996.3,1813.6c-0.3-0.1-0.6-0.1-0.9-0.1c-2.3-3.3-2.3-6.7,0-10c0.3,0,0.6,0,0.9,0.1
	C3996.3,1806.9,3996.3,1810.2,3996.3,1813.6z"/>
<path class="st50" d="M3995.4,1844.7c0.3,0,0.6,0,0.9-0.1c0,3,0,6,0,9l-0.4,0.1l-0.4,0C3993.1,1850.7,3993.2,1847.7,3995.4,1844.7z"
	/>
<path class="st51" d="M3201.3,2642.6c0-0.3,0-0.6,0.1-0.9c2.3-1.9,4.7-2,7,0.1c0,0.3,0,0.5-0.1,0.8
	C3205.9,2642.6,3203.6,2642.6,3201.3,2642.6z"/>
<path class="st52" d="M3139.3,2642.6c0-0.3,0-0.6,0-0.9c1.7-1.8,3.7-1.6,5.7-0.7c0.6,0.4,0.7,0.9,0.4,1.5
	C3143.3,2642.6,3141.3,2642.6,3139.3,2642.6z"/>
<path class="st53" d="M3145.3,2642.6c0-0.3,0-0.6-0.1-0.8c1.6-1.6,3.3-1.6,5-0.1c0,0.3,0,0.6,0,0.9
	C3148.6,2642.6,3146.9,2642.6,3145.3,2642.6z"/>
<path class="st40" d="M3995.4,1844.7c0-10.4,0-20.8,0-31.2c0-3.3,0-6.7,0-10c-0.3-7.2-0.7-14.3-0.9-21.5
	c-1.3-35.3-5.4-70.4-11.5-105.1c-11.9-67-31.7-131.6-59.9-193.5c-56.5-124.1-138.8-227.9-246.3-311.7
	c-51.1-39.8-106.2-72.8-165.3-99.3c-63.6-28.5-129.8-48.7-198.5-60.3c-39.5-6.7-79.2-10.3-119.2-11.4c-23.8-0.6-47.6,0.1-71.4,1.6
	c-30.3,1.9-60.3,5.3-90.2,10.6c-70.3,12.5-137.9,33.7-202.7,63.8c-79.7,37-151.4,85.6-215.6,145.6c-28.2,26.3-54.3,54.6-78.5,84.5
	c-40.8,50.5-75.1,105.1-102.9,163.7c-31.9,67.4-54.3,138-66.9,211.5c-6.3,36.8-10.4,73.8-11.3,111.2c-0.7,32.1,0,64.3,2.7,96.4
	c2.6,30.7,6.7,61.2,12.6,91.4c12.9,65.6,33.4,128.7,62,189.2c53.9,114.1,129.7,211,227.8,290.3c81.6,66,172.5,114.5,272.8,145.6
	c67.4,20.9,136.4,32.6,206.9,35.7c2,0,4,0,6,0c1.7,0,3.4-0.1,5-0.1c17.1,0,34.1,0,51.2,0c2.3,0,4.6,0.1,7,0.1
	c18.6-0.9,37.2-2,55.8-4.1c33.8-3.8,67.2-9.3,100.3-17.2c77.1-18.3,150.1-47,218.8-86.6c94-54.3,174.6-124.1,241.1-210
	c56.4-72.8,99.4-152.8,128.9-239.9c25.3-74.7,39.3-151.5,42.3-230.4C3995.4,1850.6,3995.4,1847.6,3995.4,1844.7z M3187.9,2493.1
	c-378.1,7.2-687.2-297.7-684.5-678.1c2-357.9,292.7-663.7,669.9-665.1c366.2-1.4,673.1,292,673.3,673.4
	C3846.7,2191.1,3551.1,2486.2,3187.9,2493.1z"/>
<path class="st54" d="M3100.4,1950.6c0-79.8,0-159.7,0-239.5c0-33.4,19.8-62.2,50.7-72.3c49.5-16.1,95.5,19.1,98.3,65.9
	c0.5,7.5,0.5,15,0.5,22.5c0,154.2,0,308.3,0,462.5c0,21.5-5.6,41-21.1,56.4c-21.5,21.4-47.5,28.6-76.6,19.2
	c-28.6-9.2-45.4-29.8-50.8-59.4c-0.9-5-1-10.3-1-15.4C3100.4,2110.6,3100.4,2030.6,3100.4,1950.6z"/>
<path class="st54" d="M3249.8,1449.1c-1.2,42-35.2,75-76.1,73.7c-41.9-1.3-74.6-35.5-73.2-76.7c1.4-39.4,33.1-72.9,75.6-72.3
	C3219.8,1374.6,3249.6,1409.6,3249.8,1449.1z"/>
<g>
	<path class="st40" d="M164.2,1682.7c-41.4-3.9-76.8-21-106.2-50C24.8,1600,6.3,1560.1,1.1,1514c-1-8.6-1-17.3-1-25.9
		c0-433.1-0.1-866.3,0-1299.4C0.1,139.2,17.1,96,50,59.3c30.5-34,68.7-53.6,114.2-58.5c6.4-0.7,13-0.6,19.5-0.6
		c226.2,0,452.3,0.3,678.5-0.3c43.9-0.1,73.3,34.9,75.5,71.7c2.1,35.9-20.4,70.4-55.4,79.3c-6.6,1.7-13.2,1.9-19.8,1.9
		c-225.5,0-451,0-676.5,0c-11,0-21.2,1.8-29.5,9.8c-8.4,8.1-12.3,17.8-12.3,29.5c0.1,153.8,0,307.6,0,461.5
		c0,278.3,0,556.6-0.1,834.9c0,10.4,2,19.8,8.4,28.1c6.7,8.6,15.7,13.2,26.6,13.8c2.2,0.1,4.3,0.1,6.5,0.1
		c225.3,0,450.6,0.3,676-0.2c43.2-0.1,73.6,33.7,76,71.9c2.4,38.4-23.6,74.4-61.2,80.5c-0.4,0.1-0.7,0.6-1.1,0.9c-235,0-470,0-705,0
		C168.4,1682.3,166.1,1683.7,164.2,1682.7z"/>
	<path class="st40" d="M1586.3,851.7c-1.7,34.2-33.8,65.6-68.2,66.7c-2.8,0.1-5.7,0.1-8.5,0.1c-262.2,0-524.3,0-786.5,0
		c-2.1,0-4.2,0-7.5,0c2.1,2.5,3.5,4.3,5.1,5.9c37.1,39.3,74.1,78.5,111.2,117.7c38.4,40.7,76.8,81.5,115.2,122.2
		c13.9,14.8,27.9,29.6,41.8,44.4c33.9,36.4,25.8,95.3-16.5,121.2c-25.1,15.3-60.7,11.6-81.8-9.7c-23.1-23.3-45.3-47.5-67.8-71.4
		c-47.6-50.4-95.2-100.8-142.7-151.2c-31.8-33.7-63.5-67.4-95.3-101.1c-31.6-33.6-63.3-67.1-94.9-100.8
		c-28.4-30.3-28.1-77.9,0.8-108.8c30.2-32.2,60.6-64.2,90.9-96.3c50.4-53.4,100.9-106.9,151.3-160.3c32.2-34.2,64.5-68.4,96.7-102.6
		c18.6-19.8,37.3-39.5,55.8-59.4c24.4-26.4,60.6-31.7,90.6-12.1c19.6,12.8,30.4,31.8,33.2,55.1c3.1,26.4-5.7,48.6-23.8,67.7
		c-52.9,55.7-105.5,111.7-158.2,167.5c-32.6,34.5-65.2,69.1-97.7,103.7c-4.5,4.8-9,9.7-14.2,15.3c2.9,0,4.8,0,6.7,0
		c263,0,526,0.2,789-0.2c39.4-0.1,68.8,27.6,75,62.8c0.3,1.5,0.3,3,0.4,4.5c1.1,2.3-0.4,4.9,0.9,7.1c0,1.3,0,2.7,0,4
		C1585.9,846.2,1587.5,849.1,1586.3,851.7z"/>
</g>
<path class="st41" d="M1586.3,851.7c0.2-2.7-1-5.6,0.9-8.1c0,2.7,0,5.3,0,8C1586.9,851.5,1586.6,851.6,1586.3,851.7z"/>
<path class="st55" d="M1587.3,839.6c-1.8-2.2-0.8-4.7-0.9-7.1c0.3,0.1,0.6,0.1,0.9,0.1C1587.3,834.9,1587.3,837.2,1587.3,839.6z"/>
<path class="st56" d="M164.2,1682.7c2.1-0.1,4.2-0.7,6.1,0.9c-2,0-4,0-6,0C164.3,1683.3,164.2,1683,164.2,1682.7z"/>
</svg>
