<?xml version="1.0" encoding="utf-8"?>
<!-- Generator: Adobe Illustrator 21.0.2, SVG Export Plug-In . SVG Version: 6.00 Build 0)  -->
<svg version="1.1" id="Camada_1" xmlns="http://www.w3.org/2000/svg" xmlns:xlink="http://www.w3.org/1999/xlink" x="0px" y="0px"
	 viewBox="0 0 2453.2 2453" style="enable-background:new 0 0 2453.2 2453;" xml:space="preserve">
<style type="text/css">
	.st0{fill:#707070;}
	.st1{opacity:0;clip-path:url(#SVGID_2_);fill:#FFFFFF;}
	.st2{clip-path:url(#SVGID_4_);}
	.st3{opacity:0;clip-path:url(#SVGID_8_);fill:#FFFFFF;}
	.st4{clip-path:url(#SVGID_8_);fill:#20A0AC;}
	.st5{clip-path:url(#SVGID_8_);}
	.st6{opacity:0;clip-path:url(#SVGID_10_);fill:#FFFFFF;}
	.st7{clip-path:url(#SVGID_12_);}
	.st8{opacity:0;clip-path:url(#SVGID_16_);fill:#FFFFFF;}
	.st9{clip-path:url(#SVGID_18_);}
	.st10{opacity:0;clip-path:url(#SVGID_22_);fill:#FFFFFF;}
	.st11{clip-path:url(#SVGID_24_);}
	.st12{opacity:0;clip-path:url(#SVGID_28_);fill:#FFFFFF;}
	.st13{clip-path:url(#SVGID_30_);}
	.st14{fill:#7FBEFD;}
	.st15{fill:#7EBDFD;}
	.st16{fill:#B5D9FE;}
	.st17{fill:#79BBFD;}
	.st18{fill:#B4D8FE;}
	.st19{fill:#BBDCFE;}
	.st20{fill:#CBE4FE;}
	.st21{fill:#BEDEFE;}
	.st22{fill:#C5E1FE;}
	.st23{fill:#C4E1FE;}
	.st24{fill:#707070;}
	.st25{fill:#707070;}
</style>
<path class="st0" d="M-2202.7,2361.7c-1.6-3.2-5.1-4.9-8.5-4.4l-43.6,6.7l6.7-43.6c0.5-3.5-1.2-6.9-4.4-8.5c-3.2-1.6-7-1-9.5,1.5
	l-50.6,50.6c-1.2,1.2-2,2.8-2.3,4.5l-8,52l-29,29c-39.9-37.1-91.6-57.4-146.5-57.4c-57.6,0-111.7,22.4-152.4,63.1
	c-40.7,40.7-63.1,94.8-63.1,152.4c0,57.6,22.4,111.7,63.1,152.4c40.7,40.7,94.8,63.1,152.4,63.1s111.7-22.4,152.4-63.1
	c40.7-40.7,63.1-94.8,63.1-152.4c0-45.8-14.2-89.5-40.9-126.4c-2.7-3.7-7.8-4.5-11.4-1.8c-3.7,2.7-4.5,7.8-1.8,11.4
	c24.7,34.1,37.8,74.5,37.8,116.9c0,109.8-89.3,199.1-199.1,199.1s-199.1-89.3-199.1-199.1c0-109.8,89.3-199.1,199.1-199.1
	c50.5,0,98.1,18.6,134.9,52.6l-37.3,37.3c-26.9-24-61.3-37.2-97.6-37.2c-80.7,0-146.3,65.6-146.3,146.3s65.6,146.3,146.3,146.3
	s146.3-65.6,146.3-146.3c0-26.9-7.4-53.3-21.3-76.1c-2.3-3.9-7.4-5.1-11.2-2.7c-3.9,2.3-5.1,7.4-2.7,11.2
	c12.4,20.3,18.9,43.7,18.9,67.6c0,71.7-58.3,130-130,130c-71.7,0-130-58.3-130-130c0-71.7,58.3-130,130-130
	c31.9,0,62.2,11.5,86,32.5l-37.4,37.4c-13.7-11.1-30.7-17.1-48.6-17.1c-42.6,0-77.3,34.7-77.3,77.3c0,42.6,34.7,77.3,77.3,77.3
	c42.6,0,77.3-34.7,77.3-77.3c0-7.6-1.1-15.1-3.3-22.3c-1.3-4.3-5.9-6.8-10.2-5.5c-4.3,1.3-6.8,5.9-5.5,10.2
	c1.7,5.7,2.6,11.6,2.6,17.6c0,33.6-27.3,60.9-60.9,60.9c-33.6,0-60.9-27.3-60.9-60.9c0-33.6,27.3-60.9,60.9-60.9
	c13.5,0,26.4,4.4,36.9,12.4l-42.7,42.7c-3.2,3.2-3.2,8.4,0,11.6c1.6,1.6,3.7,2.4,5.8,2.4c2.1,0,4.2-0.8,5.8-2.4l146.6-146.6
	c0.1-0.1,34.7-34.7,34.7-34.7l52-8c1.7-0.3,3.3-1.1,4.5-2.3l50.6-50.6C-2201.7,2368.7-2201.1,2364.8-2202.7,2361.7L-2202.7,2361.7z
	 M-2299.2,2373.7l31.1-31.1l-4.2,27.3l-31.1,31.1L-2299.2,2373.7z M-2264.5,2408.4l-27.3,4.2l31.1-31.1l27.3-4.2
	C-2233.4,2377.3-2264.5,2408.4-2264.5,2408.4z"/>
<g>
	<defs>
		<rect id="SVGID_1_" x="-2550.8" y="2504" width="186" height="124"/>
	</defs>
	<clipPath id="SVGID_2_">
		<use xlink:href="#SVGID_1_"  style="overflow:visible;"/>
	</clipPath>
	<rect x="-2550.8" y="2504" class="st1" width="186" height="124"/>
</g>
<g>
	<defs>
		<rect id="SVGID_3_" x="-3103.8" y="2377.7" width="317" height="211.3"/>
	</defs>
	<clipPath id="SVGID_4_">
		<use xlink:href="#SVGID_3_"  style="overflow:visible;"/>
	</clipPath>
	<g class="st2">
		<defs>
			<rect id="SVGID_5_" x="-3103.8" y="2377.7" width="317" height="211.3"/>
		</defs>
		<clipPath id="SVGID_6_">
			<use xlink:href="#SVGID_5_"  style="overflow:visible;"/>
		</clipPath>
		<g transform="matrix(1 0 0 1 -2.441406e-04 0)" style="clip-path:url(#SVGID_6_);">
			
				<image style="overflow:visible;" width="3713" height="2474" xlink:href="3797DD46C7345966.jpg"  transform="matrix(8.537570e-02 0 0 8.542172e-02 -3103.8398 2377.6667)">
			</image>
		</g>
	</g>
</g>
<g>
	<defs>
		<rect id="SVGID_7_" x="-2995.8" y="2470.7" width="100" height="26"/>
	</defs>
	<clipPath id="SVGID_8_">
		<use xlink:href="#SVGID_7_"  style="overflow:visible;"/>
	</clipPath>
	<rect x="-2995.8" y="2470.7" class="st3" width="100" height="26"/>
	<rect x="-2995.8" y="2470.7" class="st4" width="100" height="26"/>
	<g class="st5">
		<defs>
			<rect id="SVGID_9_" x="-3426.8" y="2359.7" width="961" height="248"/>
		</defs>
		<clipPath id="SVGID_10_">
			<use xlink:href="#SVGID_9_"  style="overflow:visible;"/>
		</clipPath>
		<rect x="-3426.8" y="2359.7" class="st6" width="961" height="248"/>
	</g>
	<g class="st5">
		<defs>
			<rect id="SVGID_11_" x="-3488.3" y="2511.2" width="961" height="248"/>
		</defs>
		<clipPath id="SVGID_12_">
			<use xlink:href="#SVGID_11_"  style="overflow:visible;"/>
		</clipPath>
		<g class="st7">
			<defs>
				<rect id="SVGID_13_" x="-3521.2" y="2511.2" width="1027.6" height="248"/>
			</defs>
			<clipPath id="SVGID_14_">
				<use xlink:href="#SVGID_13_"  style="overflow:visible;"/>
			</clipPath>
			<g style="clip-path:url(#SVGID_14_);">
				
					<image style="overflow:visible;" width="2775" height="668" xlink:href="3797DD46C734596A.jpg"  transform="matrix(0.3703 0 0 0.3713 -3521.2412 2511.1592)">
				</image>
			</g>
		</g>
	</g>
</g>
<image style="overflow:visible;" width="2775" height="668" xlink:href="3797DD46C734596D.jpg"  transform="matrix(0.3703 0 0 0.3713 -3834.2224 1971.6785)">
</image>
<g>
	<defs>
		<rect id="SVGID_15_" x="-3834.2" y="2222.1" width="1633.4" height="421.5"/>
	</defs>
	<clipPath id="SVGID_16_">
		<use xlink:href="#SVGID_15_"  style="overflow:visible;"/>
	</clipPath>
	<rect x="-3834.2" y="2222.1" class="st8" width="1633.4" height="421.5"/>
</g>
<g>
	<defs>
		<rect id="SVGID_17_" x="-4304.2" y="2273.2" width="2528.4" height="652.5"/>
	</defs>
	<clipPath id="SVGID_18_">
		<use xlink:href="#SVGID_17_"  style="overflow:visible;"/>
	</clipPath>
	<g class="st9">
		<defs>
			<rect id="SVGID_19_" x="-4390.8" y="2273.2" width="2703.6" height="652.5"/>
		</defs>
		<clipPath id="SVGID_20_">
			<use xlink:href="#SVGID_19_"  style="overflow:visible;"/>
		</clipPath>
		<g style="clip-path:url(#SVGID_20_);">
			
				<image style="overflow:visible;" width="2775" height="668" xlink:href="3797DD46C734596E.jpg"  transform="matrix(0.9743 0 0 0.9768 -4390.7725 2273.1792)">
			</image>
		</g>
	</g>
</g>
<g id="oiNk2G.tif">
	
		<image style="overflow:visible;" width="2530" height="463" id="Layer_0_1_" xlink:href="3797DD46C734596E.png"  transform="matrix(1 0 0 1 -4303.835 2930.1328)">
	</image>
</g>
<g>
	<defs>
		<rect id="SVGID_21_" x="-1651.8" y="1957" width="393.8" height="322"/>
	</defs>
	<clipPath id="SVGID_22_">
		<use xlink:href="#SVGID_21_"  style="overflow:visible;"/>
	</clipPath>
	<rect x="-1651.8" y="1957" class="st10" width="393.8" height="322"/>
</g>
<g>
	<defs>
		<rect id="SVGID_23_" x="-1209.8" y="1961" width="393.8" height="322"/>
	</defs>
	<clipPath id="SVGID_24_">
		<use xlink:href="#SVGID_23_"  style="overflow:visible;"/>
	</clipPath>
	<g class="st11">
		<defs>
			<rect id="SVGID_25_" x="-1209.8" y="1961" width="393.8" height="322"/>
		</defs>
		<clipPath id="SVGID_26_">
			<use xlink:href="#SVGID_25_"  style="overflow:visible;"/>
		</clipPath>
		<g style="clip-path:url(#SVGID_26_);">
			
				<image style="overflow:visible;" width="1619" height="1215" xlink:href="3797DD46C734596B.jpg"  transform="matrix(-0.2432 0 0 0.265 -816.0798 1961)">
			</image>
		</g>
	</g>
</g>
<g>
	<defs>
		<rect id="SVGID_27_" x="-3828.2" y="1261.1" width="1472.4" height="419.8"/>
	</defs>
	<clipPath id="SVGID_28_">
		<use xlink:href="#SVGID_27_"  style="overflow:visible;"/>
	</clipPath>
	<rect x="-3828.2" y="1261.1" class="st12" width="1472.4" height="419.8"/>
</g>
<g>
	<defs>
		<rect id="SVGID_29_" x="-3828.2" y="1261.1" width="1472.4" height="419.8"/>
	</defs>
	<clipPath id="SVGID_30_">
		<use xlink:href="#SVGID_29_"  style="overflow:visible;"/>
	</clipPath>
	<g class="st13">
		<defs>
			<rect id="SVGID_31_" x="-5227.2" y="1208.8" width="2871.4" height="701.9"/>
		</defs>
		<clipPath id="SVGID_32_">
			<use xlink:href="#SVGID_31_"  style="overflow:visible;"/>
		</clipPath>
		<g style="clip-path:url(#SVGID_32_);">
			
				<image style="overflow:visible;" width="2775" height="668" xlink:href="3797DD46C7345965.jpg"  transform="matrix(1.0347 0 0 1.0508 -5227.1841 1208.7716)">
			</image>
		</g>
	</g>
</g>
<path class="st14" d="M1911.3,1.8c-2.9,0.3-5.7,0.1-8.1-1.8c2.7,0,5.3,0,8,0C1912.6,0.5,1912.6,1.1,1911.3,1.8z"/>
<path class="st15" d="M1465.3,1.8c-2.9,0.3-5.7,0.1-8.1-1.8c2.7,0,5.3,0,8,0C1466.6,0.5,1466.6,1.1,1465.3,1.8z"/>
<path class="st16" d="M1023.2,0c0,0.6,0.1,1.2,0.1,1.8c-3,0.5-5.7,0.1-8.1-1.8C1017.8,0,1020.5,0,1023.2,0z"/>
<path class="st17" d="M999.2,0c-2.4,2-5.3,2.1-8.2,1.8c-1.3-0.7-1.2-1.3,0.2-1.8C993.8,0,996.5,0,999.2,0z"/>
<path class="st18" d="M577.2,0c0,0.6,0.1,1.2,0.1,1.8c-3,0.5-5.7,0.1-8.1-1.8C571.8,0,574.5,0,577.2,0z"/>
<path class="st19" d="M1879,1.7c0-0.6,0.1-1.1,0.1-1.7c2,0,4,0,6,0C1883.5,2,1881.3,2.1,1879,1.7z"/>
<path class="st19" d="M1433,1.7c0-0.6,0.1-1.1,0.1-1.7c2,0,4,0,6,0C1437.5,2,1435.3,2.1,1433,1.7z"/>
<path class="st20" d="M991.2,0c0,0.6-0.1,1.2-0.2,1.8c-1.9,0.1-3.9,0.1-5.8,0.2c0.1-0.6,0.1-1.3,0-1.9C987.2,0,989.2,0,991.2,0z"/>
<path class="st21" d="M541,1.7c0-0.6,0.1-1.2,0.1-1.7c2,0,4,0,6,0C545.5,2.1,543.3,2.1,541,1.7z"/>
<path class="st22" d="M1911.3,1.8c-0.1-0.6-0.2-1.2-0.1-1.8c1.3,0,2.7,0,4,0c0,0.6,0.1,1.2,0.1,1.7
	C1913.9,1.8,1912.6,1.8,1911.3,1.8z"/>
<path class="st23" d="M1465.3,1.8c-0.1-0.6-0.2-1.2-0.1-1.8c1.3,0,2.7,0,4,0c0,0.6,0.1,1.2,0.1,1.7
	C1467.9,1.8,1466.6,1.8,1465.3,1.8z"/>
<path class="st24" d="M2453.2,482c-1.9-2.8-0.6-5.9-1-8.9c0-2.1,0-4.2,0-6.3c-1.1-16.5-1.4-33.1-6.3-49.2
	c-14.9-48.2-41.3-89-78.4-123c-53-48.7-115.1-74.5-187.2-75.1c-49.9-0.4-99.9,0-149.9-0.1c-15.5,0-16.2-1-16.5-16.4
	c-0.8-34.9,1.3-69.8-1.8-104.8c-3.8-42.8-44-96.8-95.4-97.1c-1.6,0-3.2,0-4.7,0c-2.9-0.4-6,0.9-8.7-1c-6,0-12,0-18,0
	c-2.5,1.8-5.4,0.7-8.1,1c-12.1,1.7-24.6,1.6-35.5,8.5c-38.4,24.2-61.2,57.5-61.1,104.3c0,29.6,0.1,59.3,0,88.9
	c0,15.2-1.4,16.6-16.6,16.6c-59.6,0.1-119.2,0.1-178.8,0c-15.8,0-16.8-1.3-17.2-17c-0.8-34.3,0.8-68.5-1.6-102.8
	c-3-41.9-43.2-98.1-95.2-98.5c-1.6,0-3.3,0-4.9,0c-3-0.4-6.2,0.9-9-1c-6,0-12,0-18,0c-2.5,1.8-5.4,0.7-8.1,1
	c-12.1,1.7-24.6,1.7-35.5,8.5c-38.2,23.9-60.7,57.1-61,103.4c-0.2,30,0,60-0.1,89.9c-0.1,15.1-1.5,16.5-16.7,16.5
	c-59.6,0.1-119.3,0.1-178.9,0c-15.7,0-16.6-1.3-17-17.2c-0.8-34.3,0.8-68.5-1.6-102.8C1117.6,60,1078,0.6,1024.8,1
	c-3.2-0.4-6.6,1-9.7-1c-5.3,0-10.7,0-16,0c-2.8,2-6,0.6-9.1,1c-2.2,0-4.4,0-6.5,0c-10.7,2-22,1.5-31.8,7.3
	c-39.4,23.5-62.7,56.9-63.2,103.9c-0.3,30,0,59.9-0.1,89.9c0,15.8-1.3,17.1-17.1,17.1c-59.6,0.1-119.2,0-178.8,0
	c-2.3,0-4.7-0.1-7-0.2c-6-0.3-9.2-3.3-9.6-9.3c-0.3-4.3-0.1-8.7-0.2-13c-0.9-32.9,1.1-65.8-1.7-98.8C670.5,55.5,629.3,0.4,578.8,1
	c-3.2-0.4-6.6,1-9.7-1c-7.3,0-14.7,0-22,0c-2.4,1.8-5.2,0.7-7.8,1c-12.2,1.4-24.7,1.8-35.6,8.5c-38.2,23.4-60.4,56.5-61.2,102.2
	c-0.5,27.3-0.1,54.6-0.1,81.9c0,27.1,2,25.7-25.2,25.7c-49.3,0-98.6-0.4-147.9,0.1c-43.4,0.5-84.3,12.2-122.4,32.6
	c-45.9,24.6-82.9,59.1-109.4,104C16,392.6,0.3,431.2,1.2,474.7c-2.3,566.4-0.4,1132.9-1,1699.4c0.3,8.8,1.5,17.5,1,26.3
	c-0.5,45.9,15.9,86.6,39.4,124.8c20.3,32.9,46.8,60.4,78.8,82.2c40.7,27.7,84.6,45.8,134.8,45.5c3.4,0,6.7,0,10.1,0
	c4.3,0,8.5,0,12.8,0c634.8,0,1269.5,0,1904.3,0c3.7,0,7.3,0,10.9,0c3.4,0,6.7,0,10.1,0c16.2-1.4,32.6-1.1,48.4-5.5
	c72.5-20.4,128-63.3,167.5-127.1c20.8-33.7,34.6-69.6,33.9-109.9c0-2,0-4,0-6c0.4-2.8-0.9-5.8,1-8.4
	C2453.2,1624.7,2453.2,1053.3,2453.2,482z M2230.7,2181.9c-3.6,26-25.1,46-51.3,47.9c-5,0.4-10,0.3-15,0.3c-312.3,0-624.7,0-937,0
	c-312,0-624,0-936,0c-5.3,0-10.7,0.1-16-0.4c-27.8-2.4-49.3-25.1-50.5-53c-0.2-4.3-0.1-8.7-0.1-13c0-550.7,0-1101.3,0-1652
	c0-7.3-0.6-14.7,1.1-21.9c6-25.3,27.4-43.2,54.3-43.4c53.3-0.5,106.7-0.2,160-0.1c7,0,7.1,0.3,7.1,8.5c0.1,34.7-0.7,69.4,0.2,104
	c1.1,43.9,21.3,77.3,60.2,98c67.6,36.1,152.6-8.5,161.7-84.5c0.8-7,1.3-13.9,1.3-20.9c-0.1-31,0-62,0-93c0-2.3,0.1-4.7,0-7
	c-0.1-3.9,2-5.3,5.6-5.1c2,0.1,4,0,6,0c66.7,0,133.3,0,200,0c11.2,0,11.1-1,11.1,10.7c0,33.7-0.6,67.3,0.2,101
	c0.9,43.9,20.7,77.4,59.4,98.5c68.1,37.1,153.8-8.1,162.6-85.2c0.9-8,1.1-15.9,1.1-23.9c0-29.7,0-59.3,0-89c0-2.3,0.1-4.7,0.1-7
	c0-3.2,1.3-5,4.7-5c2,0,4-0.1,6-0.1c67,0,134,0,201,0c0.3,0,0.7,0,1,0c9.8,0.1,9.9,0.1,9.9,9.9c0,34.3-0.8,68.7,0.2,103
	c1.5,47.3,24.2,82,67.6,101.2c68.1,30.1,146.5-16.2,154.5-90.2c1-9.7,0.9-19.3,0.9-29c0-27.7,0-55.3,0-83c0-2.7,0-5.3,0.2-8
	c0.1-2.3,1.4-3.7,3.8-3.7c2.7-0.1,5.3-0.1,8-0.1c66.3,0,132.7,0,199,0c1,0,2,0,3,0c8.6,0.2,8.7,0.2,8.7,9c0.1,35-0.3,70,0.1,105
	c0.6,48.4,33.5,91.1,79.9,104.7c66.9,19.6,135.3-26.6,142.3-96c1.2-12,0.8-24,0.8-36c0.1-25.3,0-50.7,0-76
	c0-10.6,0.1-10.7,10.1-10.7c51,0,102-0.1,153,0c35.9,0.1,59.5,23.6,59.6,59.6c0.2,66.7,0,133.3,0,200c0,486,0,972,0,1458
	C2231.3,2170,2231.5,2176,2230.7,2181.9z"/>
<path class="st25" d="M1228.2,1561.4c-220.6,0-441.3,0-661.9,0.1c-23.8,0-46.2-4.5-66.7-17.3c-38.8-24.3-59-71.1-50.1-116.7
	c8.8-44.8,46.3-80.6,91.7-87.8c7.3-1.1,14.6-1.5,21.9-1.5c443.3,0,886.5,0.1,1329.8-0.2c54,0,97.2,34.4,110.7,80.1
	c19.9,67.3-26.6,136.3-96.5,142.4c-7,0.6-14,0.8-21,0.8C1666.8,1561.4,1447.5,1561.4,1228.2,1561.4z"/>
<path class="st25" d="M1144.6,1171c-191.3,0-382.7,0-574,0c-12,0-24,0-35.8-2.7c-52.8-11.8-88.8-58.8-87.3-114.1
	c1.4-50.9,41.1-95.7,92.6-104.6c9.3-1.6,18.6-1.6,27.9-1.6c384.3,0,768.7,0,1153,0c3.7,0,7.3-0.1,11,0.1
	c45.7,2.3,79.4,23.9,98.8,65.2c31.3,66.5-10.8,144.7-83.2,156.3c-11.2,1.8-22.6,1.5-33.9,1.5c-107,0-214,0-321,0
	C1309.9,1171,1227.2,1171,1144.6,1171z"/>
<path class="st25" d="M949.2,1951.7c-128.3,0-256.6-0.1-384.9,0.1c-25.4,0-48.8-5.8-69.7-20.7c-38.8-27.7-56.1-76.9-42.9-122.1
	c13.2-45.4,53.6-77.3,101.4-80.3c4.3-0.3,8.7-0.3,13-0.3c255.6,0,511.2,0.1,766.9-0.1c34.5,0,64.6,10.2,87.8,36
	c29.4,32.6,38.2,70.9,23.6,112.4c-14.7,41.8-45.5,66.2-89.3,73.7c-7.9,1.3-15.9,1.4-23.9,1.4
	C1203.8,1951.7,1076.5,1951.7,949.2,1951.7z"/>
</svg>
