<?xml version="1.0" encoding="utf-8"?>
<!-- Generator: Adobe Illustrator 21.0.2, SVG Export Plug-In . SVG Version: 6.00 Build 0)  -->
<svg version="1.1" id="Camada_1" xmlns="http://www.w3.org/2000/svg" xmlns:xlink="http://www.w3.org/1999/xlink" x="0px" y="0px"
	 viewBox="0 0 512 512" style="enable-background:new 0 0 512 512;" xml:space="preserve">
<style type="text/css">
	.st0{fill:#707070;}
</style>
<path class="st0" d="M511.1,50.7c-1.6-3.2-5.1-4.9-8.5-4.4L459,53l6.7-43.6c0.5-3.5-1.2-6.9-4.4-8.5c-3.2-1.6-7-1-9.5,1.5L401.2,53
	c-1.2,1.2-2,2.8-2.3,4.5l-8,52l-29,29c-39.9-37.1-91.6-57.4-146.5-57.4c-57.6,0-111.7,22.4-152.4,63.1C22.4,184.9,0,239,0,296.6
	s22.4,111.7,63.1,152.4c40.7,40.7,94.8,63.1,152.4,63.1s111.7-22.4,152.4-63.1c40.7-40.7,63.1-94.8,63.1-152.4
	c0-45.8-14.2-89.5-40.9-126.4c-2.7-3.7-7.8-4.5-11.4-1.8c-3.7,2.7-4.5,7.8-1.8,11.4c24.7,34.1,37.8,74.5,37.8,116.9
	c0,109.8-89.3,199.1-199.1,199.1S16.3,406.4,16.3,296.6S105.7,97.5,215.4,97.5c50.5,0,98.1,18.6,134.9,52.6L313,187.5
	c-26.9-24-61.3-37.2-97.6-37.2c-80.7,0-146.3,65.6-146.3,146.3s65.6,146.3,146.3,146.3s146.3-65.6,146.3-146.3
	c0-26.9-7.4-53.3-21.3-76.1c-2.3-3.9-7.4-5.1-11.2-2.7c-3.9,2.3-5.1,7.4-2.7,11.2c12.4,20.3,18.9,43.7,18.9,67.6
	c0,71.7-58.3,130-130,130c-71.7,0-130-58.3-130-130s58.3-130,130-130c31.9,0,62.2,11.5,86,32.5L264,236.5
	c-13.7-11.1-30.7-17.1-48.6-17.1c-42.6,0-77.3,34.7-77.3,77.3s34.7,77.3,77.3,77.3c42.6,0,77.3-34.7,77.3-77.3
	c0-7.6-1.1-15.1-3.3-22.3c-1.3-4.3-5.9-6.8-10.2-5.5c-4.3,1.3-6.8,5.9-5.5,10.2c1.7,5.7,2.6,11.6,2.6,17.6
	c0,33.6-27.3,60.9-60.9,60.9s-60.9-27.3-60.9-60.9c0-33.6,27.3-60.9,60.9-60.9c13.5,0,26.4,4.4,36.9,12.4l-42.7,42.7
	c-3.2,3.2-3.2,8.4,0,11.6c1.6,1.6,3.7,2.4,5.8,2.4s4.2-0.8,5.8-2.4l146.6-146.6c0.1-0.1,34.7-34.7,34.7-34.7l52-8
	c1.7-0.3,3.3-1.1,4.5-2.3l50.6-50.6C512.1,57.7,512.7,53.8,511.1,50.7L511.1,50.7z M414.6,62.7l31.1-31.1l-4.2,27.3L410.4,90
	L414.6,62.7z M449.3,97.4l-27.3,4.2l31.1-31.1l27.3-4.2C480.4,66.3,449.3,97.4,449.3,97.4z"/>
</svg>
